<svg id="svg" version="1.1" xmlns="http://www.w3.org/2000/svg" xmlns:xlink="http://www.w3.org/1999/xlink" width="400" height="450.1098901098901" viewBox="0, 0, 400,450.1098901098901"><g id="svgg"><path id="path0" d="M192.637 76.187 C 192.154 76.225,190.374 76.361,188.681 76.488 C 149.083 79.479,111.425 99.198,85.958 130.279 C 38.033 188.768,41.660 273.820,94.385 327.885 C 157.963 393.078,264.376 386.323,319.281 313.609 C 322.704 309.077,329.450 298.827,329.185 298.562 C 329.117 298.494,320.890 293.723,280.110 270.103 C 272.011 265.411,265.255 261.541,265.097 261.501 C 264.931 261.459,264.085 262.555,263.097 264.091 C 237.319 304.158,181.830 310.161,148.347 276.505 C 116.589 244.582,120.485 192.131,156.619 165.147 C 188.507 141.332,233.605 147.204,258.501 178.411 C 260.436 180.837,264.004 185.968,264.232 186.653 C 264.289 186.822,266.146 185.871,269.249 184.082 C 271.959 182.520,276.747 179.762,279.890 177.954 C 305.994 162.935,327.702 150.430,328.285 150.076 L 328.988 149.648 327.803 147.694 C 303.843 108.181,263.015 81.997,217.473 76.938 C 210.399 76.152,197.891 75.774,192.637 76.187 M305.002 192.253 L 304.945 202.747 294.451 202.804 L 283.956 202.861 283.956 208.022 L 283.956 213.183 294.451 213.240 L 304.945 213.297 305.002 223.791 L 305.059 234.286 294.508 234.286 L 283.956 234.286 283.956 239.560 L 283.956 244.835 294.505 244.835 L 305.055 244.835 305.055 255.385 L 305.055 265.934 310.220 265.934 L 315.385 265.934 315.385 255.385 L 315.385 244.835 325.934 244.835 L 336.484 244.835 336.484 255.385 L 336.484 265.934 341.758 265.934 L 347.033 265.934 347.033 255.385 L 347.033 244.835 357.586 244.835 L 368.140 244.835 368.081 239.615 L 368.022 234.396 357.527 234.339 L 347.033 234.281 347.033 223.734 L 347.033 213.187 357.582 213.187 L 368.132 213.187 368.132 208.022 L 368.132 202.857 357.582 202.857 L 347.033 202.857 347.033 192.308 L 347.033 181.758 341.758 181.758 L 336.484 181.758 336.484 192.308 L 336.484 202.857 325.934 202.857 L 315.385 202.857 315.385 192.308 L 315.385 181.758 310.222 181.758 L 305.059 181.758 305.002 192.253 M336.484 223.736 L 336.484 234.286 325.934 234.286 L 315.385 234.286 315.385 223.736 L 315.385 213.187 325.934 213.187 L 336.484 213.187 336.484 223.736 " stroke="none" fill="#fbfbfb" fill-rule="evenodd"></path><path id="path1" d="M193.516 0.418 C 188.028 1.432,183.433 3.178,178.132 6.264 C 176.923 6.967,175.365 7.873,174.670 8.277 C 173.975 8.681,172.813 9.357,172.088 9.780 C 171.363 10.203,170.201 10.880,169.505 11.284 C 168.810 11.687,167.253 12.592,166.044 13.295 C 163.539 14.751,154.882 19.751,146.318 24.688 C 142.864 26.679,140.890 27.816,131.703 33.106 C 122.335 38.499,120.538 39.534,117.143 41.492 C 112.082 44.410,106.999 47.336,101.978 50.218 C 99.621 51.571,95.665 53.845,93.187 55.272 C 90.709 56.699,86.728 58.989,84.341 60.362 C 76.654 64.780,71.313 67.852,66.758 70.473 C 64.310 71.881,60.379 74.138,58.022 75.489 C 55.665 76.839,52.104 78.886,50.110 80.038 C 41.042 85.275,36.127 88.110,31.319 90.877 C 28.041 92.764,25.301 94.345,19.890 97.472 C 8.074 104.300,1.629 113.808,0.225 126.484 C -0.214 130.443,0.040 322.746,0.487 324.835 C 1.414 329.169,2.691 333.037,4.019 335.528 L 4.505 336.440 38.014 317.137 C 56.444 306.521,71.593 297.878,71.679 297.931 C 71.765 297.984,71.336 297.161,70.727 296.102 C 63.852 284.157,57.463 266.429,54.840 252.028 C 39.334 166.863,96.921 88.212,182.974 77.026 C 239.778 69.642,298.589 98.386,327.897 147.857 C 328.417 148.734,328.935 149.451,329.050 149.451 C 329.286 149.451,393.811 112.369,394.221 111.998 C 394.688 111.575,391.873 107.682,389.020 104.805 C 384.923 100.674,384.249 100.215,371.648 92.975 C 360.607 86.631,356.061 84.010,353.516 82.524 C 352.429 81.888,350.500 80.776,349.231 80.052 C 346.121 78.279,340.576 75.090,335.431 72.117 C 333.100 70.770,328.501 68.120,325.211 66.228 C 316.507 61.223,312.663 59.010,308.462 56.585 C 306.407 55.399,303.143 53.521,301.209 52.411 C 299.275 51.302,296.060 49.453,294.066 48.302 C 282.023 41.357,273.899 36.675,268.681 33.674 C 265.418 31.797,261.115 29.320,259.121 28.169 C 257.126 27.018,254.258 25.365,252.747 24.494 C 251.236 23.624,248.714 22.170,247.143 21.265 C 245.571 20.359,242.604 18.650,240.549 17.466 C 238.495 16.282,235.676 14.656,234.286 13.852 C 215.363 2.915,213.808 2.162,206.979 0.629 C 204.000 -0.040,196.620 -0.155,193.516 0.418 M193.956 150.779 C 141.897 155.967,111.390 211.038,134.746 257.665 C 135.511 259.191,136.213 260.440,136.307 260.440 C 136.464 260.440,149.580 252.902,235.110 203.658 C 251.096 194.454,264.176 186.813,264.176 186.679 C 264.176 185.609,257.658 177.073,253.724 172.990 C 238.443 157.131,215.558 148.627,193.956 150.779 M304.937 192.198 C 304.937 198.000,304.965 200.342,305.000 197.402 C 305.034 194.463,305.034 189.715,305.000 186.853 C 304.965 183.990,304.937 186.396,304.937 192.198 M304.937 223.846 C 304.937 229.648,304.965 231.990,305.000 229.051 C 305.034 226.111,305.034 221.364,305.000 218.501 C 304.965 215.639,304.937 218.044,304.937 223.846 M304.937 255.385 C 304.937 261.247,304.965 263.646,305.000 260.714 C 305.034 257.783,305.034 252.986,305.000 250.055 C 304.965 247.124,304.937 249.522,304.937 255.385 M252.849 276.758 L 251.758 277.912 252.912 276.821 C 253.547 276.222,254.066 275.702,254.066 275.668 C 254.066 275.504,253.862 275.686,252.849 276.758 M199.733 298.404 C 200.371 298.449,201.360 298.448,201.930 298.403 C 202.501 298.358,201.978 298.321,200.769 298.322 C 199.560 298.323,199.094 298.360,199.733 298.404 M307.788 327.088 L 307.143 327.802 307.857 327.157 C 308.523 326.555,308.672 326.374,308.503 326.374 C 308.465 326.374,308.143 326.695,307.788 327.088 M303.173 331.703 L 302.527 332.418 303.242 331.772 C 303.908 331.170,304.057 330.989,303.887 330.989 C 303.849 330.989,303.528 331.310,303.173 331.703 " stroke="none" fill="#a47cdc" fill-rule="evenodd"></path><path id="path2" d="M168.487 242.192 C 151.095 252.212,136.772 260.503,136.659 260.616 C 136.012 261.263,142.768 270.566,147.355 275.347 C 179.058 308.382,232.314 305.207,259.753 268.647 C 262.435 265.074,264.761 261.367,264.479 261.115 C 264.163 260.832,200.410 223.955,200.254 223.965 C 200.175 223.969,185.880 232.171,168.487 242.192 M38.347 317.140 C 20.097 327.651,5.078 336.284,4.972 336.322 C 4.398 336.531,7.513 340.931,10.199 343.706 C 14.687 348.341,10.388 345.744,75.714 383.295 C 129.728 414.344,157.764 430.499,171.648 438.576 C 180.274 443.593,182.479 444.764,185.688 446.026 C 194.537 449.507,204.222 449.592,213.054 446.265 C 216.268 445.054,219.519 443.291,234.725 434.510 C 243.368 429.520,279.813 408.523,315.714 387.851 C 382.759 349.247,382.411 349.450,385.385 347.127 C 388.963 344.331,395.183 336.985,394.474 336.392 C 394.228 336.186,329.375 298.688,329.346 298.734 C 329.327 298.766,328.683 299.830,327.915 301.099 C 293.401 358.163,225.314 385.268,160.992 367.550 C 124.901 357.609,93.003 333.436,73.738 301.429 C 72.792 299.857,71.908 298.449,71.773 298.299 C 71.583 298.089,64.047 302.337,38.347 317.140 " stroke="none" fill="#2c046c" fill-rule="evenodd"></path><path id="path3" d="M381.538 119.434 C 348.645 138.444,291.188 171.543,232.527 205.276 C 214.819 215.460,200.309 223.808,200.284 223.828 C 200.217 223.882,264.676 261.209,264.835 261.209 C 265.033 261.209,328.567 298.005,329.341 298.568 C 329.703 298.832,344.489 307.435,362.198 317.687 C 379.907 327.938,394.431 336.356,394.474 336.392 C 394.875 336.727,391.401 341.388,388.602 344.270 C 387.437 345.471,386.847 346.148,387.290 345.776 C 393.521 340.547,397.728 332.349,399.035 322.889 C 399.629 318.582,399.497 129.303,398.896 125.308 C 398.483 122.564,398.434 122.290,398.127 120.989 C 397.435 118.058,394.941 112.066,394.431 112.110 C 394.291 112.121,388.489 115.418,381.538 119.434 M315.604 192.198 L 315.604 202.637 326.044 202.637 L 336.484 202.637 336.484 192.198 L 336.484 181.758 341.758 181.758 L 347.033 181.758 347.033 192.198 L 347.033 202.637 357.582 202.637 L 368.132 202.637 368.132 208.022 L 368.132 213.407 357.582 213.407 L 347.033 213.407 347.033 223.846 L 347.033 234.286 357.582 234.286 L 368.132 234.286 368.132 239.560 L 368.132 244.835 357.582 244.835 L 347.033 244.835 347.033 255.385 L 347.033 265.934 341.758 265.934 L 336.484 265.934 336.484 255.385 L 336.484 244.835 326.044 244.835 L 315.604 244.835 315.604 255.385 L 315.604 265.934 310.220 265.934 L 304.835 265.934 304.835 255.385 L 304.835 244.835 294.286 244.835 L 283.736 244.835 283.736 239.560 L 283.736 234.286 294.286 234.286 L 304.835 234.286 304.835 223.848 L 304.835 213.411 294.341 213.354 L 283.846 213.297 283.846 208.022 L 283.846 202.747 294.341 202.690 L 304.835 202.633 304.835 192.196 L 304.835 181.758 310.220 181.758 L 315.604 181.758 315.604 192.198 M315.604 223.846 L 315.604 234.286 326.044 234.286 L 336.484 234.286 336.484 223.846 L 336.484 213.407 326.044 213.407 L 315.604 213.407 315.604 223.846 M147.692 275.893 C 147.692 275.931,148.014 276.252,148.407 276.607 L 149.121 277.253 148.475 276.538 C 147.874 275.873,147.692 275.723,147.692 275.893 M4.615 336.567 C 4.615 336.769,6.117 339.121,6.245 339.121 C 6.340 339.121,4.962 336.757,4.733 336.528 C 4.669 336.463,4.615 336.481,4.615 336.567 M7.253 340.634 C 9.281 343.526,14.828 348.518,17.747 350.081 C 18.725 350.604,18.212 350.155,16.648 349.118 C 13.390 346.959,9.610 343.446,7.485 340.604 C 6.251 338.953,6.088 338.974,7.253 340.634 M385.495 347.071 C 385.071 347.430,383.687 348.421,382.418 349.271 C 379.949 350.926,379.570 351.212,380.440 350.767 C 381.256 350.349,384.143 348.400,385.275 347.503 C 385.819 347.072,386.305 346.690,386.355 346.656 C 386.406 346.622,386.406 346.554,386.355 346.505 C 386.305 346.456,385.918 346.711,385.495 347.071 M18.462 350.406 C 18.462 350.475,19.277 351.013,20.275 351.601 C 23.011 353.213,25.055 354.335,25.055 354.225 C 25.055 354.171,23.794 353.403,22.253 352.520 C 20.712 351.636,19.228 350.770,18.956 350.596 C 18.684 350.422,18.462 350.336,18.462 350.406 M378.286 351.792 C 377.525 352.225,376.943 352.621,376.994 352.671 C 377.088 352.766,379.780 351.223,379.780 351.073 C 379.780 350.944,379.760 350.953,378.286 351.792 M375.934 353.187 C 375.571 353.427,375.374 353.622,375.495 353.620 C 375.715 353.617,376.910 352.760,376.703 352.754 C 376.643 352.752,376.297 352.947,375.934 353.187 M374.009 354.262 C 372.670 355.048,372.373 355.354,373.516 354.769 C 374.365 354.336,375.390 353.636,375.165 353.644 C 375.104 353.647,374.584 353.925,374.009 354.262 M25.714 354.707 C 26.243 355.138,26.593 355.279,26.593 355.061 C 26.593 355.003,26.272 354.799,25.879 354.608 L 25.165 354.259 25.714 354.707 M27.253 355.586 C 27.782 356.018,28.132 356.158,28.132 355.940 C 28.132 355.882,27.810 355.679,27.418 355.487 L 26.703 355.138 27.253 355.586 M371.033 355.968 C 370.272 356.401,369.690 356.797,369.741 356.847 C 369.836 356.942,372.527 355.398,372.527 355.249 C 372.527 355.119,372.507 355.129,371.033 355.968 M29.451 356.780 C 29.451 356.876,36.378 360.927,37.582 361.535 C 39.605 362.556,34.670 359.604,29.615 356.770 C 29.525 356.719,29.451 356.724,29.451 356.780 M368.681 357.363 C 368.319 357.603,368.121 357.798,368.242 357.796 C 368.462 357.792,369.657 356.936,369.451 356.929 C 369.390 356.928,369.044 357.122,368.681 357.363 M365.103 359.384 C 363.619 360.240,362.442 360.977,362.487 361.022 C 362.575 361.110,367.438 358.342,367.791 358.003 C 368.172 357.637,367.825 357.816,365.103 359.384 M361.429 361.538 C 361.066 361.779,360.868 361.974,360.989 361.972 C 361.209 361.968,362.404 361.112,362.198 361.105 C 362.137 361.103,361.791 361.298,361.429 361.538 M38.681 362.180 C 39.210 362.611,39.560 362.752,39.560 362.533 C 39.560 362.476,39.239 362.272,38.846 362.080 L 38.132 361.732 38.681 362.180 M40.220 363.059 C 40.749 363.490,41.099 363.631,41.099 363.412 C 41.099 363.355,40.777 363.151,40.385 362.959 L 39.670 362.611 40.220 363.059 M357.300 363.882 C 356.117 364.559,355.188 365.151,355.236 365.199 C 355.322 365.286,359.039 363.187,359.440 362.826 C 359.847 362.459,359.426 362.666,357.300 363.882 M42.418 364.253 C 42.418 364.349,49.345 368.399,50.549 369.007 C 52.572 370.028,47.637 367.077,42.582 364.242 C 42.492 364.191,42.418 364.196,42.418 364.253 M354.176 365.714 C 353.813 365.954,353.615 366.149,353.736 366.148 C 353.957 366.144,355.152 365.288,354.945 365.281 C 354.885 365.279,354.538 365.474,354.176 365.714 M349.288 368.505 C 347.688 369.431,346.415 370.224,346.458 370.268 C 346.539 370.349,351.813 367.344,352.187 367.003 C 352.622 366.607,352.114 366.870,349.288 368.505 M51.648 369.652 C 52.177 370.083,52.527 370.224,52.527 370.006 C 52.527 369.948,52.206 369.745,51.813 369.553 L 51.099 369.204 51.648 369.652 M53.077 370.437 C 53.574 370.852,55.394 371.814,55.055 371.482 C 54.934 371.364,54.341 370.998,53.736 370.669 C 53.132 370.339,52.835 370.235,53.077 370.437 M342.585 372.357 C 340.682 373.461,339.160 374.398,339.203 374.441 C 339.287 374.525,345.692 370.858,346.033 370.530 C 346.433 370.146,346.023 370.363,342.585 372.357 M55.495 371.811 C 55.615 371.937,56.308 372.363,57.033 372.759 C 57.758 373.154,58.253 373.378,58.132 373.255 C 58.011 373.133,57.319 372.707,56.593 372.308 C 55.868 371.909,55.374 371.685,55.495 371.811 M196.211 372.903 C 196.485 372.955,196.880 372.953,197.090 372.898 C 197.301 372.843,197.077 372.800,196.593 372.803 C 196.110 372.805,195.938 372.850,196.211 372.903 M204.343 372.903 C 204.617 372.955,205.012 372.953,205.222 372.898 C 205.432 372.843,205.209 372.800,204.725 372.803 C 204.242 372.805,204.070 372.850,204.343 372.903 M58.462 373.470 C 58.462 373.641,61.148 375.189,61.256 375.081 C 61.311 375.026,61.125 374.860,60.843 374.713 C 60.561 374.566,59.909 374.202,59.396 373.905 C 58.882 373.608,58.462 373.412,58.462 373.470 M61.978 375.585 C 62.280 375.832,62.626 376.035,62.747 376.036 C 62.982 376.037,62.585 375.733,61.868 375.363 C 61.576 375.212,61.613 375.286,61.978 375.585 M334.336 377.115 C 331.317 378.862,329.760 379.860,331.209 379.119 C 332.326 378.549,337.802 375.337,337.802 375.252 C 337.802 375.109,337.820 375.100,334.336 377.115 M63.187 376.205 C 63.489 376.538,69.942 380.241,70.043 380.140 C 70.088 380.095,68.761 379.287,67.095 378.343 C 65.429 377.399,63.819 376.478,63.516 376.295 C 63.214 376.113,63.066 376.072,63.187 376.205 M327.083 381.291 C 324.057 383.042,322.519 384.028,323.956 383.296 C 325.115 382.706,330.549 379.523,330.549 379.434 C 330.549 379.284,330.588 379.263,327.083 381.291 M70.440 380.385 C 70.740 380.712,78.736 385.293,78.834 385.195 C 78.877 385.152,77.352 384.225,75.445 383.136 C 73.538 382.046,71.582 380.928,71.099 380.651 C 70.615 380.373,70.319 380.254,70.440 380.385 M319.831 385.467 C 316.804 387.218,315.267 388.204,316.703 387.472 C 317.862 386.882,323.297 383.699,323.297 383.610 C 323.297 383.460,323.335 383.439,319.831 385.467 M79.508 385.636 C 80.080 386.106,83.077 387.769,83.077 387.616 C 83.077 387.560,82.558 387.221,81.923 386.861 C 79.191 385.314,78.995 385.215,79.508 385.636 M83.407 387.855 C 83.527 387.981,84.220 388.407,84.945 388.803 C 85.670 389.198,86.165 389.422,86.044 389.299 C 85.923 389.177,85.231 388.751,84.505 388.352 C 83.780 387.953,83.286 387.729,83.407 387.855 M312.578 389.643 C 309.551 391.393,308.014 392.379,309.451 391.648 C 310.609 391.058,316.044 387.874,316.044 387.786 C 316.044 387.636,316.083 387.615,312.578 389.643 M86.813 389.872 C 87.342 390.303,87.692 390.444,87.692 390.225 C 87.692 390.168,87.371 389.964,86.978 389.773 L 86.264 389.424 86.813 389.872 M88.299 390.691 C 88.871 391.161,91.868 392.824,91.868 392.671 C 91.868 392.615,91.349 392.275,90.714 391.916 C 87.982 390.369,87.787 390.270,88.299 390.691 M305.325 393.818 C 302.299 395.569,300.761 396.555,302.198 395.824 C 303.357 395.234,308.791 392.050,308.791 391.961 C 308.791 391.812,308.830 391.791,305.325 393.818 M92.198 392.910 C 92.319 393.036,93.011 393.462,93.736 393.858 C 94.462 394.253,94.956 394.477,94.835 394.354 C 94.714 394.232,94.022 393.806,93.297 393.407 C 92.571 393.008,92.077 392.784,92.198 392.910 M95.165 394.604 C 95.165 394.665,95.462 394.867,95.824 395.055 C 96.187 395.242,96.484 395.346,96.484 395.286 C 96.484 395.226,96.187 395.023,95.824 394.835 C 95.462 394.648,95.165 394.544,95.165 394.604 M96.703 395.463 C 96.703 395.599,99.284 397.143,99.511 397.143 C 99.702 397.143,99.055 396.704,97.747 395.947 C 97.173 395.615,96.703 395.397,96.703 395.463 M298.072 397.994 C 295.046 399.745,293.508 400.731,294.945 400.000 C 296.104 399.410,301.538 396.226,301.538 396.137 C 301.538 395.987,301.577 395.967,298.072 397.994 M100.879 397.901 C 100.879 397.961,101.176 398.164,101.538 398.352 C 101.901 398.539,102.198 398.643,102.198 398.583 C 102.198 398.522,101.901 398.319,101.538 398.132 C 101.176 397.944,100.879 397.840,100.879 397.901 M102.418 398.780 C 102.418 398.840,102.714 399.043,103.077 399.231 C 103.440 399.418,103.736 399.522,103.736 399.462 C 103.736 399.401,103.440 399.199,103.077 399.011 C 102.714 398.823,102.418 398.719,102.418 398.780 M104.396 399.982 C 104.925 400.413,105.275 400.554,105.275 400.335 C 105.275 400.278,104.953 400.074,104.560 399.883 L 103.846 399.534 104.396 399.982 M290.820 402.170 C 287.793 403.921,286.256 404.907,287.692 404.175 C 288.851 403.585,294.286 400.402,294.286 400.313 C 294.286 400.163,294.324 400.142,290.820 402.170 M105.495 400.518 C 105.495 400.635,107.012 401.550,109.725 403.070 C 110.420 403.460,110.989 403.730,110.989 403.672 C 110.989 403.614,110.124 403.073,109.066 402.470 C 108.008 401.867,106.772 401.154,106.319 400.885 C 105.865 400.616,105.495 400.451,105.495 400.518 M111.209 403.835 C 111.209 403.895,111.505 404.098,111.868 404.286 C 112.231 404.473,112.527 404.577,112.527 404.517 C 112.527 404.456,112.231 404.253,111.868 404.066 C 111.505 403.878,111.209 403.774,111.209 403.835 M284.772 405.640 C 283.589 406.317,282.662 406.911,282.712 406.961 C 282.808 407.057,287.033 404.636,287.033 404.485 C 287.033 404.346,287.049 404.338,284.772 405.640 M112.857 404.780 C 112.978 404.911,115.302 406.297,118.022 407.860 C 123.365 410.931,124.184 411.378,123.846 411.046 C 123.667 410.870,119.898 408.680,113.502 405.035 C 113.026 404.764,112.736 404.649,112.857 404.780 M281.261 407.669 C 279.923 408.454,279.626 408.760,280.769 408.176 C 281.618 407.742,282.643 407.043,282.418 407.051 C 282.357 407.053,281.837 407.331,281.261 407.669 M278.286 409.374 C 277.525 409.807,276.943 410.203,276.994 410.254 C 277.088 410.348,279.780 408.805,279.780 408.656 C 279.780 408.526,279.760 408.536,278.286 409.374 M275.934 410.769 C 275.571 411.009,275.374 411.204,275.495 411.202 C 275.715 411.199,276.910 410.342,276.703 410.336 C 276.643 410.334,276.297 410.529,275.934 410.769 M124.286 411.361 C 124.632 411.715,128.403 413.868,128.502 413.769 C 128.551 413.720,128.018 413.358,127.318 412.966 C 126.617 412.573,125.599 412.001,125.055 411.694 C 124.511 411.387,124.165 411.238,124.286 411.361 M274.009 411.845 C 272.670 412.630,272.373 412.936,273.516 412.352 C 274.365 411.918,275.390 411.218,275.165 411.227 C 275.104 411.229,274.584 411.507,274.009 411.845 M271.033 413.550 C 270.272 413.983,269.690 414.379,269.741 414.429 C 269.836 414.524,272.527 412.981,272.527 412.831 C 272.527 412.702,272.507 412.712,271.033 413.550 M129.231 414.266 C 129.533 414.513,129.879 414.716,130.000 414.717 C 130.235 414.719,129.838 414.414,129.121 414.044 C 128.829 413.893,128.866 413.968,129.231 414.266 M268.681 414.945 C 268.319 415.185,268.121 415.380,268.242 415.378 C 268.462 415.375,269.657 414.518,269.451 414.512 C 269.390 414.510,269.044 414.705,268.681 414.945 M131.538 415.537 C 131.885 415.891,135.656 418.044,135.755 417.945 C 135.804 417.896,135.271 417.534,134.570 417.142 C 133.870 416.749,132.852 416.177,132.308 415.870 C 131.764 415.563,131.418 415.413,131.538 415.537 M266.756 416.021 C 265.418 416.806,265.120 417.112,266.264 416.528 C 267.112 416.094,268.137 415.394,267.912 415.403 C 267.852 415.405,267.331 415.683,266.756 416.021 M263.781 417.726 C 263.019 418.159,262.438 418.555,262.488 418.605 C 262.583 418.700,265.275 417.157,265.275 417.007 C 265.275 416.878,265.254 416.887,263.781 417.726 M136.484 418.443 C 137.013 418.875,137.363 419.015,137.363 418.797 C 137.363 418.740,137.041 418.536,136.648 418.344 L 135.934 417.996 136.484 418.443 M261.429 419.121 C 261.066 419.361,260.868 419.556,260.989 419.554 C 261.209 419.551,262.404 418.694,262.198 418.688 C 262.137 418.686,261.791 418.881,261.429 419.121 M138.791 419.723 C 138.912 419.849,139.604 420.275,140.330 420.671 C 141.055 421.066,141.549 421.290,141.429 421.168 C 141.308 421.045,140.615 420.619,139.890 420.220 C 139.165 419.821,138.670 419.597,138.791 419.723 M253.787 423.495 C 247.741 426.993,245.450 428.390,247.363 427.411 C 248.597 426.779,260.329 419.971,260.538 419.765 C 260.948 419.363,260.468 419.629,253.787 423.495 M142.198 421.740 C 142.727 422.171,143.077 422.312,143.077 422.094 C 143.077 422.036,142.755 421.832,142.363 421.641 L 141.648 421.292 142.198 421.740 M143.297 422.276 C 143.297 422.393,144.814 423.308,147.527 424.828 C 148.223 425.218,148.791 425.489,148.791 425.430 C 148.791 425.372,147.926 424.831,146.868 424.228 C 145.810 423.625,144.574 422.912,144.121 422.643 C 143.668 422.374,143.297 422.209,143.297 422.276 M149.121 425.658 C 149.435 425.997,154.336 428.814,154.437 428.713 C 154.483 428.667,153.652 428.134,152.590 427.529 C 151.528 426.924,150.264 426.202,149.780 425.925 C 149.297 425.648,149.000 425.528,149.121 425.658 M243.892 429.208 C 241.484 430.608,240.264 431.417,241.538 430.769 C 242.609 430.225,246.593 427.870,246.593 427.782 C 246.593 427.637,246.595 427.636,243.892 429.208 M154.835 428.956 C 155.208 429.355,161.319 432.849,161.319 432.663 C 161.319 432.609,160.157 431.901,158.736 431.091 C 157.316 430.281,155.808 429.416,155.385 429.169 C 154.962 428.923,154.714 428.827,154.835 428.956 M238.178 432.504 C 235.770 433.904,234.549 434.714,235.824 434.066 C 236.895 433.522,240.879 431.167,240.879 431.079 C 240.879 430.934,240.880 430.933,238.178 432.504 M161.538 432.846 C 161.538 432.906,161.835 433.109,162.198 433.297 C 162.560 433.484,162.857 433.588,162.857 433.528 C 162.857 433.467,162.560 433.264,162.198 433.077 C 161.835 432.889,161.538 432.785,161.538 432.846 M163.464 433.988 C 164.036 434.458,167.033 436.120,167.033 435.968 C 167.033 435.912,166.514 435.572,165.879 435.213 C 163.147 433.666,162.951 433.567,163.464 433.988 M233.671 435.089 C 232.909 435.522,232.328 435.917,232.378 435.968 C 232.473 436.063,235.165 434.519,235.165 434.370 C 235.165 434.240,235.144 434.250,233.671 435.089 M167.582 436.371 C 168.079 436.786,169.900 437.748,169.560 437.416 C 169.440 437.298,168.846 436.932,168.242 436.603 C 167.637 436.273,167.341 436.169,167.582 436.371 M230.932 436.680 C 229.593 437.465,229.296 437.771,230.440 437.187 C 231.288 436.753,232.313 436.054,232.088 436.062 C 232.027 436.064,231.507 436.342,230.932 436.680 M170.220 437.909 C 170.717 438.324,172.537 439.286,172.198 438.955 C 172.077 438.836,171.484 438.470,170.879 438.141 C 170.275 437.812,169.978 437.707,170.220 437.909 M227.956 438.385 C 227.195 438.818,226.613 439.214,226.664 439.265 C 226.759 439.359,229.451 437.816,229.451 437.667 C 229.451 437.537,229.430 437.547,227.956 438.385 M172.857 439.448 C 173.354 439.863,175.174 440.825,174.835 440.493 C 174.714 440.375,174.121 440.009,173.516 439.680 C 172.912 439.350,172.615 439.246,172.857 439.448 M225.604 439.780 C 225.242 440.020,225.044 440.215,225.165 440.213 C 225.385 440.210,226.580 439.353,226.374 439.347 C 226.313 439.345,225.967 439.540,225.604 439.780 M175.552 441.021 C 176.124 441.491,179.121 443.153,179.121 443.001 C 179.121 442.945,178.602 442.605,177.967 442.246 C 175.235 440.699,175.039 440.600,175.552 441.021 M221.590 442.061 C 219.494 443.264,218.638 443.870,220.000 443.186 C 221.691 442.337,224.093 440.836,223.681 440.886 C 223.651 440.889,222.710 441.418,221.590 442.061 M179.341 443.197 C 179.341 443.546,186.799 446.839,188.264 447.138 C 188.614 447.209,187.962 446.915,186.813 446.484 C 185.665 446.052,183.514 445.115,182.033 444.401 C 180.552 443.686,179.341 443.145,179.341 443.197 M215.495 445.267 C 214.769 445.613,214.238 445.905,214.313 445.915 C 214.527 445.945,216.923 444.855,216.923 444.728 C 216.923 444.578,216.991 444.552,215.495 445.267 M213.077 446.271 C 212.527 446.536,212.509 446.567,212.967 446.455 C 213.590 446.303,214.290 445.946,213.956 445.951 C 213.835 445.952,213.440 446.097,213.077 446.271 M209.560 447.369 C 209.077 447.528,208.879 447.659,209.121 447.659 C 209.363 447.659,209.907 447.526,210.330 447.363 C 211.316 446.983,210.717 446.988,209.560 447.369 M189.874 447.602 C 190.410 447.769,191.201 447.956,191.633 448.017 C 192.064 448.077,191.725 447.932,190.879 447.695 C 189.137 447.205,188.392 447.136,189.874 447.602 M207.473 447.912 C 207.031 448.054,207.009 448.089,207.363 448.095 C 207.604 448.098,208.000 448.016,208.242 447.912 C 208.802 447.671,208.224 447.671,207.473 447.912 M195.882 448.729 C 196.216 448.780,196.711 448.778,196.981 448.726 C 197.251 448.674,196.978 448.633,196.374 448.634 C 195.769 448.636,195.548 448.679,195.882 448.729 M202.476 448.729 C 202.810 448.780,203.304 448.778,203.574 448.726 C 203.845 448.674,203.571 448.633,202.967 448.634 C 202.363 448.636,202.141 448.679,202.476 448.729 M198.841 448.950 C 199.231 448.998,199.924 448.999,200.380 448.952 C 200.836 448.904,200.516 448.864,199.670 448.863 C 198.824 448.862,198.451 448.901,198.841 448.950 " stroke="none" fill="#3c0494" fill-rule="evenodd"></path><path id="path4" d="M315.491 192.198 L 315.495 202.747 325.934 202.750 L 336.374 202.754 325.991 202.693 L 315.609 202.633 315.548 192.141 L 315.488 181.648 315.491 192.198 M283.835 202.917 C 283.776 203.071,283.754 205.469,283.787 208.247 L 283.846 213.297 294.396 213.300 L 304.945 213.303 294.451 213.243 L 283.956 213.183 283.956 208.022 L 283.956 202.861 294.451 202.802 L 304.945 202.743 294.444 202.690 C 286.111 202.648,283.920 202.695,283.835 202.917 M352.253 202.802 C 355.184 202.837,359.981 202.837,362.912 202.802 C 365.843 202.767,363.445 202.739,357.582 202.739 C 351.720 202.739,349.321 202.767,352.253 202.802 M315.485 213.462 C 315.427 213.613,315.407 218.385,315.439 224.066 L 315.499 234.396 315.552 223.903 L 315.604 213.411 326.099 213.352 L 336.593 213.292 326.092 213.240 C 317.854 213.198,315.568 213.246,315.485 213.462 M352.253 213.351 C 355.184 213.386,359.981 213.386,362.912 213.351 C 365.843 213.317,363.445 213.289,357.582 213.289 C 351.720 213.289,349.321 213.317,352.253 213.351 M283.831 239.560 C 283.831 242.522,283.862 243.734,283.900 242.253 C 283.938 240.772,283.938 238.349,283.900 236.868 C 283.862 235.387,283.831 236.599,283.831 239.560 M315.486 255.385 C 315.486 261.247,315.515 263.646,315.549 260.714 C 315.584 257.783,315.584 252.986,315.549 250.055 C 315.515 247.124,315.486 249.522,315.486 255.385 M146.374 274.574 C 146.374 274.612,146.695 274.934,147.088 275.289 L 147.802 275.934 147.157 275.220 C 146.555 274.554,146.374 274.404,146.374 274.574 M149.011 277.212 C 149.011 277.249,149.332 277.571,149.725 277.926 L 150.440 278.571 149.794 277.857 C 149.192 277.191,149.011 277.042,149.011 277.212 M399.440 292.857 C 399.440 297.330,399.469 299.128,399.505 296.854 C 399.541 294.579,399.541 290.920,399.505 288.722 C 399.469 286.524,399.440 288.385,399.440 292.857 M399.432 313.077 C 399.432 315.374,399.465 316.283,399.505 315.098 C 399.544 313.914,399.544 312.035,399.504 310.923 C 399.464 309.811,399.432 310.780,399.432 313.077 M95.600 329.286 C 96.868 330.585,97.931 331.648,97.963 331.648 C 98.122 331.648,97.854 331.367,95.659 329.227 L 93.297 326.923 95.600 329.286 M208.626 372.679 C 208.838 372.734,209.184 372.734,209.396 372.679 C 209.607 372.624,209.434 372.578,209.011 372.578 C 208.588 372.578,208.415 372.624,208.626 372.679 M198.956 372.911 C 199.893 372.952,201.426 372.952,202.363 372.911 C 203.299 372.869,202.533 372.836,200.659 372.836 C 198.786 372.836,198.019 372.869,198.956 372.911 " stroke="none" fill="#9171c4" fill-rule="evenodd"></path></g></svg>