<svg id="svg" version="1.1" xmlns="http://www.w3.org/2000/svg" xmlns:xlink="http://www.w3.org/1999/xlink" width="400" height="400" viewBox="0, 0, 400,400"><g id="svgg"><path id="path0" d="M178.760 120.296 C 178.738 136.303,178.596 149.850,178.444 150.400 C 178.108 151.620,176.657 151.856,173.528 151.201 C 161.593 148.701,137.950 151.235,129.360 155.934 C 128.942 156.163,127.700 156.764,126.600 157.271 C 101.934 168.634,89.180 194.845,92.574 227.200 C 95.028 250.598,107.574 267.842,127.387 275.051 C 140.108 279.679,149.748 281.160,167.200 281.163 C 180.628 281.166,197.825 279.756,206.000 277.981 C 206.990 277.766,209.060 277.423,210.600 277.218 C 212.140 277.013,214.300 276.610,215.400 276.322 L 217.400 275.800 217.400 183.600 L 217.400 91.400 198.100 91.296 L 178.800 91.192 178.760 120.296 M242.583 91.700 C 242.478 91.975,242.439 100.930,242.496 111.600 L 242.600 131.000 262.000 131.000 L 281.400 131.000 281.504 111.426 C 281.586 96.032,281.500 91.784,281.104 91.532 C 280.204 90.961,242.804 91.124,242.583 91.700 M242.643 153.433 C 242.509 153.781,242.402 174.706,242.405 199.933 C 242.412 269.173,241.747 276.884,234.471 291.975 C 229.888 301.478,221.604 309.090,208.523 315.818 C 203.109 318.603,202.865 318.126,211.800 322.217 C 213.560 323.023,217.160 324.721,219.800 325.992 C 222.440 327.262,226.220 329.064,228.200 329.995 C 230.180 330.927,233.240 332.378,235.000 333.220 C 240.408 335.809,239.482 335.975,248.200 330.844 C 261.106 323.247,272.438 310.150,275.026 299.839 C 275.170 299.263,275.449 298.694,275.644 298.573 C 275.840 298.452,276.000 298.010,276.000 297.590 C 276.000 297.170,276.249 296.236,276.554 295.514 C 278.119 291.801,279.840 282.090,280.828 271.400 C 281.439 264.781,281.813 154.745,281.227 153.651 C 280.608 152.493,243.085 152.281,242.643 153.433 M169.720 181.830 C 176.634 182.674,178.261 183.380,178.592 185.674 C 179.102 189.221,178.637 247.923,178.094 248.466 C 177.445 249.115,174.021 249.542,167.000 249.848 C 150.469 250.571,139.431 244.505,134.519 232.000 C 131.343 223.912,131.233 208.830,134.294 201.000 C 138.766 189.562,146.500 183.535,158.859 181.857 C 164.352 181.111,163.851 181.112,169.720 181.830 " stroke="none" fill="#fafafa" fill-rule="evenodd"></path><path id="path1" d="M49.000 19.490 C 48.560 19.600,48.056 19.939,47.880 20.245 C 47.692 20.571,46.908 20.800,45.980 20.800 C 44.842 20.800,44.400 20.968,44.400 21.400 C 44.400 21.771,44.024 22.000,43.412 22.000 C 42.404 22.000,39.375 23.393,38.974 24.041 C 38.853 24.239,38.412 24.400,37.996 24.400 C 37.580 24.400,37.096 24.639,36.920 24.930 C 36.744 25.222,36.330 25.589,36.000 25.746 C 33.971 26.711,30.800 29.554,30.800 30.407 C 30.800 30.623,30.628 30.800,30.417 30.800 C 29.742 30.800,26.800 33.851,26.800 34.551 C 26.800 34.922,26.530 35.329,26.200 35.455 C 25.870 35.582,25.600 35.917,25.600 36.200 C 25.600 36.483,25.330 36.818,25.000 36.945 C 24.670 37.071,24.400 37.636,24.400 38.200 C 24.400 38.764,24.130 39.329,23.800 39.455 C 23.470 39.582,23.200 40.004,23.200 40.394 C 23.200 40.783,22.930 41.326,22.600 41.600 C 22.270 41.874,22.000 42.616,22.000 43.249 C 22.000 44.005,21.794 44.400,21.400 44.400 C 20.963 44.400,20.800 44.851,20.800 46.056 C 20.800 47.171,20.572 47.879,20.100 48.224 C 19.010 49.021,19.010 350.979,20.100 351.776 C 20.572 352.121,20.800 352.829,20.800 353.944 C 20.800 355.149,20.963 355.600,21.400 355.600 C 21.794 355.600,22.000 355.995,22.000 356.751 C 22.000 357.384,22.270 358.126,22.600 358.400 C 22.930 358.674,23.200 359.217,23.200 359.606 C 23.200 359.996,23.470 360.418,23.800 360.545 C 24.130 360.671,24.400 361.236,24.400 361.800 C 24.400 362.364,24.670 362.929,25.000 363.055 C 25.330 363.182,25.600 363.517,25.600 363.800 C 25.600 364.083,25.870 364.418,26.200 364.545 C 26.530 364.671,26.800 365.078,26.800 365.449 C 26.800 366.149,29.742 369.200,30.417 369.200 C 30.628 369.200,30.800 369.377,30.800 369.593 C 30.800 370.446,33.971 373.289,36.000 374.254 C 36.330 374.411,36.744 374.778,36.920 375.070 C 37.096 375.361,37.580 375.600,37.996 375.600 C 38.412 375.600,38.853 375.761,38.974 375.959 C 39.375 376.607,42.404 378.000,43.412 378.000 C 44.024 378.000,44.400 378.229,44.400 378.600 C 44.400 379.037,44.851 379.200,46.056 379.200 C 47.171 379.200,47.879 379.428,48.224 379.900 C 48.710 380.565,56.400 380.600,200.000 380.600 C 343.600 380.600,351.290 380.565,351.776 379.900 C 352.121 379.428,352.829 379.200,353.944 379.200 C 355.149 379.200,355.600 379.037,355.600 378.600 C 355.600 378.229,355.976 378.000,356.588 378.000 C 357.596 378.000,360.625 376.607,361.026 375.959 C 361.147 375.761,361.588 375.600,362.004 375.600 C 362.420 375.600,362.904 375.361,363.080 375.070 C 363.256 374.778,363.670 374.411,364.000 374.254 C 366.029 373.289,369.200 370.446,369.200 369.593 C 369.200 369.377,369.372 369.200,369.583 369.200 C 370.258 369.200,373.200 366.149,373.200 365.449 C 373.200 365.078,373.470 364.671,373.800 364.545 C 374.130 364.418,374.400 364.083,374.400 363.800 C 374.400 363.517,374.670 363.182,375.000 363.055 C 375.330 362.929,375.600 362.364,375.600 361.800 C 375.600 361.236,375.870 360.671,376.200 360.545 C 376.530 360.418,376.800 359.996,376.800 359.606 C 376.800 359.217,377.070 358.674,377.400 358.400 C 377.730 358.126,378.000 357.384,378.000 356.751 C 378.000 355.995,378.206 355.600,378.600 355.600 C 379.037 355.600,379.200 355.149,379.200 353.944 C 379.200 352.829,379.428 352.121,379.900 351.776 C 380.565 351.290,380.600 343.600,380.600 200.000 C 380.600 56.400,380.565 48.710,379.900 48.224 C 379.428 47.879,379.200 47.171,379.200 46.056 C 379.200 44.851,379.037 44.400,378.600 44.400 C 378.206 44.400,378.000 44.005,378.000 43.249 C 378.000 42.616,377.730 41.874,377.400 41.600 C 377.070 41.326,376.800 40.783,376.800 40.394 C 376.800 40.004,376.530 39.582,376.200 39.455 C 375.870 39.329,375.600 38.764,375.600 38.200 C 375.600 37.636,375.330 37.071,375.000 36.945 C 374.670 36.818,374.400 36.483,374.400 36.200 C 374.400 35.917,374.130 35.582,373.800 35.455 C 373.470 35.329,373.200 34.922,373.200 34.551 C 373.200 33.851,370.258 30.800,369.583 30.800 C 369.372 30.800,369.200 30.623,369.200 30.407 C 369.200 29.505,365.682 26.408,363.928 25.767 C 363.558 25.632,363.159 25.269,363.040 24.961 C 362.922 24.652,362.470 24.400,362.036 24.400 C 361.602 24.400,361.147 24.239,361.026 24.041 C 360.625 23.393,357.596 22.000,356.588 22.000 C 355.976 22.000,355.600 21.771,355.600 21.400 C 355.600 20.968,355.158 20.800,354.020 20.800 C 352.931 20.800,352.318 20.582,352.048 20.100 C 351.669 19.423,51.693 18.819,49.000 19.490 M217.774 89.990 L 218.800 90.380 218.800 183.344 L 218.800 276.308 217.900 276.896 C 217.059 277.445,215.668 277.713,208.000 278.798 C 206.350 279.031,204.136 279.417,203.079 279.654 C 202.023 279.891,199.579 280.215,197.649 280.375 C 195.720 280.535,193.939 280.790,193.693 280.942 C 193.447 281.094,190.580 281.385,187.323 281.589 C 184.065 281.793,178.189 282.175,174.264 282.438 C 166.245 282.977,149.668 282.105,144.400 280.868 C 143.410 280.636,141.610 280.250,140.400 280.012 C 135.238 278.994,131.790 278.042,129.340 276.958 C 128.646 276.651,127.879 276.400,127.634 276.400 C 127.389 276.400,126.877 276.229,126.495 276.020 C 126.113 275.811,124.270 274.897,122.400 273.991 C 116.054 270.913,112.288 268.279,107.549 263.605 C 104.084 260.187,98.400 252.653,98.400 251.478 C 98.400 251.250,98.164 250.779,97.875 250.431 C 97.586 250.084,97.030 248.990,96.638 248.000 C 96.247 247.010,95.689 245.660,95.398 245.000 C 94.230 242.342,93.136 238.400,92.348 234.000 C 92.131 232.790,91.739 230.810,91.477 229.600 C 90.829 226.609,90.834 207.758,91.483 204.800 C 91.749 203.590,92.143 201.700,92.359 200.600 C 93.624 194.153,94.753 190.720,97.662 184.476 C 99.738 180.019,103.626 174.161,106.688 170.873 C 107.237 170.283,107.894 169.530,108.147 169.200 C 108.610 168.598,112.001 165.468,114.215 163.600 C 116.781 161.435,121.608 158.456,125.800 156.452 C 128.220 155.294,130.476 154.202,130.813 154.025 C 131.150 153.847,132.050 153.568,132.813 153.405 C 133.576 153.241,134.380 152.969,134.600 152.800 C 135.013 152.483,137.504 151.836,141.000 151.138 C 142.100 150.918,143.625 150.546,144.389 150.311 C 145.863 149.858,150.965 149.351,158.187 148.940 C 163.521 148.636,172.665 149.481,176.300 150.613 L 177.200 150.893 177.206 120.947 C 177.212 91.210,177.246 90.331,178.400 89.892 C 179.472 89.483,216.686 89.577,217.774 89.990 M282.386 90.774 C 282.925 91.781,282.947 131.149,282.409 132.000 C 281.813 132.943,242.776 133.119,241.839 132.182 C 241.004 131.347,240.851 91.309,241.680 90.480 C 242.625 89.535,281.875 89.818,282.386 90.774 M282.320 152.480 C 282.913 153.073,282.976 258.441,282.387 265.400 C 282.183 267.820,281.843 272.140,281.633 275.000 C 281.423 277.860,281.068 281.010,280.845 282.000 C 280.622 282.990,280.269 284.880,280.060 286.200 C 279.716 288.370,279.314 290.133,278.055 295.000 C 276.898 299.469,270.496 312.789,269.500 312.797 C 269.335 312.799,269.200 312.997,269.200 313.237 C 269.200 313.660,268.793 314.253,266.488 317.185 C 262.200 322.643,254.367 328.946,246.521 333.255 C 240.387 336.623,239.648 336.866,238.095 336.024 C 237.713 335.817,234.880 334.454,231.800 332.996 C 228.720 331.538,224.580 329.566,222.600 328.615 C 220.620 327.664,217.650 326.252,216.000 325.477 C 204.564 320.107,201.627 318.461,202.436 317.876 C 203.440 317.151,205.691 315.894,209.000 314.211 C 224.072 306.545,234.432 294.696,237.164 282.000 C 237.330 281.230,237.664 279.970,237.907 279.200 C 240.546 270.836,241.113 256.489,241.163 196.733 C 241.192 161.722,241.305 152.424,241.700 152.265 C 242.871 151.792,281.839 151.999,282.320 152.480 M155.800 183.495 C 148.943 185.260,139.200 191.425,139.200 193.998 C 139.200 194.188,138.970 194.581,138.689 194.871 C 138.033 195.550,135.200 201.388,135.200 202.062 C 135.200 202.343,134.948 203.299,134.639 204.187 C 133.761 206.711,133.042 212.248,133.069 216.268 C 133.202 235.672,142.593 247.040,159.600 248.385 C 163.973 248.731,174.967 248.447,176.300 247.953 L 177.200 247.620 177.200 216.018 L 177.200 184.415 176.100 184.185 C 175.495 184.059,173.998 183.696,172.774 183.378 C 169.703 182.581,159.066 182.654,155.800 183.495 " stroke="none" fill="#0b2c23" fill-rule="evenodd"></path><path id="path2" d="M188.500 90.300 C 193.725 90.363,202.275 90.363,207.500 90.300 C 212.725 90.236,208.450 90.185,198.000 90.185 C 187.550 90.185,183.275 90.236,188.500 90.300 M248.000 90.686 C 261.443 90.960,281.882 90.972,281.463 90.706 C 281.208 90.544,272.360 90.449,261.800 90.494 C 251.240 90.539,245.030 90.625,248.000 90.686 M177.600 121.280 C 177.490 137.714,177.536 151.024,177.703 150.857 C 177.869 150.691,177.959 137.245,177.903 120.977 L 177.800 91.400 177.600 121.280 M241.696 111.251 C 241.607 129.748,241.648 131.139,242.300 131.651 C 242.919 132.137,242.943 132.127,242.504 131.564 C 242.128 131.081,241.982 126.148,241.900 111.164 L 241.792 91.400 241.696 111.251 M282.096 111.220 C 282.036 123.651,281.851 131.219,281.601 131.521 C 281.380 131.789,281.471 131.772,281.805 131.483 C 282.329 131.031,282.394 128.395,282.300 111.182 L 282.192 91.400 282.096 111.220 M152.900 149.876 C 153.285 149.976,153.915 149.976,154.300 149.876 C 154.685 149.775,154.370 149.693,153.600 149.693 C 152.830 149.693,152.515 149.775,152.900 149.876 M166.705 149.883 C 167.202 149.979,167.922 149.975,168.305 149.875 C 168.687 149.775,168.280 149.696,167.400 149.701 C 166.520 149.705,166.207 149.787,166.705 149.883 M241.793 195.000 C 241.793 218.100,241.841 227.491,241.900 215.869 C 241.959 204.248,241.959 185.348,241.900 173.869 C 241.841 162.391,241.793 171.900,241.793 195.000 M282.194 205.200 C 282.194 233.910,282.242 245.655,282.300 231.300 C 282.358 216.945,282.358 193.455,282.300 179.100 C 282.242 164.745,282.194 176.490,282.194 205.200 M162.900 182.294 C 163.945 182.376,165.655 182.376,166.700 182.294 C 167.745 182.212,166.890 182.144,164.800 182.144 C 162.710 182.144,161.855 182.212,162.900 182.294 M177.790 216.000 C 177.790 233.270,177.840 240.335,177.900 231.700 C 177.960 223.065,177.960 208.935,177.900 200.300 C 177.840 191.665,177.790 198.730,177.790 216.000 M91.301 211.400 C 91.305 212.280,91.387 212.593,91.483 212.095 C 91.579 211.598,91.575 210.878,91.475 210.495 C 91.375 210.113,91.296 210.520,91.301 211.400 M132.553 216.200 C 132.553 218.840,132.618 219.868,132.697 218.484 C 132.775 217.101,132.774 214.941,132.695 213.684 C 132.616 212.428,132.552 213.560,132.553 216.200 M91.314 222.200 C 91.317 223.300,91.395 223.703,91.487 223.095 C 91.579 222.486,91.577 221.586,91.482 221.095 C 91.387 220.603,91.311 221.100,91.314 222.200 M241.334 250.800 C 241.334 252.450,241.405 253.125,241.491 252.300 C 241.578 251.475,241.578 250.125,241.491 249.300 C 241.405 248.475,241.334 249.150,241.334 250.800 M170.100 249.076 C 170.485 249.176,171.115 249.176,171.500 249.076 C 171.885 248.975,171.570 248.893,170.800 248.893 C 170.030 248.893,169.715 248.975,170.100 249.076 M163.300 249.487 C 163.905 249.578,164.895 249.578,165.500 249.487 C 166.105 249.395,165.610 249.320,164.400 249.320 C 163.190 249.320,162.695 249.395,163.300 249.487 M240.893 261.600 C 240.893 262.370,240.975 262.685,241.076 262.300 C 241.176 261.915,241.176 261.285,241.076 260.900 C 240.975 260.515,240.893 260.830,240.893 261.600 M281.709 262.800 C 281.709 263.790,281.787 264.195,281.882 263.700 C 281.978 263.205,281.978 262.395,281.882 261.900 C 281.787 261.405,281.709 261.810,281.709 262.800 M281.301 270.600 C 281.305 271.480,281.387 271.793,281.483 271.295 C 281.579 270.798,281.575 270.078,281.475 269.695 C 281.375 269.313,281.296 269.720,281.301 270.600 M152.900 281.476 C 153.285 281.576,153.915 281.576,154.300 281.476 C 154.685 281.375,154.370 281.293,153.600 281.293 C 152.830 281.293,152.515 281.375,152.900 281.476 M180.700 281.482 C 181.195 281.578,182.005 281.578,182.500 281.482 C 182.995 281.387,182.590 281.309,181.600 281.309 C 180.610 281.309,180.205 281.387,180.700 281.482 M160.100 281.887 C 160.705 281.978,161.695 281.978,162.300 281.887 C 162.905 281.795,162.410 281.720,161.200 281.720 C 159.990 281.720,159.495 281.795,160.100 281.887 M171.500 281.889 C 172.215 281.978,173.385 281.978,174.100 281.889 C 174.815 281.801,174.230 281.728,172.800 281.728 C 171.370 281.728,170.785 281.801,171.500 281.889 " stroke="none" fill="#758c83" fill-rule="evenodd"></path><path id="path3" d="M178.480 90.880 C 178.115 91.245,178.000 98.501,178.000 121.093 C 178.000 147.408,177.930 150.852,177.388 151.060 C 177.052 151.189,175.117 150.959,173.088 150.549 C 165.024 148.919,148.468 149.703,139.073 152.161 C 109.242 159.967,91.525 183.937,91.446 216.600 C 91.316 270.384,130.503 291.046,208.200 278.160 C 215.776 276.904,216.626 276.721,217.500 276.160 L 218.400 275.582 218.400 183.653 C 218.400 95.102,218.373 91.700,217.669 91.062 C 216.724 90.207,179.327 90.033,178.480 90.880 M242.267 91.067 C 241.750 91.584,241.957 130.997,242.480 131.520 C 243.171 132.211,280.829 132.211,281.520 131.520 C 282.346 130.694,282.198 91.361,281.367 91.043 C 280.501 90.710,242.600 90.733,242.267 91.067 M217.400 183.600 L 217.400 275.800 215.400 276.322 C 214.300 276.610,212.140 277.013,210.600 277.218 C 209.060 277.423,206.990 277.766,206.000 277.981 C 197.825 279.756,180.628 281.166,167.200 281.163 C 151.161 281.160,141.701 279.880,130.800 276.239 C 105.220 267.695,92.324 248.096,91.952 217.200 C 91.627 190.172,104.858 167.287,126.600 157.271 C 127.700 156.764,128.942 156.163,129.360 155.934 C 137.950 151.235,161.593 148.701,173.528 151.201 C 176.657 151.856,178.108 151.620,178.444 150.400 C 178.596 149.850,178.738 136.303,178.760 120.296 L 178.800 91.192 198.100 91.296 L 217.400 91.400 217.400 183.600 M281.104 91.532 C 281.500 91.784,281.586 96.032,281.504 111.426 L 281.400 131.000 262.000 131.000 L 242.600 131.000 242.496 111.600 C 242.439 100.930,242.478 91.975,242.583 91.700 C 242.804 91.124,280.204 90.961,281.104 91.532 M242.546 152.706 C 242.214 152.921,242.029 166.283,241.856 202.600 C 241.726 229.880,241.457 254.990,241.257 258.400 C 239.387 290.348,231.542 303.466,206.689 316.195 C 202.005 318.595,200.920 317.702,218.600 326.002 C 220.360 326.828,223.870 328.493,226.400 329.701 C 228.930 330.909,232.965 332.832,235.367 333.975 L 239.734 336.051 242.367 334.739 C 268.952 321.481,279.706 302.619,281.595 265.934 C 282.327 251.714,282.129 152.935,281.367 152.643 C 280.457 152.294,243.089 152.354,242.546 152.706 M281.227 153.651 C 281.813 154.745,281.439 264.781,280.828 271.400 C 279.840 282.090,278.119 291.801,276.554 295.514 C 276.249 296.236,276.000 297.170,276.000 297.590 C 276.000 298.010,275.840 298.452,275.644 298.573 C 275.449 298.694,275.170 299.263,275.026 299.839 C 272.438 310.150,261.106 323.247,248.200 330.844 C 239.482 335.975,240.408 335.809,235.000 333.220 C 233.240 332.378,230.180 330.927,228.200 329.995 C 226.220 329.064,222.440 327.262,219.800 325.992 C 217.160 324.721,213.560 323.023,211.800 322.217 C 202.865 318.126,203.109 318.603,208.523 315.818 C 221.604 309.090,229.888 301.478,234.471 291.975 C 241.747 276.884,242.412 269.173,242.405 199.933 C 242.402 174.706,242.509 153.781,242.643 153.433 C 243.085 152.281,280.608 152.493,281.227 153.651 M158.859 181.857 C 146.500 183.535,138.766 189.562,134.294 201.000 C 131.233 208.830,131.343 223.912,134.519 232.000 C 139.431 244.505,150.469 250.571,167.000 249.848 C 174.021 249.542,177.445 249.115,178.094 248.466 C 178.637 247.923,179.102 189.221,178.592 185.674 C 178.261 183.380,176.634 182.674,169.720 181.830 C 163.851 181.112,164.352 181.111,158.859 181.857 M170.367 182.393 C 174.893 182.914,177.540 183.816,177.813 184.932 C 178.323 187.018,177.808 248.024,177.278 248.352 C 176.991 248.529,173.751 248.880,170.078 249.130 C 144.912 250.847,132.617 240.040,132.617 216.200 C 132.617 192.254,146.670 179.669,170.367 182.393 " stroke="none" fill="#82948c" fill-rule="evenodd"></path><path id="path4" d="M178.400 89.892 C 177.246 90.331,177.212 91.210,177.206 120.947 L 177.200 150.893 176.300 150.620 C 173.753 149.845,172.420 149.624,170.600 149.674 C 169.082 149.715,168.937 149.764,170.000 149.876 C 170.770 149.958,172.625 150.293,174.122 150.622 C 175.620 150.951,177.015 151.115,177.222 150.986 C 177.454 150.843,177.600 139.300,177.600 121.176 C 177.600 92.133,177.614 91.586,178.400 90.800 C 179.501 89.699,215.956 89.534,217.511 90.623 L 218.400 91.245 218.400 183.609 L 218.400 275.972 217.560 276.422 C 216.667 276.899,210.186 278.150,205.200 278.807 C 203.550 279.025,201.210 279.382,200.000 279.600 C 198.790 279.819,197.170 280.074,196.400 280.167 C 195.630 280.260,196.440 280.276,198.200 280.203 C 199.960 280.130,202.210 279.878,203.200 279.644 C 204.190 279.409,206.350 279.027,208.000 278.795 C 215.580 277.729,217.059 277.446,217.900 276.896 L 218.800 276.308 218.800 183.344 L 218.800 90.380 217.774 89.990 C 216.686 89.577,179.472 89.483,178.400 89.892 M241.680 90.480 C 240.851 91.309,241.004 131.347,241.839 132.182 C 242.776 133.119,281.813 132.943,282.409 132.000 C 282.947 131.149,282.925 91.781,282.386 90.774 C 281.875 89.818,242.625 89.535,241.680 90.480 M281.771 91.029 C 282.597 91.854,282.740 130.700,281.920 131.520 C 281.228 132.212,242.772 132.212,242.080 131.520 C 241.233 130.673,241.407 92.077,242.262 91.131 C 243.209 90.086,280.731 89.988,281.771 91.029 M154.000 149.200 C 153.224 149.363,156.165 149.496,160.600 149.497 C 165.830 149.499,167.977 149.389,166.800 149.180 C 164.581 148.785,155.907 148.799,154.000 149.200 M145.680 149.995 C 143.752 150.451,143.522 150.964,145.400 150.620 C 146.280 150.458,148.260 150.189,149.800 150.022 L 152.600 149.717 149.800 149.700 C 148.260 149.690,146.406 149.823,145.680 149.995 M139.432 151.394 C 138.569 151.701,137.175 152.069,136.334 152.211 C 135.492 152.353,134.715 152.614,134.607 152.789 C 134.498 152.965,133.755 153.232,132.955 153.382 C 132.156 153.532,131.209 153.811,130.851 154.001 C 130.493 154.192,128.220 155.294,125.800 156.452 C 121.608 158.456,116.781 161.435,114.215 163.600 C 112.001 165.468,108.610 168.598,108.147 169.200 C 107.894 169.530,107.237 170.283,106.688 170.873 C 103.626 174.161,99.738 180.019,97.662 184.476 C 94.753 190.720,93.624 194.153,92.359 200.600 C 92.143 201.700,91.749 203.590,91.483 204.800 C 90.834 207.758,90.829 226.609,91.477 229.600 C 91.739 230.810,92.131 232.790,92.348 234.000 C 93.136 238.400,94.230 242.342,95.398 245.000 C 95.689 245.660,96.247 247.010,96.638 248.000 C 97.030 248.990,97.586 250.084,97.875 250.431 C 98.164 250.779,98.400 251.250,98.400 251.478 C 98.400 252.653,104.084 260.187,107.549 263.605 C 112.288 268.279,116.054 270.913,122.400 273.991 C 124.270 274.897,126.113 275.811,126.495 276.020 C 126.877 276.229,127.389 276.400,127.634 276.400 C 127.879 276.400,128.646 276.653,129.340 276.963 C 130.982 277.696,135.955 279.198,136.767 279.206 C 137.115 279.209,138.120 279.471,139.000 279.788 C 139.880 280.105,141.320 280.348,142.200 280.328 C 143.196 280.305,143.422 280.229,142.800 280.126 C 139.850 279.640,132.015 277.491,129.200 276.396 C 127.990 275.925,126.550 275.390,126.000 275.206 C 111.869 270.483,98.899 256.087,94.282 240.000 C 92.932 235.296,92.754 234.414,91.990 228.600 C 86.808 189.191,106.843 158.736,143.000 151.063 C 143.440 150.969,143.170 150.880,142.400 150.864 C 141.630 150.848,140.294 151.087,139.432 151.394 M241.745 152.306 C 241.411 152.522,241.252 166.855,241.145 206.600 C 241.065 236.300,241.113 257.360,241.250 253.400 C 241.388 249.440,241.523 225.311,241.550 199.780 C 241.588 164.265,241.713 153.247,242.080 152.880 C 242.849 152.111,281.333 152.197,281.974 152.969 C 282.426 153.513,282.311 256.818,281.846 267.800 C 281.699 271.284,281.730 271.542,282.084 269.800 C 282.706 266.746,282.983 153.302,282.370 152.564 C 281.858 151.947,242.685 151.699,241.745 152.306 M161.519 182.698 C 163.344 182.772,166.224 182.772,167.919 182.697 C 169.614 182.622,168.120 182.561,164.600 182.562 C 161.080 182.562,159.694 182.624,161.519 182.698 M152.600 183.937 C 140.605 188.053,132.565 199.644,132.859 212.400 L 132.909 214.600 133.213 212.200 C 133.851 207.163,134.343 204.453,134.764 203.667 C 135.004 203.219,135.200 202.560,135.200 202.202 C 135.200 201.424,137.960 195.625,138.689 194.871 C 138.970 194.581,139.200 194.188,139.200 193.998 C 139.200 191.853,150.763 184.039,154.000 183.996 C 155.353 183.978,158.286 182.854,157.000 182.846 C 156.340 182.842,154.360 183.333,152.600 183.937 M173.000 183.409 C 174.100 183.709,175.495 184.058,176.100 184.185 L 177.200 184.415 177.200 216.021 L 177.200 247.626 176.300 248.009 C 175.413 248.386,175.415 248.391,176.400 248.296 L 177.400 248.200 177.400 216.200 L 177.400 184.200 175.400 183.532 C 174.300 183.165,172.860 182.864,172.200 182.864 C 171.258 182.864,171.430 182.982,173.000 183.409 M132.864 219.657 C 132.655 228.327,137.227 238.504,143.436 243.192 C 146.551 245.544,153.192 248.413,155.475 248.394 C 156.691 248.384,155.259 247.679,153.408 247.377 C 150.383 246.884,144.675 243.814,142.134 241.314 C 136.297 235.568,134.128 230.094,133.056 218.400 C 132.986 217.630,132.899 218.196,132.864 219.657 M160.266 248.946 C 162.713 249.161,166.534 249.154,169.866 248.928 C 175.383 248.554,175.371 248.553,165.800 248.570 C 157.315 248.586,156.672 248.630,160.266 248.946 M240.269 262.300 C 240.141 263.125,239.950 265.690,239.845 268.000 C 239.633 272.647,240.069 270.478,240.629 264.100 C 240.924 260.740,240.692 259.578,240.269 262.300 M281.063 275.300 C 280.925 277.115,280.717 279.500,280.599 280.600 C 280.419 282.278,280.455 282.439,280.821 281.600 C 281.266 280.581,281.887 272.000,281.516 272.000 C 281.404 272.000,281.200 273.485,281.063 275.300 M238.883 274.320 C 238.617 275.486,238.415 276.926,238.433 277.520 C 238.453 278.173,238.696 277.650,239.047 276.200 C 239.367 274.880,239.569 273.440,239.497 273.000 C 239.423 272.554,239.152 273.138,238.883 274.320 M237.821 279.483 C 237.668 279.877,237.390 280.920,237.202 281.800 C 234.459 294.674,224.175 306.493,209.000 314.211 C 205.691 315.894,203.440 317.151,202.436 317.876 C 201.627 318.461,204.564 320.107,216.000 325.477 C 217.650 326.252,220.620 327.664,222.600 328.615 C 224.580 329.566,228.720 331.538,231.800 332.996 C 234.880 334.454,237.713 335.817,238.095 336.024 C 239.250 336.650,240.580 336.454,242.640 335.355 C 250.320 331.259,253.203 329.413,258.365 325.290 C 260.216 323.812,265.149 318.890,266.488 317.185 C 268.793 314.253,269.200 313.660,269.200 313.237 C 269.200 312.997,269.335 312.799,269.500 312.797 C 270.128 312.792,274.142 305.188,276.256 300.000 C 277.596 296.710,277.842 295.923,279.015 291.200 C 279.315 289.990,279.745 288.280,279.971 287.400 C 280.196 286.520,280.361 285.080,280.336 284.200 C 280.308 283.190,280.231 282.969,280.127 283.600 C 276.202 307.560,265.153 322.862,243.484 334.348 C 239.574 336.421,240.249 336.495,233.510 333.254 C 230.370 331.743,226.630 329.961,225.200 329.292 C 223.770 328.624,220.620 327.137,218.200 325.989 C 207.716 321.014,205.521 320.000,205.239 320.000 C 205.074 320.000,204.542 319.577,204.056 319.060 C 202.989 317.924,202.931 317.980,207.800 315.408 C 225.432 306.093,233.508 297.010,237.820 281.642 C 238.459 279.366,238.459 277.834,237.821 279.483 M144.800 280.830 C 145.350 281.075,147.330 281.337,149.200 281.411 C 152.070 281.524,152.257 281.497,150.400 281.238 C 144.574 280.425,143.761 280.366,144.800 280.830 M191.343 280.651 C 191.092 280.754,189.112 280.999,186.943 281.196 L 183.000 281.554 188.000 281.404 C 192.722 281.262,197.403 280.441,193.400 280.457 C 192.520 280.460,191.594 280.547,191.343 280.651 M154.866 282.148 C 157.056 282.587,177.454 282.570,180.400 282.127 C 181.785 281.918,177.141 281.796,167.866 281.798 C 158.451 281.799,153.758 281.926,154.866 282.148 " stroke="none" fill="#576f65" fill-rule="evenodd"></path></g></svg>