<svg id="svg" version="1.1" xmlns="http://www.w3.org/2000/svg" xmlns:xlink="http://www.w3.org/1999/xlink" width="400" height="400" viewBox="0, 0, 400,400"><g id="svgg"><path id="path0" d="M94.422 92.867 C 93.917 94.205,93.514 95.228,92.833 96.900 C 92.632 97.395,92.350 98.250,92.206 98.800 C 92.063 99.350,91.765 100.430,91.543 101.200 C 89.862 107.036,89.418 111.117,89.410 120.800 C 89.401 130.719,89.738 133.694,91.606 140.200 C 92.642 143.805,92.653 143.753,90.099 146.880 C 86.966 150.713,83.718 155.741,81.493 160.200 C 79.904 163.385,79.344 164.597,77.977 167.800 C 77.524 168.863,75.364 175.780,74.854 177.800 C 71.361 191.648,71.189 207.712,74.379 222.100 C 75.404 226.725,75.578 227.490,75.952 229.000 C 76.169 229.880,76.539 231.275,76.773 232.100 C 77.008 232.925,77.359 234.185,77.553 234.900 C 78.588 238.718,81.529 245.719,83.896 250.000 C 85.261 252.469,89.862 259.574,90.372 260.000 C 90.503 260.110,91.419 261.186,92.405 262.391 C 94.718 265.215,96.426 266.980,99.424 269.645 C 103.120 272.930,104.079 273.730,105.600 274.794 C 106.370 275.333,107.238 276.005,107.529 276.287 C 107.819 276.569,108.211 276.800,108.400 276.800 C 108.589 276.800,108.981 277.029,109.271 277.308 C 109.769 277.786,113.156 279.832,117.200 282.096 C 119.494 283.381,126.791 286.549,129.400 287.393 C 130.500 287.749,131.760 288.190,132.200 288.373 C 133.090 288.742,137.624 290.085,140.400 290.801 C 143.928 291.712,145.021 291.962,146.600 292.220 C 147.480 292.364,149.190 292.644,150.400 292.843 C 151.610 293.041,154.490 293.381,156.800 293.599 C 162.670 294.152,162.745 294.199,160.875 296.200 C 156.553 300.825,153.265 308.087,151.120 317.743 C 150.523 320.435,149.128 321.433,142.800 323.699 C 125.595 329.861,102.977 322.635,95.764 308.672 C 86.212 290.183,67.618 280.104,53.700 285.872 C 50.057 287.382,53.974 293.001,61.197 296.626 C 65.167 298.618,68.806 302.178,74.800 309.933 C 76.639 312.312,80.348 319.279,81.414 322.356 C 83.656 328.829,86.440 333.223,91.568 338.380 C 98.860 345.713,106.052 349.813,116.337 352.498 C 122.318 354.060,136.919 354.341,143.400 353.020 C 145.380 352.616,147.775 352.202,148.723 352.101 L 150.446 351.916 150.323 369.658 C 150.189 389.047,150.162 389.272,147.654 391.879 C 146.573 393.003,146.932 394.000,148.419 394.000 C 149.043 394.000,149.664 394.180,149.800 394.400 C 149.936 394.620,150.656 394.800,151.400 394.800 C 152.144 394.800,152.864 394.980,153.000 395.200 C 153.136 395.420,154.047 395.600,155.024 395.600 C 156.001 395.600,156.800 395.780,156.800 396.000 C 156.800 396.220,157.610 396.400,158.600 396.400 C 159.590 396.400,160.400 396.580,160.400 396.800 C 160.400 397.020,161.300 397.200,162.400 397.200 C 163.500 397.200,164.400 397.380,164.400 397.600 C 164.400 397.822,165.459 398.000,166.776 398.000 C 168.083 398.000,169.264 398.180,169.400 398.400 C 169.536 398.620,170.972 398.800,172.590 398.800 C 174.589 398.800,175.587 398.960,175.700 399.300 C 175.831 399.693,181.049 399.800,200.000 399.800 C 218.951 399.800,224.169 399.693,224.300 399.300 C 224.413 398.960,225.411 398.800,227.410 398.800 C 229.028 398.800,230.464 398.620,230.600 398.400 C 230.736 398.180,231.917 398.000,233.224 398.000 C 234.541 398.000,235.600 397.822,235.600 397.600 C 235.600 397.380,236.500 397.200,237.600 397.200 C 238.700 397.200,239.600 397.020,239.600 396.800 C 239.600 396.580,240.410 396.400,241.400 396.400 C 242.390 396.400,243.200 396.220,243.200 396.000 C 243.200 395.780,244.100 395.600,245.200 395.600 C 246.300 395.600,247.200 395.420,247.200 395.200 C 247.200 394.980,247.819 394.800,248.576 394.800 C 249.333 394.800,250.064 394.620,250.200 394.400 C 250.336 394.180,251.067 394.000,251.824 394.000 C 253.452 394.000,253.644 393.229,252.350 391.883 C 250.086 389.529,249.822 388.135,249.685 377.800 C 249.615 372.520,249.410 356.770,249.230 342.800 C 248.882 315.760,248.950 316.707,246.878 310.200 C 246.302 308.391,244.315 303.455,243.980 303.000 C 243.818 302.780,243.318 301.941,242.870 301.136 C 242.013 299.599,241.431 298.824,239.300 296.389 C 237.843 294.723,237.665 294.008,238.700 293.983 C 242.967 293.876,252.473 292.482,257.500 291.225 C 258.435 290.991,259.875 290.632,260.700 290.427 C 264.207 289.554,266.371 288.871,272.200 286.802 C 275.392 285.668,285.736 280.620,287.858 279.160 C 288.785 278.522,289.737 278.000,289.972 278.000 C 290.207 278.000,290.400 277.832,290.400 277.627 C 290.400 277.422,290.759 277.140,291.198 277.001 C 291.636 276.862,292.221 276.528,292.498 276.261 C 292.774 275.993,293.630 275.333,294.400 274.794 C 298.021 272.261,303.685 266.952,307.200 262.799 C 308.410 261.370,309.511 260.110,309.647 260.000 C 312.376 257.788,320.537 241.775,322.440 234.900 C 322.638 234.185,322.992 232.925,323.227 232.100 C 323.461 231.275,323.831 229.880,324.048 229.000 C 324.422 227.490,324.596 226.725,325.621 222.100 C 328.497 209.126,328.493 191.640,325.610 179.700 C 325.385 178.765,325.043 177.325,324.852 176.500 C 324.492 174.947,322.625 169.205,322.024 167.800 C 320.607 164.490,320.096 163.385,318.507 160.200 C 316.282 155.741,313.034 150.713,309.901 146.880 C 307.347 143.753,307.358 143.805,308.394 140.200 C 309.031 137.980,309.525 135.843,310.104 132.800 C 310.725 129.536,310.722 112.438,310.100 108.800 C 309.368 104.525,308.700 101.647,308.010 99.800 C 307.845 99.360,307.494 98.280,307.229 97.400 C 306.964 96.520,306.597 95.440,306.414 95.000 C 306.231 94.560,305.855 93.600,305.578 92.867 C 305.126 91.667,304.952 91.556,303.838 91.751 C 303.157 91.870,301.430 92.071,300.000 92.197 C 289.272 93.140,270.665 99.820,261.328 106.079 C 260.408 106.696,259.463 107.200,259.228 107.200 C 258.993 107.200,258.800 107.380,258.800 107.600 C 258.800 107.820,258.618 108.000,258.396 108.000 C 258.174 108.000,256.492 108.998,254.658 110.219 L 251.324 112.437 248.762 111.981 C 247.353 111.731,245.300 111.369,244.200 111.179 C 243.100 110.988,241.030 110.628,239.600 110.379 C 223.288 107.537,208.323 105.811,200.000 105.811 C 194.483 105.811,184.618 106.692,175.700 107.981 C 169.773 108.838,167.344 109.211,165.200 109.597 C 162.953 110.001,159.373 110.607,155.800 111.190 C 154.700 111.369,152.647 111.723,151.238 111.977 L 148.676 112.437 145.342 110.219 C 143.508 108.998,141.826 108.000,141.604 108.000 C 141.382 108.000,141.200 107.820,141.200 107.600 C 141.200 107.380,141.007 107.200,140.772 107.200 C 140.537 107.200,139.592 106.696,138.672 106.079 C 129.264 99.772,110.810 93.148,100.000 92.197 C 98.570 92.071,96.843 91.870,96.162 91.751 C 95.048 91.556,94.874 91.667,94.422 92.867 " stroke="none" fill="#fbfbfb" fill-rule="evenodd"></path><path id="path1" d="M178.300 0.275 C 176.375 0.361,174.800 0.604,174.800 0.816 C 174.800 1.027,173.461 1.200,171.824 1.200 C 170.187 1.200,168.736 1.380,168.600 1.600 C 168.464 1.820,167.463 2.000,166.376 2.000 C 165.289 2.000,164.400 2.180,164.400 2.400 C 164.400 2.620,163.410 2.800,162.200 2.800 C 160.990 2.800,160.000 2.980,160.000 3.200 C 160.000 3.420,159.201 3.600,158.224 3.600 C 157.247 3.600,156.336 3.780,156.200 4.000 C 156.064 4.220,155.243 4.400,154.376 4.400 C 153.509 4.400,152.800 4.580,152.800 4.800 C 152.800 5.020,152.080 5.200,151.200 5.200 C 150.320 5.200,149.600 5.380,149.600 5.600 C 149.600 5.820,148.880 6.000,148.000 6.000 C 147.120 6.000,146.400 6.180,146.400 6.400 C 146.400 6.620,145.860 6.800,145.200 6.800 C 144.540 6.800,144.000 6.980,144.000 7.200 C 144.000 7.420,143.370 7.600,142.600 7.600 C 141.830 7.600,141.200 7.780,141.200 8.000 C 141.200 8.220,140.771 8.400,140.246 8.400 C 139.355 8.400,136.018 9.285,134.200 10.003 C 133.760 10.177,132.770 10.536,132.000 10.800 C 130.307 11.382,128.840 11.971,127.905 12.447 C 127.523 12.641,126.848 12.800,126.405 12.800 C 125.962 12.800,125.600 12.980,125.600 13.200 C 125.600 13.420,125.240 13.600,124.800 13.600 C 124.360 13.600,124.000 13.780,124.000 14.000 C 124.000 14.220,123.561 14.400,123.024 14.400 C 122.487 14.400,121.936 14.580,121.800 14.800 C 121.664 15.020,121.203 15.200,120.776 15.200 C 120.349 15.200,120.000 15.380,120.000 15.600 C 120.000 15.820,119.640 16.000,119.200 16.000 C 118.760 16.000,118.400 16.180,118.400 16.400 C 118.400 16.620,118.128 16.800,117.795 16.800 C 117.207 16.800,116.782 16.967,114.905 17.938 C 114.413 18.192,113.738 18.400,113.405 18.400 C 113.072 18.400,112.800 18.580,112.800 18.800 C 112.800 19.020,112.440 19.200,112.000 19.200 C 111.560 19.200,111.200 19.346,111.200 19.525 C 111.200 19.704,110.570 20.098,109.800 20.400 C 109.030 20.702,108.400 21.096,108.400 21.275 C 108.400 21.454,108.040 21.600,107.600 21.600 C 107.160 21.600,106.800 21.780,106.800 22.000 C 106.800 22.220,106.440 22.400,106.000 22.400 C 105.560 22.400,105.200 22.580,105.200 22.800 C 105.200 23.020,104.880 23.200,104.488 23.200 C 104.097 23.200,103.517 23.560,103.200 24.000 C 102.883 24.440,102.387 24.800,102.098 24.800 C 101.396 24.800,97.435 26.809,97.267 27.251 C 97.193 27.443,96.956 27.600,96.739 27.600 C 96.522 27.600,95.559 28.140,94.600 28.800 C 93.641 29.460,92.703 30.000,92.516 30.000 C 92.329 30.000,91.917 30.360,91.600 30.800 C 91.283 31.240,90.743 31.600,90.400 31.600 C 90.057 31.600,89.517 31.960,89.200 32.400 C 88.883 32.840,88.343 33.200,88.000 33.200 C 87.657 33.200,87.117 33.560,86.800 34.000 C 86.483 34.440,85.991 34.800,85.708 34.800 C 85.425 34.800,84.628 35.340,83.937 36.000 C 83.246 36.660,82.478 37.200,82.229 37.200 C 81.980 37.200,81.517 37.560,81.200 38.000 C 80.883 38.440,80.375 38.800,80.072 38.800 C 79.769 38.800,79.017 39.340,78.400 40.000 C 77.783 40.660,77.164 41.200,77.023 41.200 C 76.752 41.200,76.352 41.514,74.349 43.300 C 73.671 43.905,72.959 44.400,72.768 44.400 C 72.577 44.400,71.651 45.167,70.711 46.105 C 69.770 47.043,68.370 48.255,67.600 48.799 C 66.830 49.342,64.439 51.590,62.287 53.793 C 57.582 58.611,58.611 57.582,53.793 62.287 C 51.590 64.439,49.342 66.830,48.799 67.600 C 48.255 68.370,47.043 69.770,46.105 70.711 C 45.167 71.651,44.400 72.577,44.400 72.768 C 44.400 72.959,43.905 73.671,43.300 74.349 C 41.514 76.352,41.200 76.752,41.200 77.023 C 41.200 77.164,40.660 77.783,40.000 78.400 C 39.340 79.017,38.800 79.769,38.800 80.072 C 38.800 80.375,38.440 80.883,38.000 81.200 C 37.560 81.517,37.200 82.007,37.200 82.288 C 37.200 82.570,37.020 82.800,36.800 82.800 C 36.580 82.800,36.400 83.030,36.400 83.312 C 36.400 83.593,36.040 84.083,35.600 84.400 C 35.160 84.717,34.800 85.257,34.800 85.600 C 34.800 85.943,34.440 86.483,34.000 86.800 C 33.560 87.117,33.200 87.657,33.200 88.000 C 33.200 88.343,32.840 88.883,32.400 89.200 C 31.960 89.517,31.600 90.057,31.600 90.400 C 31.600 90.743,31.240 91.283,30.800 91.600 C 30.360 91.917,30.000 92.329,30.000 92.516 C 30.000 92.703,29.460 93.641,28.800 94.600 C 28.140 95.559,27.600 96.522,27.600 96.739 C 27.600 96.956,27.443 97.193,27.251 97.267 C 26.843 97.422,24.800 101.371,24.800 102.003 C 24.800 102.240,24.440 102.820,24.000 103.292 C 23.560 103.764,23.200 104.387,23.200 104.675 C 23.200 104.964,23.020 105.200,22.800 105.200 C 22.580 105.200,22.400 105.560,22.400 106.000 C 22.400 106.440,22.220 106.800,22.000 106.800 C 21.780 106.800,21.600 107.160,21.600 107.600 C 21.600 108.040,21.454 108.400,21.275 108.400 C 21.096 108.400,20.702 109.030,20.400 109.800 C 20.098 110.570,19.704 111.200,19.525 111.200 C 19.346 111.200,19.200 111.560,19.200 112.000 C 19.200 112.440,19.020 112.800,18.800 112.800 C 18.580 112.800,18.400 113.065,18.400 113.388 C 18.400 113.711,18.040 114.617,17.600 115.400 C 17.160 116.183,16.800 117.179,16.800 117.612 C 16.800 118.045,16.620 118.400,16.400 118.400 C 16.180 118.400,16.000 118.760,16.000 119.200 C 16.000 119.640,15.820 120.000,15.600 120.000 C 15.380 120.000,15.200 120.360,15.200 120.800 C 15.200 121.240,15.020 121.600,14.800 121.600 C 14.580 121.600,14.400 122.140,14.400 122.800 C 14.400 123.460,14.220 124.000,14.000 124.000 C 13.780 124.000,13.600 124.360,13.600 124.800 C 13.600 125.240,13.420 125.600,13.200 125.600 C 12.980 125.600,12.800 125.962,12.800 126.405 C 12.800 126.848,12.641 127.523,12.447 127.905 C 12.252 128.287,11.871 129.140,11.600 129.800 C 11.329 130.460,10.948 131.313,10.753 131.695 C 10.559 132.077,10.400 132.664,10.400 133.000 C 10.400 133.336,10.237 133.923,10.037 134.305 C 9.440 135.447,8.400 139.222,8.400 140.246 C 8.400 140.771,8.220 141.200,8.000 141.200 C 7.780 141.200,7.600 141.830,7.600 142.600 C 7.600 143.370,7.420 144.000,7.200 144.000 C 6.980 144.000,6.800 144.540,6.800 145.200 C 6.800 145.860,6.620 146.400,6.400 146.400 C 6.180 146.400,6.000 147.120,6.000 148.000 C 6.000 148.880,5.820 149.600,5.600 149.600 C 5.380 149.600,5.200 150.320,5.200 151.200 C 5.200 152.080,5.020 152.800,4.800 152.800 C 4.580 152.800,4.400 153.509,4.400 154.376 C 4.400 155.243,4.220 156.064,4.000 156.200 C 3.780 156.336,3.600 157.247,3.600 158.224 C 3.600 159.201,3.420 160.000,3.200 160.000 C 2.980 160.000,2.800 160.900,2.800 162.000 C 2.800 163.100,2.620 164.000,2.400 164.000 C 2.178 164.000,2.000 165.059,2.000 166.376 C 2.000 167.683,1.820 168.864,1.600 169.000 C 1.380 169.136,1.200 170.371,1.200 171.744 C 1.200 173.207,0.993 174.447,0.700 174.740 C 0.311 175.129,0.200 180.743,0.200 200.087 C 0.200 219.608,0.307 224.969,0.700 225.100 C 1.036 225.212,1.200 226.176,1.200 228.033 C 1.200 229.611,1.372 230.800,1.600 230.800 C 1.822 230.800,2.000 231.867,2.000 233.200 C 2.000 234.533,2.178 235.600,2.400 235.600 C 2.620 235.600,2.800 236.590,2.800 237.800 C 2.800 239.010,2.980 240.000,3.200 240.000 C 3.420 240.000,3.600 240.709,3.600 241.576 C 3.600 242.443,3.780 243.264,4.000 243.400 C 4.220 243.536,4.400 244.447,4.400 245.424 C 4.400 246.401,4.580 247.200,4.800 247.200 C 5.020 247.200,5.200 247.920,5.200 248.800 C 5.200 249.680,5.380 250.400,5.600 250.400 C 5.820 250.400,6.000 251.019,6.000 251.776 C 6.000 252.533,6.180 253.264,6.400 253.400 C 6.620 253.536,6.800 254.177,6.800 254.824 C 6.800 255.471,6.980 256.000,7.200 256.000 C 7.420 256.000,7.600 256.630,7.600 257.400 C 7.600 258.170,7.780 258.800,8.000 258.800 C 8.220 258.800,8.400 259.229,8.400 259.754 C 8.400 260.706,9.409 264.462,9.970 265.600 C 10.132 265.930,10.515 267.055,10.820 268.100 C 11.125 269.145,11.515 270.000,11.687 270.000 C 11.859 270.000,12.000 270.439,12.000 270.976 C 12.000 271.513,12.180 272.064,12.400 272.200 C 12.620 272.336,12.800 272.887,12.800 273.424 C 12.800 273.961,12.980 274.400,13.200 274.400 C 13.420 274.400,13.600 274.760,13.600 275.200 C 13.600 275.640,13.747 276.000,13.928 276.000 C 14.108 276.000,14.500 276.900,14.800 278.000 C 15.100 279.100,15.492 280.000,15.672 280.000 C 15.853 280.000,16.000 280.360,16.000 280.800 C 16.000 281.240,16.180 281.600,16.400 281.600 C 16.620 281.600,16.800 281.960,16.800 282.400 C 16.800 282.840,16.980 283.200,17.200 283.200 C 17.420 283.200,17.600 283.650,17.600 284.200 C 17.600 284.750,17.780 285.200,18.000 285.200 C 18.220 285.200,18.400 285.549,18.400 285.976 C 18.400 286.403,18.580 286.864,18.800 287.000 C 19.020 287.136,19.200 287.597,19.200 288.024 C 19.200 288.451,19.346 288.800,19.525 288.800 C 19.704 288.800,20.098 289.430,20.400 290.200 C 20.702 290.970,21.096 291.600,21.275 291.600 C 21.454 291.600,21.600 291.960,21.600 292.400 C 21.600 292.840,21.780 293.200,22.000 293.200 C 22.220 293.200,22.400 293.560,22.400 294.000 C 22.400 294.440,22.580 294.800,22.800 294.800 C 23.020 294.800,23.200 295.036,23.200 295.325 C 23.200 295.613,23.560 296.236,24.000 296.708 C 24.440 297.180,24.800 297.775,24.800 298.029 C 24.800 298.611,26.895 302.553,27.300 302.733 C 27.465 302.807,27.600 303.044,27.600 303.261 C 27.600 303.478,28.140 304.441,28.800 305.400 C 29.460 306.359,30.000 307.297,30.000 307.484 C 30.000 307.671,30.360 308.083,30.800 308.400 C 31.240 308.717,31.600 309.257,31.600 309.600 C 31.600 309.943,31.960 310.483,32.400 310.800 C 32.840 311.117,33.200 311.657,33.200 312.000 C 33.200 312.343,33.560 312.883,34.000 313.200 C 34.440 313.517,34.800 314.057,34.800 314.400 C 34.800 314.743,35.160 315.283,35.600 315.600 C 36.040 315.917,36.400 316.380,36.400 316.629 C 36.400 316.878,36.940 317.646,37.600 318.337 C 38.260 319.028,38.800 319.748,38.800 319.937 C 38.800 320.126,39.340 320.846,40.000 321.537 C 40.660 322.228,41.200 322.892,41.200 323.013 C 41.200 323.264,41.505 323.650,43.199 325.542 C 43.859 326.281,44.400 327.041,44.400 327.232 C 44.400 327.423,45.167 328.349,46.105 329.289 C 47.043 330.230,48.255 331.630,48.799 332.400 C 49.342 333.170,51.590 335.561,53.793 337.713 C 55.997 339.865,57.980 341.811,58.200 342.037 C 63.035 347.008,67.744 351.600,68.008 351.600 C 68.194 351.600,69.271 352.500,70.400 353.600 C 71.529 354.700,72.602 355.600,72.784 355.600 C 72.966 355.600,73.671 356.095,74.349 356.700 C 76.312 358.449,76.752 358.800,76.987 358.800 C 77.108 358.800,77.772 359.340,78.463 360.000 C 79.154 360.660,79.922 361.200,80.171 361.200 C 80.420 361.200,80.883 361.560,81.200 362.000 C 81.517 362.440,81.980 362.800,82.229 362.800 C 82.478 362.800,83.246 363.340,83.937 364.000 C 84.628 364.660,85.425 365.200,85.708 365.200 C 85.991 365.200,86.483 365.560,86.800 366.000 C 87.117 366.440,87.657 366.800,88.000 366.800 C 88.343 366.800,88.883 367.160,89.200 367.600 C 89.517 368.040,90.057 368.400,90.400 368.400 C 90.743 368.400,91.283 368.760,91.600 369.200 C 91.917 369.640,92.329 370.000,92.516 370.000 C 92.703 370.000,93.608 370.501,94.528 371.112 C 95.448 371.724,96.740 372.489,97.400 372.812 C 98.060 373.135,98.690 373.509,98.800 373.644 C 99.175 374.102,101.558 375.200,102.180 375.200 C 102.521 375.200,102.800 375.380,102.800 375.600 C 102.800 375.820,103.078 376.000,103.417 376.000 C 103.756 376.000,104.420 376.360,104.892 376.800 C 105.364 377.240,105.987 377.600,106.275 377.600 C 106.564 377.600,106.800 377.780,106.800 378.000 C 106.800 378.220,107.160 378.400,107.600 378.400 C 108.040 378.400,108.400 378.580,108.400 378.800 C 108.400 379.020,108.760 379.200,109.200 379.200 C 109.640 379.200,110.000 379.380,110.000 379.600 C 110.000 379.820,110.345 380.000,110.767 380.000 C 111.188 380.000,111.593 380.135,111.667 380.300 C 111.888 380.799,115.222 382.400,116.038 382.400 C 116.457 382.400,116.800 382.580,116.800 382.800 C 116.800 383.020,117.160 383.200,117.600 383.200 C 118.040 383.200,118.400 383.380,118.400 383.600 C 118.400 383.820,118.760 384.000,119.200 384.000 C 119.640 384.000,120.000 384.147,120.000 384.328 C 120.000 384.508,120.900 384.900,122.000 385.200 C 123.100 385.500,124.000 385.892,124.000 386.072 C 124.000 386.253,124.272 386.400,124.605 386.400 C 124.938 386.400,125.568 386.580,126.005 386.800 C 126.442 387.020,127.158 387.380,127.595 387.600 C 128.032 387.820,128.752 388.000,129.195 388.000 C 129.638 388.000,130.000 388.180,130.000 388.400 C 130.000 388.620,130.362 388.800,130.805 388.800 C 131.248 388.800,131.923 388.976,132.305 389.191 C 133.733 389.994,139.267 391.600,140.608 391.600 C 141.374 391.600,142.000 391.780,142.000 392.000 C 142.000 392.220,142.450 392.400,143.000 392.400 C 143.550 392.400,144.000 392.580,144.000 392.800 C 144.000 394.088,146.269 393.078,147.521 391.232 C 149.727 387.978,149.763 387.630,149.782 369.400 L 149.800 352.600 148.800 352.664 C 148.250 352.699,146.720 352.927,145.400 353.170 C 125.452 356.839,108.476 353.369,95.800 343.031 C 88.673 337.219,83.327 330.020,81.221 323.400 C 80.220 320.255,77.701 314.899,76.799 314.000 C 76.689 313.890,76.345 313.308,76.035 312.707 C 75.726 312.105,75.181 311.295,74.825 310.907 C 74.469 310.518,73.738 309.570,73.201 308.800 C 69.840 303.988,64.235 298.710,60.657 296.989 C 54.182 293.874,49.631 287.296,52.784 285.609 C 56.681 283.523,68.107 283.711,73.400 285.948 C 82.825 289.932,90.659 297.608,96.148 308.239 C 99.724 315.165,110.683 322.703,120.400 324.921 C 123.981 325.738,137.565 325.318,138.580 324.359 C 138.789 324.162,139.453 324.000,140.056 324.000 C 140.659 324.000,141.264 323.820,141.400 323.600 C 141.536 323.380,141.971 323.200,142.366 323.200 C 142.762 323.200,144.694 322.411,146.660 321.447 L 150.234 319.695 150.771 316.947 C 152.357 308.836,156.639 299.558,160.460 295.954 L 161.569 294.908 159.485 294.623 C 158.338 294.467,156.050 294.173,154.400 293.970 C 152.750 293.767,150.320 293.413,149.000 293.185 C 147.680 292.956,145.880 292.667,145.000 292.543 C 144.120 292.419,143.229 292.156,143.020 291.959 C 142.811 291.762,142.057 291.600,141.344 291.600 C 140.631 291.600,139.936 291.420,139.800 291.200 C 139.664 290.980,139.021 290.800,138.371 290.800 C 137.721 290.800,136.877 290.637,136.495 290.439 C 136.113 290.240,134.360 289.627,132.600 289.078 C 126.426 287.149,118.439 283.632,113.659 280.738 C 112.262 279.892,111.002 279.200,110.859 279.200 C 110.717 279.199,110.077 278.749,109.438 278.200 C 108.799 277.650,108.136 277.200,107.966 277.200 C 107.796 277.200,107.419 276.969,107.129 276.687 C 106.838 276.405,105.970 275.733,105.200 275.194 C 104.430 274.655,103.271 273.761,102.624 273.207 C 100.170 271.105,96.570 267.836,95.826 267.034 C 94.658 265.775,91.939 262.726,90.698 261.284 C 88.505 258.734,84.084 251.712,82.210 247.800 C 81.156 245.600,79.957 243.108,79.547 242.262 C 79.136 241.416,78.800 240.469,78.800 240.157 C 78.800 239.845,78.641 239.277,78.447 238.895 C 77.861 237.742,77.282 236.258,77.006 235.200 C 76.863 234.650,76.566 233.570,76.346 232.800 C 75.683 230.476,75.258 228.694,73.982 222.900 C 72.267 215.111,71.821 210.614,71.810 201.000 C 71.804 195.826,72.018 190.634,72.329 188.400 C 72.620 186.310,72.945 183.880,73.052 183.000 C 73.158 182.120,73.403 181.040,73.595 180.600 C 73.788 180.160,74.056 179.170,74.192 178.400 C 74.327 177.630,74.539 176.413,74.663 175.696 C 74.787 174.979,75.049 174.294,75.244 174.173 C 75.440 174.052,75.600 173.524,75.600 173.000 C 75.600 172.476,75.780 171.936,76.000 171.800 C 76.220 171.664,76.400 171.201,76.400 170.771 C 76.400 170.341,76.559 169.677,76.753 169.295 C 76.948 168.913,77.289 168.150,77.513 167.600 C 79.671 162.282,82.372 157.014,85.101 152.800 C 86.312 150.930,87.415 149.310,87.553 149.200 C 87.692 149.090,88.311 148.321,88.930 147.491 C 89.548 146.661,90.492 145.544,91.027 145.009 C 92.001 144.035,92.311 142.640,91.646 142.229 C 91.451 142.108,91.190 141.513,91.064 140.905 C 90.939 140.297,90.639 138.900,90.400 137.800 C 89.378 133.116,89.148 131.506,88.733 126.105 C 88.294 120.385,88.634 112.903,89.574 107.600 C 89.788 106.390,90.074 104.770,90.209 104.000 C 90.344 103.230,90.602 102.240,90.782 101.800 C 90.962 101.360,91.330 100.190,91.600 99.200 C 91.870 98.210,92.251 96.995,92.446 96.500 C 94.586 91.063,94.289 91.391,97.018 91.460 C 98.328 91.493,100.750 91.714,102.400 91.951 C 104.050 92.188,106.210 92.495,107.200 92.632 C 108.190 92.769,109.171 93.044,109.380 93.241 C 109.589 93.438,110.116 93.600,110.552 93.600 C 111.271 93.600,112.882 94.035,115.000 94.800 C 115.440 94.959,116.520 95.306,117.400 95.571 C 118.280 95.836,119.405 96.221,119.900 96.426 C 120.395 96.632,121.205 96.960,121.700 97.155 C 127.750 99.544,136.816 104.104,140.800 106.762 C 141.350 107.129,142.295 107.678,142.900 107.982 C 143.505 108.286,144.000 108.685,144.000 108.868 C 144.000 109.050,144.193 109.200,144.428 109.200 C 144.663 109.200,145.664 109.756,146.652 110.436 C 148.592 111.770,149.448 111.814,154.800 110.853 C 176.533 106.951,189.092 105.450,200.000 105.450 C 206.800 105.450,210.683 105.722,219.400 106.806 C 225.535 107.569,237.158 109.386,245.000 110.808 C 250.921 111.882,252.111 111.764,254.175 109.900 C 254.602 109.515,255.187 109.200,255.475 109.200 C 255.764 109.200,256.000 109.050,256.000 108.868 C 256.000 108.685,256.495 108.286,257.100 107.982 C 257.705 107.678,258.650 107.129,259.200 106.762 C 262.044 104.865,271.917 99.748,275.600 98.263 C 276.590 97.864,277.760 97.384,278.200 97.195 C 278.640 97.007,279.720 96.624,280.600 96.345 C 281.480 96.065,282.371 95.693,282.580 95.518 C 282.789 95.343,283.363 95.200,283.856 95.200 C 284.349 95.200,284.864 95.020,285.000 94.800 C 285.136 94.580,285.766 94.400,286.400 94.400 C 287.034 94.400,287.652 94.240,287.773 94.044 C 287.894 93.849,288.579 93.588,289.296 93.466 C 290.013 93.344,291.500 93.043,292.600 92.797 C 295.552 92.137,300.272 91.529,302.982 91.460 C 305.545 91.395,305.554 91.403,306.708 94.400 C 306.920 94.950,307.277 95.850,307.501 96.400 C 307.725 96.950,308.128 98.210,308.396 99.200 C 308.664 100.190,309.045 101.413,309.242 101.919 C 309.439 102.424,309.600 103.333,309.600 103.939 C 309.600 104.544,309.763 105.211,309.961 105.420 C 311.564 107.106,311.858 126.560,310.393 134.000 C 310.154 135.210,309.859 136.876,309.737 137.703 C 309.615 138.529,309.355 139.305,309.158 139.426 C 308.961 139.548,308.800 140.166,308.800 140.800 C 308.800 141.434,308.620 142.064,308.400 142.200 C 307.693 142.637,307.972 144.009,308.973 145.009 C 309.508 145.544,310.452 146.661,311.070 147.491 C 311.689 148.321,312.308 149.090,312.447 149.200 C 312.585 149.310,313.695 150.934,314.915 152.809 C 317.623 156.973,320.283 162.170,322.487 167.600 C 322.711 168.150,323.052 168.913,323.247 169.295 C 323.441 169.677,323.600 170.264,323.600 170.600 C 323.600 170.936,323.758 171.523,323.951 171.905 C 324.535 173.061,325.200 175.404,325.200 176.305 C 325.200 176.771,325.361 177.252,325.558 177.374 C 325.755 177.495,326.015 178.271,326.137 179.097 C 326.259 179.924,326.549 181.590,326.781 182.800 C 328.713 192.883,328.734 208.224,326.832 218.800 C 326.614 220.010,326.326 221.630,326.191 222.400 C 326.056 223.170,325.789 224.160,325.598 224.600 C 325.406 225.040,325.148 226.075,325.025 226.900 C 324.522 230.257,324.295 231.218,323.956 231.427 C 323.760 231.548,323.600 232.089,323.600 232.629 C 323.600 233.169,323.438 233.923,323.239 234.305 C 323.040 234.687,322.649 235.810,322.369 236.800 C 322.090 237.790,321.712 238.771,321.530 238.980 C 321.349 239.189,321.200 239.596,321.200 239.884 C 321.200 242.268,313.596 255.921,309.330 261.198 C 301.077 271.405,286.567 281.978,274.800 286.359 C 272.833 287.092,271.514 287.635,270.705 288.047 C 270.323 288.241,269.659 288.400,269.229 288.400 C 268.799 288.400,268.336 288.580,268.200 288.800 C 268.064 289.020,267.524 289.200,267.000 289.200 C 266.476 289.200,265.936 289.380,265.800 289.600 C 265.664 289.820,265.034 290.000,264.400 290.000 C 263.766 290.000,263.148 290.160,263.027 290.356 C 262.906 290.551,262.221 290.808,261.504 290.927 C 260.787 291.045,259.390 291.346,258.400 291.596 C 254.639 292.545,249.322 293.477,244.800 293.981 C 242.930 294.189,240.730 294.481,239.912 294.630 L 238.423 294.901 239.527 295.950 C 240.134 296.528,241.065 297.630,241.596 298.400 C 242.127 299.170,242.660 299.890,242.781 300.000 C 244.236 301.327,247.321 309.033,248.786 315.000 C 249.648 318.512,249.678 319.433,249.986 352.600 C 250.324 388.947,250.260 387.958,252.488 391.244 C 253.732 393.079,256.000 394.084,256.000 392.800 C 256.000 392.580,256.630 392.400,257.400 392.400 C 258.170 392.400,258.800 392.220,258.800 392.000 C 258.800 391.780,259.247 391.600,259.794 391.600 C 260.688 391.600,268.047 389.348,270.300 388.385 C 270.795 388.173,271.695 387.799,272.300 387.553 C 272.905 387.308,273.713 386.948,274.095 386.753 C 274.477 386.559,275.062 386.400,275.395 386.400 C 275.728 386.400,276.000 386.220,276.000 386.000 C 276.000 385.780,276.439 385.600,276.976 385.600 C 277.513 385.600,278.064 385.420,278.200 385.200 C 278.336 384.980,278.797 384.800,279.224 384.800 C 279.651 384.800,280.000 384.620,280.000 384.400 C 280.000 384.180,280.360 384.000,280.800 384.000 C 281.240 384.000,281.600 383.820,281.600 383.600 C 281.600 383.380,281.872 383.200,282.205 383.200 C 282.538 383.200,283.123 383.038,283.505 382.841 C 283.887 382.643,285.820 381.700,287.800 380.745 C 289.780 379.789,291.460 378.871,291.533 378.704 C 291.607 378.537,292.012 378.400,292.433 378.400 C 292.855 378.400,293.200 378.220,293.200 378.000 C 293.200 377.780,293.478 377.600,293.817 377.600 C 294.156 377.600,294.820 377.240,295.292 376.800 C 295.764 376.360,296.387 376.000,296.675 376.000 C 296.964 376.000,297.200 375.820,297.200 375.600 C 297.200 375.380,297.491 375.200,297.846 375.200 C 298.562 375.200,302.523 373.174,302.733 372.700 C 302.807 372.535,303.044 372.400,303.261 372.400 C 303.478 372.400,304.441 371.860,305.400 371.200 C 306.359 370.540,307.297 370.000,307.484 370.000 C 307.671 370.000,308.083 369.640,308.400 369.200 C 308.717 368.760,309.257 368.400,309.600 368.400 C 309.943 368.400,310.483 368.040,310.800 367.600 C 311.117 367.160,311.657 366.800,312.000 366.800 C 312.343 366.800,312.883 366.440,313.200 366.000 C 313.517 365.560,314.057 365.200,314.400 365.200 C 314.743 365.200,315.283 364.840,315.600 364.400 C 315.917 363.960,316.380 363.600,316.629 363.600 C 316.878 363.600,317.646 363.060,318.337 362.400 C 319.028 361.740,319.792 361.200,320.036 361.200 C 320.280 361.200,320.983 360.660,321.600 360.000 C 322.217 359.340,322.836 358.800,322.977 358.800 C 323.264 358.800,323.610 358.531,325.542 356.801 C 326.281 356.141,327.041 355.600,327.232 355.600 C 327.423 355.600,328.349 354.833,329.289 353.895 C 330.230 352.957,331.630 351.745,332.400 351.201 C 333.170 350.658,335.561 348.410,337.713 346.207 C 342.418 341.389,341.389 342.418,346.207 337.713 C 348.410 335.561,350.658 333.170,351.201 332.400 C 351.745 331.630,352.957 330.230,353.895 329.289 C 354.833 328.349,355.600 327.423,355.600 327.232 C 355.600 327.041,356.095 326.329,356.700 325.651 C 358.449 323.688,358.800 323.248,358.800 323.013 C 358.800 322.892,359.340 322.228,360.000 321.537 C 360.660 320.846,361.200 320.126,361.200 319.937 C 361.200 319.748,361.740 319.028,362.400 318.337 C 363.060 317.646,363.600 316.878,363.600 316.629 C 363.600 316.380,363.960 315.917,364.400 315.600 C 364.840 315.283,365.200 314.743,365.200 314.400 C 365.200 314.057,365.560 313.517,366.000 313.200 C 366.440 312.883,366.800 312.343,366.800 312.000 C 366.800 311.657,367.160 311.117,367.600 310.800 C 368.040 310.483,368.400 309.943,368.400 309.600 C 368.400 309.257,368.760 308.717,369.200 308.400 C 369.640 308.083,370.000 307.671,370.000 307.484 C 370.000 307.297,370.540 306.359,371.200 305.400 C 371.860 304.441,372.400 303.478,372.400 303.261 C 372.400 303.044,372.535 302.807,372.700 302.733 C 373.105 302.553,375.200 298.611,375.200 298.029 C 375.200 297.775,375.560 297.180,376.000 296.708 C 376.440 296.236,376.800 295.613,376.800 295.325 C 376.800 295.036,376.980 294.800,377.200 294.800 C 377.420 294.800,377.600 294.440,377.600 294.000 C 377.600 293.560,377.780 293.200,378.000 293.200 C 378.220 293.200,378.400 292.840,378.400 292.400 C 378.400 291.960,378.580 291.600,378.800 291.600 C 379.020 291.600,379.200 291.255,379.200 290.833 C 379.200 290.412,379.335 290.007,379.500 289.933 C 379.932 289.741,381.600 286.428,381.600 285.762 C 381.600 285.453,381.780 285.200,382.000 285.200 C 382.220 285.200,382.400 284.750,382.400 284.200 C 382.400 283.650,382.580 283.200,382.800 283.200 C 383.020 283.200,383.200 282.840,383.200 282.400 C 383.200 281.960,383.380 281.600,383.600 281.600 C 383.820 281.600,384.000 281.240,384.000 280.800 C 384.000 280.360,384.147 280.000,384.328 280.000 C 384.508 280.000,384.900 279.100,385.200 278.000 C 385.500 276.900,385.892 276.000,386.072 276.000 C 386.253 276.000,386.400 275.640,386.400 275.200 C 386.400 274.760,386.580 274.400,386.800 274.400 C 387.020 274.400,387.200 273.961,387.200 273.424 C 387.200 272.887,387.380 272.336,387.600 272.200 C 387.820 272.064,388.000 271.513,388.000 270.976 C 388.000 270.439,388.141 270.000,388.313 270.000 C 388.485 270.000,388.875 269.145,389.180 268.100 C 389.485 267.055,389.868 265.930,390.030 265.600 C 390.591 264.462,391.600 260.706,391.600 259.754 C 391.600 259.229,391.780 258.800,392.000 258.800 C 392.220 258.800,392.400 258.170,392.400 257.400 C 392.400 256.630,392.580 256.000,392.800 256.000 C 393.020 256.000,393.200 255.370,393.200 254.600 C 393.200 253.830,393.380 253.200,393.600 253.200 C 393.820 253.200,394.000 252.570,394.000 251.800 C 394.000 251.030,394.180 250.400,394.400 250.400 C 394.620 250.400,394.800 249.680,394.800 248.800 C 394.800 247.920,394.980 247.200,395.200 247.200 C 395.420 247.200,395.600 246.401,395.600 245.424 C 395.600 244.447,395.780 243.536,396.000 243.400 C 396.220 243.264,396.400 242.454,396.400 241.600 C 396.400 240.746,396.580 239.936,396.800 239.800 C 397.020 239.664,397.200 238.663,397.200 237.576 C 397.200 236.489,397.380 235.600,397.600 235.600 C 397.822 235.600,398.000 234.533,398.000 233.200 C 398.000 231.867,398.178 230.800,398.400 230.800 C 398.628 230.800,398.800 229.611,398.800 228.033 C 398.800 226.176,398.964 225.212,399.300 225.100 C 399.693 224.969,399.800 219.591,399.800 200.000 C 399.800 180.409,399.693 175.031,399.300 174.900 C 398.965 174.788,398.800 173.829,398.800 171.990 C 398.800 170.482,398.620 169.136,398.400 169.000 C 398.180 168.864,398.000 167.784,398.000 166.600 C 398.000 165.416,397.820 164.336,397.600 164.200 C 397.380 164.064,397.200 163.063,397.200 161.976 C 397.200 160.889,397.020 160.000,396.800 160.000 C 396.580 160.000,396.400 159.201,396.400 158.224 C 396.400 157.247,396.220 156.336,396.000 156.200 C 395.780 156.064,395.600 155.243,395.600 154.376 C 395.600 153.509,395.420 152.800,395.200 152.800 C 394.980 152.800,394.800 152.080,394.800 151.200 C 394.800 150.320,394.620 149.600,394.400 149.600 C 394.180 149.600,394.000 148.981,394.000 148.224 C 394.000 147.467,393.820 146.736,393.600 146.600 C 393.380 146.464,393.200 145.823,393.200 145.176 C 393.200 144.529,393.020 144.000,392.800 144.000 C 392.580 144.000,392.400 143.370,392.400 142.600 C 392.400 141.830,392.220 141.200,392.000 141.200 C 391.780 141.200,391.600 140.771,391.600 140.246 C 391.600 139.222,390.560 135.447,389.963 134.305 C 389.763 133.923,389.600 133.336,389.600 133.000 C 389.600 132.664,389.441 132.077,389.247 131.695 C 389.052 131.313,388.671 130.460,388.400 129.800 C 388.129 129.140,387.748 128.287,387.553 127.905 C 387.359 127.523,387.200 126.848,387.200 126.405 C 387.200 125.962,387.020 125.600,386.800 125.600 C 386.580 125.600,386.400 125.240,386.400 124.800 C 386.400 124.360,386.220 124.000,386.000 124.000 C 385.780 124.000,385.600 123.561,385.600 123.024 C 385.600 122.487,385.420 121.936,385.200 121.800 C 384.980 121.664,384.800 121.203,384.800 120.776 C 384.800 120.349,384.620 120.000,384.400 120.000 C 384.180 120.000,384.000 119.640,384.000 119.200 C 384.000 118.760,383.820 118.400,383.600 118.400 C 383.380 118.400,383.200 118.040,383.200 117.600 C 383.200 117.160,383.020 116.800,382.800 116.800 C 382.580 116.800,382.400 116.350,382.400 115.800 C 382.400 115.250,382.220 114.800,382.000 114.800 C 381.780 114.800,381.600 114.350,381.600 113.800 C 381.600 113.250,381.465 112.799,381.300 112.799 C 381.135 112.798,380.550 111.808,380.000 110.600 C 379.450 109.392,378.865 108.402,378.700 108.401 C 378.535 108.401,378.400 108.040,378.400 107.600 C 378.400 107.160,378.220 106.800,378.000 106.800 C 377.780 106.800,377.600 106.440,377.600 106.000 C 377.600 105.560,377.420 105.200,377.200 105.200 C 376.980 105.200,376.800 104.880,376.800 104.488 C 376.800 104.097,376.440 103.517,376.000 103.200 C 375.560 102.883,375.200 102.387,375.200 102.098 C 375.200 101.396,373.191 97.435,372.749 97.267 C 372.557 97.193,372.400 96.956,372.400 96.739 C 372.400 96.522,371.860 95.559,371.200 94.600 C 370.540 93.641,370.000 92.703,370.000 92.516 C 370.000 92.329,369.640 91.917,369.200 91.600 C 368.760 91.283,368.400 90.743,368.400 90.400 C 368.400 90.057,368.040 89.517,367.600 89.200 C 367.160 88.883,366.800 88.343,366.800 88.000 C 366.800 87.657,366.440 87.117,366.000 86.800 C 365.560 86.483,365.200 85.943,365.200 85.600 C 365.200 85.257,364.840 84.717,364.400 84.400 C 363.960 84.083,363.600 83.620,363.600 83.371 C 363.600 83.122,363.060 82.354,362.400 81.663 C 361.740 80.972,361.200 80.208,361.200 79.964 C 361.200 79.720,360.660 79.017,360.000 78.400 C 359.340 77.783,358.800 77.164,358.800 77.023 C 358.800 76.752,358.486 76.352,356.700 74.349 C 356.095 73.671,355.600 72.959,355.600 72.768 C 355.600 72.577,354.833 71.651,353.895 70.711 C 352.957 69.770,351.745 68.370,351.201 67.600 C 350.658 66.830,348.410 64.439,346.207 62.287 C 341.389 57.582,342.418 58.611,337.713 53.793 C 335.561 51.590,333.172 49.342,332.405 48.799 C 331.638 48.255,330.135 46.953,329.065 45.905 C 327.995 44.857,326.949 44.000,326.741 44.000 C 326.534 44.000,325.930 43.595,325.401 43.100 C 323.937 41.731,323.260 41.200,322.977 41.200 C 322.836 41.200,322.217 40.660,321.600 40.000 C 320.983 39.340,320.280 38.800,320.036 38.800 C 319.792 38.800,319.028 38.260,318.337 37.600 C 317.646 36.940,316.878 36.400,316.629 36.400 C 316.380 36.400,315.917 36.040,315.600 35.600 C 315.283 35.160,314.743 34.800,314.400 34.800 C 314.057 34.800,313.517 34.440,313.200 34.000 C 312.883 33.560,312.343 33.200,312.000 33.200 C 311.657 33.200,311.117 32.840,310.800 32.400 C 310.483 31.960,309.943 31.600,309.600 31.600 C 309.257 31.600,308.717 31.240,308.400 30.800 C 308.083 30.360,307.671 30.000,307.484 30.000 C 307.297 30.000,306.359 29.460,305.400 28.800 C 304.441 28.140,303.478 27.600,303.261 27.600 C 303.044 27.600,302.807 27.465,302.733 27.300 C 302.553 26.895,298.611 24.800,298.029 24.800 C 297.775 24.800,297.180 24.440,296.708 24.000 C 296.236 23.560,295.613 23.200,295.325 23.200 C 295.036 23.200,294.800 23.020,294.800 22.800 C 294.800 22.580,294.440 22.400,294.000 22.400 C 293.560 22.400,293.200 22.220,293.200 22.000 C 293.200 21.780,292.840 21.600,292.400 21.600 C 291.960 21.600,291.600 21.454,291.600 21.275 C 291.600 21.096,290.970 20.702,290.200 20.400 C 289.430 20.098,288.800 19.704,288.800 19.525 C 288.800 19.346,288.440 19.200,288.000 19.200 C 287.560 19.200,287.200 19.020,287.200 18.800 C 287.200 18.580,286.928 18.400,286.595 18.400 C 286.007 18.400,285.582 18.233,283.705 17.262 C 283.213 17.008,282.538 16.800,282.205 16.800 C 281.872 16.800,281.600 16.620,281.600 16.400 C 281.600 16.180,281.240 16.000,280.800 16.000 C 280.360 16.000,280.000 15.820,280.000 15.600 C 280.000 15.380,279.640 15.200,279.200 15.200 C 278.760 15.200,278.400 15.020,278.400 14.800 C 278.400 14.580,277.860 14.400,277.200 14.400 C 276.540 14.400,276.000 14.220,276.000 14.000 C 276.000 13.780,275.640 13.600,275.200 13.600 C 274.760 13.600,274.400 13.420,274.400 13.200 C 274.400 12.980,274.038 12.800,273.595 12.800 C 273.152 12.800,272.477 12.641,272.095 12.447 C 271.713 12.252,270.860 11.871,270.200 11.600 C 269.540 11.329,268.687 10.948,268.305 10.753 C 267.923 10.559,267.336 10.400,267.000 10.400 C 266.664 10.400,266.077 10.237,265.695 10.037 C 264.553 9.440,260.778 8.400,259.754 8.400 C 259.229 8.400,258.800 8.220,258.800 8.000 C 258.800 7.780,258.170 7.600,257.400 7.600 C 256.630 7.600,256.000 7.420,256.000 7.200 C 256.000 6.980,255.460 6.800,254.800 6.800 C 254.140 6.800,253.600 6.620,253.600 6.400 C 253.600 6.180,252.880 6.000,252.000 6.000 C 251.120 6.000,250.400 5.820,250.400 5.600 C 250.400 5.380,249.680 5.200,248.800 5.200 C 247.920 5.200,247.200 5.020,247.200 4.800 C 247.200 4.580,246.491 4.400,245.624 4.400 C 244.757 4.400,243.936 4.220,243.800 4.000 C 243.664 3.780,242.753 3.600,241.776 3.600 C 240.799 3.600,240.000 3.420,240.000 3.200 C 240.000 2.980,239.100 2.800,238.000 2.800 C 236.900 2.800,236.000 2.620,236.000 2.400 C 236.000 2.178,234.941 2.000,233.624 2.000 C 232.317 2.000,231.136 1.820,231.000 1.600 C 230.864 1.380,229.518 1.200,228.010 1.200 C 226.193 1.200,225.211 1.034,225.103 0.708 C 224.941 0.222,187.291 -0.126,178.300 0.275 " stroke="none" fill="#040404" fill-rule="evenodd"></path><path id="path2" d="M97.105 91.883 C 97.602 91.979,98.322 91.975,98.705 91.875 C 99.087 91.775,98.680 91.696,97.800 91.701 C 96.920 91.705,96.607 91.787,97.105 91.883 M301.505 91.883 C 302.002 91.979,302.722 91.975,303.105 91.875 C 303.487 91.775,303.080 91.696,302.200 91.701 C 301.320 91.705,301.007 91.787,301.505 91.883 M100.305 92.283 C 100.802 92.379,101.522 92.375,101.905 92.275 C 102.287 92.175,101.880 92.096,101.000 92.101 C 100.120 92.105,99.807 92.187,100.305 92.283 M298.305 92.283 C 298.802 92.379,299.522 92.375,299.905 92.275 C 300.287 92.175,299.880 92.096,299.000 92.101 C 298.120 92.105,297.807 92.187,298.305 92.283 M104.600 92.781 C 105.368 93.129,107.510 93.356,107.167 93.053 C 107.075 92.972,106.280 92.796,105.400 92.662 C 104.285 92.493,104.042 92.529,104.600 92.781 M114.400 95.141 C 114.730 95.334,115.540 95.609,116.200 95.752 C 116.968 95.918,117.184 95.884,116.800 95.659 C 116.470 95.466,115.660 95.191,115.000 95.048 C 114.232 94.882,114.016 94.916,114.400 95.141 M276.100 98.234 C 275.385 98.546,274.800 98.894,274.800 99.007 C 274.800 99.215,277.606 98.127,277.946 97.787 C 278.286 97.447,277.420 97.657,276.100 98.234 M193.505 105.883 C 194.002 105.979,194.722 105.975,195.105 105.875 C 195.487 105.775,195.080 105.696,194.200 105.701 C 193.320 105.705,193.007 105.787,193.505 105.883 M205.105 105.883 C 205.602 105.979,206.322 105.975,206.705 105.875 C 207.087 105.775,206.680 105.696,205.800 105.701 C 204.920 105.705,204.607 105.787,205.105 105.883 M190.305 106.283 C 190.802 106.379,191.522 106.375,191.905 106.275 C 192.287 106.175,191.880 106.096,191.000 106.101 C 190.120 106.105,189.807 106.187,190.305 106.283 M208.305 106.283 C 208.802 106.379,209.522 106.375,209.905 106.275 C 210.287 106.175,209.880 106.096,209.000 106.101 C 208.120 106.105,207.807 106.187,208.305 106.283 M310.028 109.233 C 310.044 109.765,310.219 110.560,310.419 111.000 C 310.671 111.558,310.707 111.315,310.538 110.200 C 310.255 108.343,309.987 107.836,310.028 109.233 M160.500 110.276 C 160.885 110.376,161.515 110.376,161.900 110.276 C 162.285 110.175,161.970 110.093,161.200 110.093 C 160.430 110.093,160.115 110.175,160.500 110.276 M238.500 110.276 C 238.885 110.376,239.515 110.376,239.900 110.276 C 240.285 110.175,239.970 110.093,239.200 110.093 C 238.430 110.093,238.115 110.175,238.500 110.276 M155.700 111.076 C 156.085 111.176,156.715 111.176,157.100 111.076 C 157.485 110.975,157.170 110.893,156.400 110.893 C 155.630 110.893,155.315 110.975,155.700 111.076 M88.960 120.600 C 88.961 123.900,89.022 125.197,89.098 123.482 C 89.173 121.767,89.172 119.067,89.097 117.482 C 89.021 115.897,88.959 117.300,88.960 120.600 M310.959 120.800 C 310.959 123.990,311.021 125.295,311.097 123.700 C 311.173 122.105,311.173 119.495,311.097 117.900 C 311.021 116.305,310.959 117.610,310.959 120.800 M83.414 155.835 C 83.041 156.404,82.805 156.938,82.889 157.022 C 82.973 157.107,83.358 156.641,83.744 155.988 C 84.606 154.528,84.348 154.409,83.414 155.835 M315.960 155.400 C 316.634 156.705,317.188 157.428,317.185 157.000 C 317.183 156.780,316.814 156.150,316.364 155.600 C 315.821 154.936,315.685 154.869,315.960 155.400 M80.065 162.217 C 79.395 163.688,79.523 164.002,80.247 162.665 C 80.586 162.040,80.788 161.454,80.696 161.363 C 80.605 161.271,80.321 161.656,80.065 162.217 M319.228 161.400 C 319.228 161.620,319.486 162.250,319.800 162.800 C 320.114 163.350,320.372 163.620,320.372 163.400 C 320.372 163.180,320.114 162.550,319.800 162.000 C 319.486 161.450,319.228 161.180,319.228 161.400 M326.428 184.433 C 326.444 184.965,326.619 185.760,326.819 186.200 C 327.071 186.758,327.107 186.515,326.938 185.400 C 326.655 183.543,326.387 183.036,326.428 184.433 M72.493 190.400 C 72.493 191.170,72.575 191.485,72.676 191.100 C 72.776 190.715,72.776 190.085,72.676 189.700 C 72.575 189.315,72.493 189.630,72.493 190.400 M327.301 190.600 C 327.305 191.480,327.387 191.793,327.483 191.295 C 327.579 190.798,327.575 190.078,327.475 189.695 C 327.375 189.313,327.296 189.720,327.301 190.600 M72.101 193.400 C 72.105 194.280,72.187 194.593,72.283 194.095 C 72.379 193.598,72.375 192.878,72.275 192.495 C 72.175 192.113,72.096 192.520,72.101 193.400 M327.693 193.600 C 327.693 194.370,327.775 194.685,327.876 194.300 C 327.976 193.915,327.976 193.285,327.876 192.900 C 327.775 192.515,327.693 192.830,327.693 193.600 M72.093 208.400 C 72.093 209.170,72.175 209.485,72.276 209.100 C 72.376 208.715,72.376 208.085,72.276 207.700 C 72.175 207.315,72.093 207.630,72.093 208.400 M327.301 211.000 C 327.305 211.880,327.387 212.193,327.483 211.695 C 327.579 211.198,327.575 210.478,327.475 210.095 C 327.375 209.713,327.296 210.120,327.301 211.000 M72.493 211.200 C 72.493 211.970,72.575 212.285,72.676 211.900 C 72.776 211.515,72.776 210.885,72.676 210.500 C 72.575 210.115,72.493 210.430,72.493 211.200 M72.868 215.600 C 72.888 216.639,73.518 218.346,73.532 217.400 C 73.538 216.960,73.389 216.240,73.200 215.800 C 72.989 215.310,72.861 215.232,72.868 215.600 M326.600 216.400 C 326.448 217.091,326.407 217.741,326.509 217.842 C 326.611 217.944,326.809 217.453,326.950 216.750 C 327.091 216.047,327.131 215.398,327.041 215.308 C 326.950 215.217,326.752 215.709,326.600 216.400 M73.844 221.000 C 74.173 222.471,74.402 222.790,74.394 221.767 C 74.391 221.345,74.205 220.730,73.982 220.400 C 73.685 219.962,73.648 220.124,73.844 221.000 M325.849 220.615 C 325.712 220.973,325.615 221.566,325.634 221.933 C 325.653 222.300,325.827 222.069,326.021 221.420 C 326.398 220.158,326.265 219.533,325.849 220.615 M74.644 224.600 C 74.973 226.071,75.202 226.390,75.194 225.367 C 75.191 224.945,75.005 224.330,74.782 224.000 C 74.485 223.562,74.448 223.724,74.644 224.600 M75.444 228.200 C 75.773 229.671,76.002 229.990,75.994 228.967 C 75.991 228.545,75.805 227.930,75.582 227.600 C 75.285 227.162,75.248 227.324,75.444 228.200 M324.249 227.815 C 324.112 228.173,324.015 228.766,324.034 229.133 C 324.053 229.500,324.227 229.269,324.421 228.620 C 324.798 227.358,324.665 226.733,324.249 227.815 M76.244 231.400 C 76.573 232.871,76.802 233.190,76.794 232.167 C 76.791 231.745,76.605 231.130,76.382 230.800 C 76.085 230.362,76.048 230.524,76.244 231.400 M323.449 231.015 C 323.312 231.373,323.215 231.966,323.234 232.333 C 323.253 232.700,323.427 232.469,323.621 231.820 C 323.998 230.558,323.865 229.933,323.449 231.015 M77.044 234.200 C 77.373 235.671,77.602 235.990,77.594 234.967 C 77.591 234.545,77.405 233.930,77.182 233.600 C 76.885 233.162,76.848 233.324,77.044 234.200 M322.649 233.815 C 322.512 234.173,322.415 234.766,322.434 235.133 C 322.453 235.500,322.627 235.269,322.821 234.620 C 323.198 233.358,323.065 232.733,322.649 233.815 M321.291 238.100 C 320.610 239.984,320.704 240.494,321.426 238.830 C 321.753 238.077,321.966 237.299,321.901 237.102 C 321.835 236.905,321.560 237.354,321.291 238.100 M90.400 260.264 C 90.400 260.482,90.895 261.097,91.500 261.630 L 92.600 262.600 91.600 261.400 C 91.050 260.740,90.555 260.125,90.500 260.033 C 90.445 259.942,90.400 260.045,90.400 260.264 M306.175 264.100 L 305.000 265.400 306.300 264.225 C 307.015 263.579,307.600 262.994,307.600 262.925 C 307.600 262.616,307.270 262.888,306.175 264.100 M100.545 270.900 C 102.085 272.385,103.506 273.600,103.703 273.600 C 103.900 273.600,103.463 273.118,102.731 272.530 C 101.999 271.941,100.578 270.726,99.573 269.830 C 98.568 268.933,99.005 269.415,100.545 270.900 M301.362 268.857 C 300.943 269.329,299.556 270.589,298.279 271.657 C 297.003 272.726,296.115 273.600,296.307 273.600 C 296.704 273.600,302.727 268.048,302.362 268.019 C 302.231 268.009,301.781 268.386,301.362 268.857 M58.500 284.676 C 58.885 284.776,59.515 284.776,59.900 284.676 C 60.285 284.575,59.970 284.493,59.200 284.493 C 58.430 284.493,58.115 284.575,58.500 284.676 M64.433 284.544 C 64.525 284.623,65.500 284.791,66.600 284.918 C 67.887 285.067,68.315 285.026,67.800 284.803 C 67.036 284.472,64.086 284.245,64.433 284.544 M271.400 287.014 C 269.785 287.754,270.751 287.755,272.454 287.016 C 273.194 286.694,273.530 286.439,273.200 286.448 C 272.870 286.457,272.060 286.712,271.400 287.014 M129.200 287.666 C 130.738 288.305,132.539 288.806,132.247 288.514 C 131.917 288.183,129.135 287.206,128.600 287.231 C 128.380 287.242,128.650 287.438,129.200 287.666 M132.833 288.944 C 132.925 289.023,133.540 289.208,134.200 289.356 C 135.076 289.552,135.238 289.515,134.800 289.218 C 134.260 288.853,132.432 288.598,132.833 288.944 M262.400 290.018 C 261.962 290.315,262.124 290.352,263.000 290.156 C 264.471 289.827,264.790 289.598,263.767 289.606 C 263.345 289.609,262.730 289.795,262.400 290.018 M80.544 290.309 C 80.860 290.821,83.200 292.553,83.200 292.275 C 83.200 292.176,82.539 291.591,81.732 290.975 C 80.924 290.359,80.389 290.059,80.544 290.309 M259.200 290.818 C 258.762 291.115,258.924 291.152,259.800 290.956 C 261.271 290.627,261.590 290.398,260.567 290.406 C 260.145 290.409,259.530 290.595,259.200 290.818 M256.000 291.618 C 255.562 291.915,255.724 291.952,256.600 291.756 C 258.071 291.427,258.390 291.198,257.367 291.206 C 256.945 291.209,256.330 291.395,256.000 291.618 M252.000 292.418 C 251.562 292.715,251.724 292.752,252.600 292.556 C 254.071 292.227,254.390 291.998,253.367 292.006 C 252.945 292.009,252.330 292.195,252.000 292.418 M150.033 292.947 C 150.125 293.028,150.920 293.204,151.800 293.338 C 152.915 293.507,153.158 293.471,152.600 293.219 C 151.832 292.871,149.690 292.644,150.033 292.947 M156.800 293.852 C 159.449 294.380,162.013 294.654,161.723 294.378 C 161.545 294.209,160.140 293.976,158.600 293.861 C 157.060 293.746,156.250 293.742,156.800 293.852 M241.505 293.883 C 242.002 293.979,242.722 293.975,243.105 293.875 C 243.487 293.775,243.080 293.696,242.200 293.701 C 241.320 293.705,241.007 293.787,241.505 293.883 M238.000 294.530 C 238.000 294.822,238.495 295.497,239.100 296.030 L 240.200 297.000 239.300 295.974 C 238.147 294.660,238.167 294.488,239.500 294.287 C 240.524 294.131,240.510 294.116,239.300 294.060 C 238.457 294.021,238.000 294.186,238.000 294.530 M158.087 299.300 C 156.627 301.456,156.312 302.000,156.520 302.000 C 156.612 302.000,157.344 301.010,158.147 299.800 C 158.951 298.590,159.525 297.600,159.423 297.600 C 159.322 297.600,158.720 298.365,158.087 299.300 M66.800 301.000 C 68.217 302.430,69.467 303.600,69.577 303.600 C 69.687 303.600,68.617 302.430,67.200 301.000 C 65.783 299.570,64.533 298.400,64.423 298.400 C 64.313 298.400,65.383 299.570,66.800 301.000 M92.185 302.700 C 92.802 303.635,93.383 304.400,93.476 304.400 C 93.764 304.400,92.233 301.966,91.632 301.469 C 91.320 301.211,91.568 301.765,92.185 302.700 M69.600 304.125 C 69.600 304.194,70.185 304.779,70.900 305.425 L 72.200 306.600 71.025 305.300 C 69.930 304.088,69.600 303.816,69.600 304.125 M74.800 310.120 C 74.800 310.504,76.845 313.600,77.099 313.600 C 77.278 313.600,76.641 312.519,75.339 310.611 C 75.042 310.177,74.800 309.956,74.800 310.120 M99.400 313.600 C 100.928 315.140,102.269 316.400,102.379 316.400 C 102.489 316.400,101.328 315.140,99.800 313.600 C 98.272 312.060,96.931 310.800,96.821 310.800 C 96.711 310.800,97.872 312.060,99.400 313.600 M133.800 325.600 L 132.200 325.886 133.600 325.937 C 134.370 325.965,135.270 325.813,135.600 325.600 C 136.255 325.177,136.162 325.177,133.800 325.600 M122.500 325.876 C 122.885 325.976,123.515 325.976,123.900 325.876 C 124.285 325.775,123.970 325.693,123.200 325.693 C 122.430 325.693,122.115 325.775,122.500 325.876 M84.171 329.500 C 84.988 331.021,86.394 333.058,86.397 332.727 C 86.401 332.391,83.940 328.400,83.730 328.400 C 83.647 328.400,83.846 328.895,84.171 329.500 M249.376 342.400 C 249.376 348.670,249.432 351.235,249.499 348.100 C 249.567 344.965,249.567 339.835,249.499 336.700 C 249.432 333.565,249.376 336.130,249.376 342.400 M91.800 339.200 C 92.883 340.300,93.860 341.200,93.970 341.200 C 94.080 341.200,93.283 340.300,92.200 339.200 C 91.117 338.100,90.140 337.200,90.030 337.200 C 89.920 337.200,90.717 338.100,91.800 339.200 M94.524 341.477 C 94.860 342.021,98.000 344.555,98.000 344.282 C 98.000 344.180,97.153 343.403,96.119 342.555 C 95.084 341.707,94.366 341.222,94.524 341.477 M116.400 352.794 C 116.730 353.011,117.435 353.191,117.967 353.194 C 119.251 353.202,118.925 352.975,117.200 352.658 C 116.215 352.477,115.978 352.518,116.400 352.794 M143.700 353.076 C 144.085 353.176,144.715 353.176,145.100 353.076 C 145.485 352.975,145.170 352.893,144.400 352.893 C 143.630 352.893,143.315 352.975,143.700 353.076 M121.900 353.882 C 122.395 353.978,123.205 353.978,123.700 353.882 C 124.195 353.787,123.790 353.709,122.800 353.709 C 121.810 353.709,121.405 353.787,121.900 353.882 M137.705 353.887 C 138.314 353.979,139.214 353.977,139.705 353.882 C 140.197 353.787,139.700 353.711,138.600 353.714 C 137.500 353.717,137.097 353.795,137.705 353.887 M128.316 354.297 C 129.699 354.375,131.859 354.374,133.116 354.295 C 134.372 354.216,133.240 354.152,130.600 354.153 C 127.960 354.153,126.932 354.218,128.316 354.297 M150.181 370.800 C 150.181 379.050,150.234 382.425,150.299 378.300 C 150.364 374.175,150.364 367.425,150.299 363.300 C 150.234 359.175,150.181 362.550,150.181 370.800 M249.780 372.200 C 249.780 379.680,249.834 382.683,249.899 378.874 C 249.965 375.065,249.965 368.945,249.899 365.274 C 249.833 361.603,249.779 364.720,249.780 372.200 " stroke="none" fill="#7c7c7c" fill-rule="evenodd"></path><path id="path3" d="M94.349 91.900 C 93.868 92.513,93.876 92.541,94.412 92.124 C 94.749 91.862,96.009 91.580,97.212 91.498 L 99.400 91.348 97.149 91.274 C 95.420 91.217,94.771 91.362,94.349 91.900 M302.788 91.498 C 303.991 91.580,305.251 91.862,305.588 92.124 C 306.124 92.541,306.132 92.513,305.651 91.900 C 305.229 91.362,304.580 91.217,302.851 91.274 L 300.600 91.348 302.788 91.498 M103.633 92.144 C 103.725 92.223,104.340 92.408,105.000 92.556 C 105.876 92.752,106.038 92.715,105.600 92.418 C 105.060 92.053,103.232 91.798,103.633 92.144 M294.400 92.418 C 293.962 92.715,294.124 92.752,295.000 92.556 C 296.471 92.227,296.790 91.998,295.767 92.006 C 295.345 92.009,294.730 92.195,294.400 92.418 M89.849 105.415 C 89.712 105.773,89.618 106.456,89.641 106.933 C 89.667 107.481,89.803 107.286,90.010 106.403 C 90.360 104.916,90.265 104.333,89.849 105.415 M196.300 105.498 C 198.335 105.571,201.665 105.571,203.700 105.498 C 205.735 105.425,204.070 105.366,200.000 105.366 C 195.930 105.366,194.265 105.425,196.300 105.498 M309.952 106.487 C 310.137 107.598,310.193 107.655,310.319 106.854 C 310.401 106.333,310.303 105.743,310.101 105.541 C 309.879 105.319,309.821 105.693,309.952 106.487 M185.300 106.287 C 185.905 106.378,186.895 106.378,187.500 106.287 C 188.105 106.195,187.610 106.120,186.400 106.120 C 185.190 106.120,184.695 106.195,185.300 106.287 M212.500 106.287 C 213.105 106.378,214.095 106.378,214.700 106.287 C 215.305 106.195,214.810 106.120,213.600 106.120 C 212.390 106.120,211.895 106.195,212.500 106.287 M177.400 107.203 C 176.885 107.426,177.313 107.467,178.600 107.318 C 179.700 107.191,180.675 107.023,180.767 106.944 C 181.114 106.645,178.164 106.872,177.400 107.203 M219.233 106.944 C 219.325 107.023,220.300 107.191,221.400 107.318 C 222.687 107.467,223.115 107.426,222.600 107.203 C 221.836 106.872,218.886 106.645,219.233 106.944 M172.000 108.006 C 171.578 108.282,171.815 108.323,172.800 108.142 C 174.525 107.825,174.851 107.598,173.567 107.606 C 173.035 107.609,172.330 107.789,172.000 108.006 M225.633 107.743 C 225.725 107.821,226.430 108.001,227.200 108.142 C 228.185 108.323,228.422 108.282,228.000 108.006 C 227.458 107.650,225.237 107.403,225.633 107.743 M166.800 108.806 C 166.378 109.082,166.615 109.123,167.600 108.942 C 169.325 108.625,169.651 108.398,168.367 108.406 C 167.835 108.409,167.130 108.589,166.800 108.806 M230.833 108.543 C 230.925 108.621,231.630 108.801,232.400 108.942 C 233.385 109.123,233.622 109.082,233.200 108.806 C 232.658 108.450,230.437 108.203,230.833 108.543 M162.000 109.606 C 161.578 109.882,161.815 109.923,162.800 109.742 C 164.525 109.425,164.851 109.198,163.567 109.206 C 163.035 109.209,162.330 109.389,162.000 109.606 M236.033 109.344 C 236.125 109.423,236.740 109.608,237.400 109.756 C 238.276 109.952,238.438 109.915,238.000 109.618 C 237.460 109.253,235.632 108.998,236.033 109.344 M240.833 110.144 C 240.925 110.223,241.540 110.408,242.200 110.556 C 243.076 110.752,243.238 110.715,242.800 110.418 C 242.260 110.053,240.432 109.798,240.833 110.144 M88.914 112.200 C 88.917 113.300,88.995 113.703,89.087 113.095 C 89.179 112.486,89.177 111.586,89.082 111.095 C 88.987 110.603,88.911 111.100,88.914 112.200 M310.914 112.200 C 310.917 113.300,310.995 113.703,311.087 113.095 C 311.179 112.486,311.177 111.586,311.082 111.095 C 310.987 110.603,310.911 111.100,310.914 112.200 M88.520 118.000 C 88.520 119.210,88.595 119.705,88.687 119.100 C 88.778 118.495,88.778 117.505,88.687 116.900 C 88.595 116.295,88.520 116.790,88.520 118.000 M311.351 120.800 C 311.351 123.330,311.416 124.365,311.496 123.100 C 311.575 121.835,311.575 119.765,311.496 118.500 C 311.416 117.235,311.351 118.270,311.351 120.800 M88.520 123.200 C 88.520 124.410,88.595 124.905,88.687 124.300 C 88.778 123.695,88.778 122.705,88.687 122.100 C 88.595 121.495,88.520 121.990,88.520 123.200 M88.909 129.600 C 88.909 130.590,88.987 130.995,89.082 130.500 C 89.178 130.005,89.178 129.195,89.082 128.700 C 88.987 128.205,88.909 128.610,88.909 129.600 M310.909 129.600 C 310.909 130.590,310.987 130.995,311.082 130.500 C 311.178 130.005,311.178 129.195,311.082 128.700 C 310.987 128.205,310.909 128.610,310.909 129.600 M90.406 138.233 C 90.409 138.655,90.595 139.270,90.818 139.600 C 91.115 140.038,91.152 139.876,90.956 139.000 C 90.627 137.529,90.398 137.210,90.406 138.233 M86.168 151.132 C 83.764 154.783,83.510 155.200,83.695 155.200 C 83.958 155.200,87.686 149.553,87.528 149.394 C 87.456 149.323,86.844 150.105,86.168 151.132 M312.400 149.310 C 312.400 149.690,316.053 155.200,316.305 155.200 C 316.498 155.200,316.035 154.445,313.734 151.005 C 313.000 149.908,312.400 149.145,312.400 149.310 M74.249 177.415 C 74.112 177.773,74.015 178.366,74.034 178.733 C 74.053 179.100,74.227 178.869,74.421 178.220 C 74.798 176.958,74.665 176.333,74.249 177.415 M73.354 180.977 C 73.232 181.294,73.203 181.879,73.289 182.277 C 73.387 182.728,73.524 182.512,73.654 181.700 C 73.871 180.338,73.730 179.996,73.354 180.977 M327.082 186.200 C 327.209 187.300,327.377 188.275,327.456 188.367 C 327.755 188.714,327.528 185.764,327.197 185.000 C 326.974 184.485,326.933 184.913,327.082 186.200 M72.501 187.000 C 72.505 187.880,72.587 188.193,72.683 187.695 C 72.779 187.198,72.775 186.478,72.675 186.095 C 72.575 185.713,72.496 186.120,72.501 187.000 M71.770 201.000 C 71.771 205.840,71.829 207.765,71.899 205.278 C 71.969 202.791,71.969 198.831,71.898 196.478 C 71.828 194.125,71.770 196.160,71.770 201.000 M328.170 200.800 C 328.170 205.530,328.228 207.465,328.298 205.100 C 328.369 202.735,328.369 198.865,328.298 196.500 C 328.228 194.135,328.170 196.070,328.170 200.800 M327.267 214.467 C 327.230 215.274,327.096 216.264,326.970 216.667 C 326.753 217.357,326.766 217.359,327.194 216.693 C 327.443 216.304,327.577 215.314,327.491 214.493 L 327.334 213.000 327.267 214.467 M72.428 214.833 C 72.444 215.585,72.612 216.560,72.803 217.000 C 73.026 217.515,73.067 217.087,72.918 215.800 C 72.644 213.422,72.389 212.919,72.428 214.833 M73.206 219.633 C 73.209 220.165,73.389 220.870,73.606 221.200 C 73.882 221.622,73.923 221.385,73.742 220.400 C 73.425 218.675,73.198 218.349,73.206 219.633 M326.454 219.467 C 326.425 219.944,326.296 220.664,326.170 221.067 C 325.952 221.761,325.964 221.762,326.396 221.088 C 326.647 220.697,326.775 219.977,326.681 219.488 C 326.509 218.601,326.509 218.601,326.454 219.467 M74.006 223.433 C 74.009 223.855,74.195 224.470,74.418 224.800 C 74.715 225.238,74.752 225.076,74.556 224.200 C 74.227 222.729,73.998 222.410,74.006 223.433 M74.806 227.033 C 74.809 227.455,74.995 228.070,75.218 228.400 C 75.515 228.838,75.552 228.676,75.356 227.800 C 75.027 226.329,74.798 226.010,74.806 227.033 M324.846 226.867 C 324.821 227.234,324.696 227.864,324.570 228.267 C 324.352 228.962,324.363 228.963,324.797 228.287 C 325.048 227.896,325.173 227.266,325.073 226.887 C 324.911 226.268,324.888 226.266,324.846 226.867 M84.015 251.400 C 84.017 251.620,84.386 252.250,84.836 252.800 C 85.379 253.464,85.515 253.531,85.240 253.000 C 84.566 251.695,84.012 250.972,84.015 251.400 M314.953 252.500 C 313.576 254.836,313.486 255.035,314.187 254.200 C 315.000 253.232,315.700 252.000,315.438 252.000 C 315.333 252.000,315.115 252.225,314.953 252.500 M311.008 258.442 C 310.201 259.565,309.732 260.365,309.966 260.221 C 310.452 259.920,312.932 256.400,312.657 256.400 C 312.557 256.400,311.815 257.319,311.008 258.442 M92.000 262.925 C 92.000 262.994,92.585 263.579,93.300 264.225 L 94.600 265.400 93.425 264.100 C 92.330 262.888,92.000 262.616,92.000 262.925 M306.575 264.100 L 305.400 265.400 306.700 264.225 C 307.415 263.579,308.000 262.994,308.000 262.925 C 308.000 262.616,307.670 262.888,306.575 264.100 M98.800 269.725 C 98.800 269.794,99.385 270.379,100.100 271.025 L 101.400 272.200 100.225 270.900 C 99.130 269.688,98.800 269.416,98.800 269.725 M299.775 270.900 L 298.600 272.200 299.900 271.025 C 300.615 270.379,301.200 269.794,301.200 269.725 C 301.200 269.416,300.870 269.688,299.775 270.900 M60.500 284.294 C 61.545 284.376,63.255 284.376,64.300 284.294 C 65.345 284.212,64.490 284.144,62.400 284.144 C 60.310 284.144,59.455 284.212,60.500 284.294 M52.159 286.162 C 52.041 286.471,52.007 287.326,52.083 288.062 C 52.206 289.235,52.247 289.166,52.415 287.500 C 52.611 285.552,52.539 285.174,52.159 286.162 M78.833 288.930 C 78.925 289.001,79.630 289.466,80.400 289.963 L 81.800 290.866 80.600 289.835 C 79.940 289.268,79.235 288.803,79.033 288.802 C 78.832 288.801,78.742 288.858,78.833 288.930 M54.402 292.538 C 55.791 294.066,58.851 296.400,59.465 296.400 C 59.641 296.400,59.069 295.926,58.193 295.346 C 57.317 294.767,55.791 293.552,54.802 292.646 L 53.004 291.000 54.402 292.538 M255.600 292.000 C 254.776 292.264,254.741 292.326,255.400 292.354 C 255.840 292.373,256.470 292.213,256.800 292.000 C 257.501 291.547,257.014 291.547,255.600 292.000 M146.800 292.794 C 147.130 293.011,147.835 293.191,148.367 293.194 C 149.651 293.202,149.325 292.975,147.600 292.658 C 146.615 292.477,146.378 292.518,146.800 292.794 M251.400 292.800 C 250.293 293.082,250.277 293.109,251.200 293.147 C 251.750 293.169,252.470 293.013,252.800 292.800 C 253.481 292.360,253.129 292.360,251.400 292.800 M151.400 293.597 C 152.164 293.928,155.114 294.155,154.767 293.856 C 154.675 293.777,153.700 293.609,152.600 293.482 C 151.313 293.333,150.885 293.374,151.400 293.597 M246.000 293.600 L 244.200 293.880 245.800 293.912 C 246.680 293.929,247.760 293.789,248.200 293.600 C 249.127 293.202,248.561 293.202,246.000 293.600 M86.425 295.031 C 87.181 295.928,87.881 296.597,87.980 296.517 C 88.079 296.438,87.460 295.704,86.605 294.887 L 85.050 293.400 86.425 295.031 M159.505 294.683 C 160.002 294.779,160.722 294.775,161.105 294.675 C 161.487 294.575,161.080 294.496,160.200 294.501 C 159.320 294.505,159.007 294.587,159.505 294.683 M63.446 298.464 C 64.081 298.940,65.601 300.245,66.824 301.364 C 68.048 302.484,67.719 302.095,66.094 300.500 C 64.469 298.905,62.949 297.600,62.716 297.600 C 62.483 297.600,62.811 297.989,63.446 298.464 M70.425 305.431 C 71.181 306.328,71.881 306.997,71.980 306.917 C 72.079 306.838,71.460 306.104,70.605 305.287 L 69.050 303.800 70.425 305.431 M96.669 309.942 C 96.776 310.351,98.064 311.837,99.532 313.243 L 102.200 315.800 99.700 313.189 C 98.325 311.753,97.200 310.369,97.200 310.113 C 97.200 309.857,97.037 309.546,96.837 309.423 C 96.638 309.300,96.562 309.534,96.669 309.942 M105.694 318.490 C 106.882 319.500,109.200 320.947,109.200 320.679 C 109.200 320.588,108.165 319.849,106.900 319.037 C 105.635 318.225,105.092 317.979,105.694 318.490 M249.348 321.600 C 249.348 323.910,249.414 324.855,249.495 323.700 C 249.576 322.545,249.576 320.655,249.495 319.500 C 249.414 318.345,249.348 319.290,249.348 321.600 M120.033 324.944 C 120.125 325.023,120.740 325.208,121.400 325.356 C 122.276 325.552,122.438 325.515,122.000 325.218 C 121.460 324.853,119.632 324.598,120.033 324.944 M134.800 325.218 C 134.362 325.515,134.524 325.552,135.400 325.356 C 136.871 325.027,137.190 324.798,136.167 324.806 C 135.745 324.809,135.130 324.995,134.800 325.218 M126.691 325.889 C 127.401 325.977,128.661 325.979,129.491 325.892 C 130.321 325.805,129.740 325.733,128.200 325.731 C 126.660 325.729,125.981 325.800,126.691 325.889 M249.772 341.600 C 249.772 346.770,249.829 348.885,249.899 346.300 C 249.968 343.715,249.968 339.485,249.899 336.900 C 249.829 334.315,249.772 336.430,249.772 341.600 M88.034 335.447 C 88.565 336.133,89.080 336.623,89.179 336.535 C 89.277 336.447,88.843 335.886,88.213 335.288 L 87.069 334.200 88.034 335.447 M124.715 354.472 C 125.092 354.621,127.740 354.729,130.600 354.712 C 136.700 354.675,135.861 354.477,128.915 354.314 C 126.228 354.251,124.338 354.322,124.715 354.472 M149.724 384.600 C 149.726 385.920,149.801 386.412,149.890 385.693 C 149.979 384.974,149.977 383.894,149.886 383.293 C 149.795 382.692,149.722 383.280,149.724 384.600 M250.124 384.600 C 250.126 385.920,250.201 386.412,250.290 385.693 C 250.379 384.974,250.377 383.894,250.286 383.293 C 250.195 382.692,250.122 383.280,250.124 384.600 " stroke="none" fill="#585858" fill-rule="evenodd"></path><path id="path4" d="M249.334 328.400 C 249.334 330.050,249.405 330.725,249.491 329.900 C 249.578 329.075,249.578 327.725,249.491 326.900 C 249.405 326.075,249.334 326.750,249.334 328.400 M249.748 354.800 C 249.748 357.110,249.814 358.055,249.895 356.900 C 249.976 355.745,249.976 353.855,249.895 352.700 C 249.814 351.545,249.748 352.490,249.748 354.800 M150.109 354.400 C 150.109 355.390,150.187 355.795,150.282 355.300 C 150.378 354.805,150.378 353.995,150.282 353.500 C 150.187 353.005,150.109 353.410,150.109 354.400 " stroke="none" fill="#747474" fill-rule="evenodd"></path></g></svg>