<svg id="svg" version="1.1" xmlns="http://www.w3.org/2000/svg" xmlns:xlink="http://www.w3.org/1999/xlink" width="400" height="400" viewBox="0, 0, 400,400"><g id="svgg"><path id="path0" d="M183.465 33.800 C 183.384 34.043,181.064 34.195,177.565 34.188 C 174.050 34.181,171.688 34.337,171.512 34.588 C 171.342 34.832,169.431 34.986,166.829 34.965 C 164.411 34.946,162.521 35.072,162.628 35.245 C 162.946 35.759,160.108 36.117,157.965 35.833 C 156.392 35.624,155.834 35.709,155.308 36.235 C 154.763 36.780,154.157 36.855,151.955 36.650 C 149.978 36.467,149.222 36.533,149.098 36.900 C 148.983 37.242,148.087 37.380,146.265 37.337 C 144.799 37.303,143.688 37.419,143.797 37.595 C 144.118 38.114,142.144 38.432,140.366 38.148 C 139.164 37.956,138.625 38.036,138.374 38.442 C 138.145 38.812,137.386 38.975,136.122 38.927 C 135.036 38.885,134.091 39.053,133.929 39.315 C 133.762 39.585,132.808 39.740,131.622 39.688 C 130.510 39.640,129.600 39.767,129.600 39.971 C 129.600 40.511,128.394 40.682,126.874 40.356 C 125.901 40.148,125.489 40.223,125.331 40.636 C 125.185 41.015,124.472 41.200,123.157 41.200 C 122.081 41.200,121.200 41.380,121.200 41.600 C 121.200 41.820,120.480 42.000,119.600 42.000 C 118.720 42.000,118.000 41.826,118.000 41.613 C 118.000 41.399,117.694 41.342,117.320 41.486 C 116.895 41.649,116.820 41.807,117.120 41.907 C 117.384 41.995,117.600 42.232,117.600 42.433 C 117.600 42.977,114.893 42.878,114.709 42.328 C 114.622 42.067,114.253 41.971,113.883 42.113 C 113.484 42.266,113.309 42.618,113.450 42.985 C 113.726 43.704,111.033 43.901,110.596 43.193 C 110.227 42.596,109.597 43.126,109.860 43.813 C 110.029 44.251,109.771 44.400,108.843 44.400 C 108.159 44.400,107.600 44.220,107.600 44.000 C 107.600 43.780,107.420 43.600,107.200 43.600 C 106.980 43.600,106.800 43.960,106.800 44.400 C 106.800 44.982,106.533 45.200,105.824 45.200 C 104.734 45.200,104.119 44.580,104.898 44.266 C 105.197 44.145,105.113 44.050,104.690 44.032 C 104.283 44.013,103.818 44.427,103.600 45.000 C 103.201 46.049,102.081 46.321,101.315 45.555 C 100.781 45.021,100.000 45.419,100.000 46.224 C 100.000 46.986,98.839 46.967,98.545 46.200 C 98.198 45.295,97.627 45.477,97.188 46.633 C 96.834 47.563,95.697 47.822,95.872 46.933 C 95.912 46.731,95.597 46.540,95.172 46.508 C 94.655 46.469,94.400 46.706,94.400 47.225 C 94.400 48.093,93.920 48.199,92.774 47.586 C 92.228 47.294,92.000 47.301,92.000 47.610 C 92.000 47.850,91.820 47.936,91.600 47.800 C 91.380 47.664,91.200 47.833,91.200 48.176 C 91.200 48.519,90.930 48.800,90.600 48.800 C 90.270 48.800,90.000 48.650,90.000 48.467 C 90.000 47.812,88.807 48.147,88.579 48.867 C 88.314 49.701,87.357 49.851,87.087 49.100 C 86.966 48.763,86.642 48.899,86.090 49.520 C 85.618 50.050,85.166 50.269,85.023 50.037 C 84.685 49.490,83.600 49.951,83.600 50.643 C 83.600 51.287,82.963 51.387,82.600 50.800 C 82.163 50.093,81.600 50.373,81.594 51.300 C 81.589 52.028,81.514 52.085,81.200 51.600 C 80.918 51.164,80.811 51.143,80.806 51.524 C 80.803 51.821,80.598 51.922,80.332 51.758 C 80.017 51.564,79.948 51.687,80.119 52.134 C 80.286 52.569,80.171 52.800,79.787 52.800 C 79.464 52.800,79.200 52.620,79.200 52.400 C 79.200 52.180,79.008 52.000,78.773 52.000 C 78.528 52.000,78.454 52.341,78.600 52.800 C 78.751 53.277,78.672 53.600,78.403 53.600 C 78.156 53.600,78.075 53.403,78.224 53.162 C 78.393 52.888,78.213 52.781,77.747 52.876 C 77.336 52.960,77.046 53.308,77.103 53.649 C 77.233 54.437,75.346 55.388,75.058 54.679 C 74.951 54.416,74.849 54.605,74.832 55.100 C 74.800 55.996,74.000 56.418,74.000 55.538 C 74.000 55.276,73.654 55.389,73.200 55.800 C 72.760 56.198,72.400 56.734,72.400 56.990 C 72.400 57.999,70.389 59.287,69.693 58.724 C 69.215 58.337,69.125 58.331,69.347 58.700 C 69.512 58.975,69.491 59.200,69.300 59.200 C 69.109 59.200,68.604 59.483,68.176 59.830 C 67.749 60.176,67.613 60.353,67.872 60.223 C 68.761 59.779,68.774 60.678,67.886 61.162 C 67.399 61.428,66.550 62.281,66.000 63.058 C 64.141 65.685,62.720 67.200,62.116 67.200 C 61.777 67.200,61.604 67.434,61.720 67.736 C 62.007 68.484,61.367 69.392,60.551 69.397 C 59.617 69.401,59.384 70.300,60.272 70.471 C 60.813 70.575,60.662 70.767,59.653 71.255 C 58.868 71.636,58.500 72.014,58.759 72.175 C 59.471 72.615,59.266 73.200,58.400 73.200 C 57.942 73.200,57.600 73.467,57.600 73.824 C 57.600 74.167,57.780 74.336,58.000 74.200 C 58.220 74.064,58.400 74.143,58.400 74.376 C 58.400 74.609,58.040 74.800,57.600 74.800 C 57.160 74.800,56.800 74.980,56.800 75.200 C 56.800 75.420,56.980 75.600,57.200 75.600 C 57.420 75.600,57.600 75.780,57.600 76.000 C 57.600 76.220,57.257 76.400,56.837 76.400 C 56.273 76.400,56.129 76.607,56.283 77.195 C 56.415 77.699,56.255 78.081,55.845 78.238 C 55.080 78.532,54.991 79.449,55.700 79.736 C 56.188 79.934,55.618 80.570,54.646 80.912 C 54.451 80.980,54.527 81.414,54.816 81.877 C 55.260 82.587,55.242 82.815,54.702 83.355 C 54.227 83.830,54.013 83.867,53.864 83.496 C 53.742 83.195,53.651 83.266,53.632 83.676 C 53.614 84.048,53.780 84.464,54.000 84.600 C 54.672 85.015,54.448 86.065,53.513 86.876 C 52.768 87.522,52.720 87.703,53.213 88.008 C 53.907 88.437,54.032 91.875,53.370 92.315 C 53.115 92.483,52.952 93.975,52.970 95.965 C 52.990 98.229,52.845 99.383,52.525 99.490 C 52.190 99.603,52.118 100.452,52.279 102.375 C 52.514 105.171,52.183 108.160,51.674 107.846 C 51.517 107.749,51.391 110.000,51.394 112.849 C 51.398 115.852,51.232 118.148,51.000 118.314 C 50.757 118.488,50.600 121.617,50.600 126.280 C 50.600 131.891,50.465 134.095,50.100 134.460 C 49.267 135.293,49.404 151.484,50.258 153.196 C 50.814 154.312,50.883 155.450,50.699 160.558 C 50.516 165.659,50.577 166.688,51.093 167.165 C 51.585 167.619,51.663 168.396,51.492 171.133 C 51.322 173.857,51.402 174.659,51.890 175.148 C 52.367 175.624,52.448 176.320,52.262 178.319 C 52.072 180.354,52.153 181.010,52.658 181.515 C 53.148 182.005,53.237 182.623,53.048 184.233 C 52.848 185.935,52.922 186.361,53.453 186.565 C 53.969 186.763,54.059 187.197,53.892 188.677 C 53.741 190.020,53.850 190.707,54.281 191.139 C 54.709 191.566,54.809 192.180,54.632 193.289 C 54.450 194.431,54.553 195.011,55.025 195.482 C 55.482 195.939,55.594 196.507,55.415 197.462 C 55.263 198.273,55.325 198.800,55.574 198.800 C 56.222 198.800,56.486 200.523,56.023 201.738 C 55.718 202.542,55.724 202.771,56.046 202.572 C 56.671 202.185,57.158 203.139,56.943 204.327 C 56.842 204.884,56.984 205.467,57.264 205.640 C 57.550 205.816,57.725 206.566,57.671 207.375 C 57.618 208.159,57.761 208.800,57.987 208.800 C 58.214 208.800,58.400 209.430,58.400 210.200 C 58.400 210.970,58.598 211.600,58.840 211.600 C 59.115 211.600,59.228 212.258,59.140 213.349 C 59.038 214.627,59.135 215.047,59.500 214.906 C 59.834 214.778,60.000 215.127,60.000 215.957 C 60.000 216.641,60.180 217.200,60.400 217.200 C 60.620 217.200,60.800 217.729,60.800 218.376 C 60.800 219.023,60.980 219.664,61.200 219.800 C 61.420 219.936,61.600 220.577,61.600 221.224 C 61.600 221.871,61.780 222.400,62.000 222.400 C 62.220 222.400,62.400 222.839,62.400 223.376 C 62.400 223.913,62.580 224.464,62.800 224.600 C 63.020 224.736,63.200 225.287,63.200 225.824 C 63.200 226.361,63.380 226.800,63.600 226.800 C 63.820 226.800,64.000 227.239,64.000 227.776 C 64.000 228.313,64.180 228.864,64.400 229.000 C 64.620 229.136,64.800 229.687,64.800 230.224 C 64.800 230.761,64.980 231.200,65.200 231.200 C 65.420 231.200,65.600 231.562,65.600 232.005 C 65.600 232.448,65.759 233.123,65.953 233.505 C 66.148 233.887,66.529 234.740,66.800 235.400 C 67.071 236.060,67.452 236.913,67.647 237.295 C 67.841 237.677,68.000 238.262,68.000 238.595 C 68.000 238.928,68.201 239.200,68.447 239.200 C 68.705 239.200,68.814 239.613,68.706 240.180 C 68.594 240.764,68.697 241.128,68.959 241.080 C 69.202 241.036,69.386 241.405,69.368 241.900 C 69.351 242.395,69.477 242.800,69.649 242.800 C 69.822 242.800,70.265 243.475,70.636 244.300 C 71.006 245.125,71.922 247.128,72.672 248.751 C 73.421 250.374,74.071 251.904,74.117 252.151 C 74.163 252.398,74.290 252.690,74.400 252.800 C 74.609 253.009,75.653 254.938,77.757 259.000 C 78.441 260.320,79.135 261.460,79.300 261.533 C 79.465 261.607,79.600 262.012,79.600 262.433 C 79.600 262.855,79.780 263.200,80.000 263.200 C 80.220 263.200,80.400 263.470,80.400 263.800 C 80.400 264.130,80.546 264.400,80.725 264.400 C 80.904 264.400,81.298 265.030,81.600 265.800 C 81.902 266.570,82.296 267.200,82.475 267.200 C 82.654 267.200,82.800 267.384,82.800 267.609 C 82.800 267.834,83.700 269.378,84.800 271.039 C 85.900 272.700,86.800 274.166,86.800 274.298 C 86.800 274.429,87.099 274.867,87.464 275.271 C 87.830 275.675,88.325 276.342,88.564 276.754 C 88.804 277.166,89.900 278.806,91.000 280.400 C 92.100 281.994,93.198 283.639,93.441 284.056 C 93.683 284.474,94.358 285.350,94.941 286.004 C 95.523 286.658,96.000 287.360,96.000 287.563 C 96.000 287.767,96.152 287.993,96.337 288.067 C 96.639 288.186,98.426 290.391,101.729 294.721 C 102.349 295.534,103.744 297.130,104.829 298.266 C 105.913 299.403,106.800 300.464,106.800 300.625 C 106.800 301.305,127.501 322.000,128.181 322.000 C 128.343 322.000,129.494 322.972,130.738 324.159 C 133.169 326.479,134.575 327.634,140.249 331.968 C 142.256 333.501,144.178 335.035,144.521 335.378 C 144.863 335.720,145.336 336.000,145.571 336.000 C 145.807 336.000,146.000 336.141,146.000 336.314 C 146.000 336.486,146.495 336.921,147.100 337.279 C 147.705 337.637,148.740 338.396,149.400 338.965 C 150.060 339.534,150.810 339.999,151.067 340.000 C 151.323 340.000,151.593 340.149,151.667 340.331 C 151.811 340.688,157.402 344.400,157.795 344.400 C 157.926 344.400,158.420 344.760,158.892 345.200 C 159.364 345.640,159.987 346.000,160.275 346.000 C 160.564 346.000,160.800 346.158,160.800 346.351 C 160.800 346.545,161.340 346.927,162.000 347.200 C 162.660 347.473,163.200 347.834,163.200 348.002 C 163.200 348.170,163.515 348.407,163.900 348.529 C 164.585 348.746,166.804 350.004,167.200 350.400 C 167.596 350.796,169.815 352.054,170.500 352.271 C 170.885 352.393,171.200 352.652,171.200 352.847 C 171.200 353.041,171.545 353.200,171.967 353.200 C 172.388 353.200,172.793 353.335,172.867 353.500 C 172.940 353.665,173.810 354.219,174.800 354.732 C 177.668 356.217,179.784 357.384,180.000 357.600 C 180.478 358.078,182.039 358.800,182.595 358.800 C 182.928 358.800,183.200 359.010,183.200 359.267 C 183.200 359.523,183.312 359.622,183.448 359.485 C 183.585 359.349,184.749 359.769,186.037 360.419 C 187.324 361.068,188.658 361.600,189.001 361.600 C 189.344 361.600,189.724 361.859,189.846 362.175 C 189.967 362.491,190.320 362.652,190.630 362.533 C 190.940 362.414,191.304 362.605,191.439 362.956 C 191.573 363.308,191.838 363.500,192.026 363.384 C 192.214 363.268,192.690 363.338,193.084 363.540 C 193.478 363.742,194.250 364.084,194.800 364.300 C 196.538 364.983,197.967 365.585,199.000 366.068 C 199.763 366.424,200.237 366.424,201.000 366.068 C 201.550 365.810,202.405 365.444,202.900 365.254 C 203.395 365.063,204.278 364.682,204.862 364.406 C 205.446 364.131,206.102 364.016,206.320 364.151 C 206.538 364.285,206.819 364.126,206.946 363.798 C 207.072 363.469,207.541 363.200,207.987 363.200 C 208.434 363.200,208.800 363.020,208.800 362.800 C 208.800 362.580,209.036 362.400,209.325 362.400 C 209.614 362.400,210.781 361.951,211.919 361.402 C 213.056 360.853,214.215 360.358,214.494 360.302 C 214.772 360.246,215.108 360.053,215.240 359.873 C 215.372 359.694,215.732 359.500,216.040 359.442 C 217.067 359.250,220.000 357.816,220.000 357.506 C 220.000 357.338,220.360 357.200,220.800 357.200 C 221.240 357.200,221.601 357.065,221.603 356.900 C 221.605 356.735,222.010 356.399,222.503 356.154 C 224.919 354.954,228.622 352.982,228.800 352.802 C 228.987 352.613,229.886 352.084,231.800 351.038 C 232.240 350.797,232.690 350.510,232.800 350.400 C 233.196 350.004,235.415 348.746,236.100 348.529 C 236.485 348.407,236.800 348.148,236.800 347.953 C 236.800 347.759,237.036 347.600,237.325 347.600 C 237.613 347.600,238.236 347.240,238.708 346.800 C 239.180 346.360,239.677 346.000,239.812 346.000 C 240.204 346.000,248.186 340.685,248.333 340.326 C 248.407 340.147,248.707 340.000,249.000 340.000 C 249.293 340.000,249.593 339.855,249.667 339.677 C 249.740 339.499,250.700 338.746,251.800 338.003 C 252.900 337.260,253.890 336.542,254.000 336.407 C 254.110 336.272,254.830 335.725,255.600 335.192 C 256.370 334.658,257.180 334.077,257.400 333.899 C 257.620 333.722,259.060 332.574,260.600 331.349 C 262.140 330.124,264.285 328.409,265.366 327.537 C 276.964 318.189,293.887 300.854,302.000 290.010 C 302.550 289.275,303.225 288.445,303.500 288.165 C 303.775 287.886,304.000 287.498,304.000 287.303 C 304.000 287.109,304.540 286.432,305.200 285.800 C 305.860 285.168,306.400 284.506,306.400 284.330 C 306.400 284.153,307.210 282.944,308.200 281.642 C 309.190 280.340,310.000 279.106,310.000 278.900 C 310.000 278.693,310.360 278.198,310.800 277.800 C 311.240 277.402,311.600 276.944,311.600 276.782 C 311.600 276.621,312.860 274.584,314.400 272.256 C 315.940 269.928,317.200 267.838,317.200 267.612 C 317.200 267.385,317.346 267.200,317.525 267.200 C 317.704 267.200,318.098 266.570,318.400 265.800 C 318.702 265.030,319.096 264.400,319.275 264.400 C 319.454 264.400,319.600 264.130,319.600 263.800 C 319.600 263.470,319.780 263.200,320.000 263.200 C 320.220 263.200,320.400 262.840,320.400 262.400 C 320.400 261.960,320.535 261.599,320.700 261.599 C 320.865 261.598,321.450 260.608,322.000 259.400 C 322.550 258.192,323.135 257.202,323.300 257.201 C 323.465 257.201,323.600 256.930,323.600 256.600 C 323.600 256.270,323.780 256.000,324.000 256.000 C 324.220 256.000,324.400 255.640,324.400 255.200 C 324.400 254.760,324.580 254.400,324.800 254.400 C 325.020 254.400,325.200 254.040,325.200 253.600 C 325.200 253.160,325.410 252.800,325.667 252.800 C 325.923 252.800,326.031 252.698,325.906 252.572 C 325.780 252.447,326.396 250.782,327.273 248.872 C 328.150 246.963,329.131 244.815,329.453 244.100 C 329.774 243.385,330.192 242.800,330.381 242.800 C 330.570 242.800,330.636 242.460,330.528 242.045 C 330.419 241.630,330.526 241.169,330.765 241.022 C 331.004 240.874,331.200 240.403,331.200 239.976 C 331.200 239.549,331.380 239.200,331.600 239.200 C 331.820 239.200,332.000 238.928,332.000 238.595 C 332.000 238.262,332.159 237.677,332.353 237.295 C 332.548 236.913,332.929 236.060,333.200 235.400 C 333.471 234.740,333.852 233.887,334.047 233.505 C 334.241 233.123,334.400 232.448,334.400 232.005 C 334.400 231.562,334.580 231.200,334.800 231.200 C 335.020 231.200,335.200 230.761,335.200 230.224 C 335.200 229.687,335.380 229.136,335.600 229.000 C 335.820 228.864,336.000 228.313,336.000 227.776 C 336.000 227.239,336.180 226.800,336.400 226.800 C 336.620 226.800,336.800 226.260,336.800 225.600 C 336.800 224.940,336.980 224.400,337.200 224.400 C 337.420 224.400,337.600 223.950,337.600 223.400 C 337.600 222.850,337.780 222.400,338.000 222.400 C 338.220 222.400,338.400 221.871,338.400 221.224 C 338.400 220.577,338.580 219.936,338.800 219.800 C 339.020 219.664,339.200 219.023,339.200 218.376 C 339.200 217.729,339.380 217.200,339.600 217.200 C 339.820 217.200,340.000 216.641,340.000 215.957 C 340.000 215.127,340.166 214.778,340.500 214.906 C 340.865 215.047,340.962 214.627,340.860 213.349 C 340.772 212.258,340.885 211.600,341.160 211.600 C 341.402 211.600,341.600 210.970,341.600 210.200 C 341.600 209.430,341.791 208.800,342.024 208.800 C 342.271 208.800,342.369 208.297,342.258 207.595 C 342.142 206.861,342.290 206.167,342.634 205.823 C 342.946 205.511,343.172 204.929,343.137 204.528 C 342.998 202.945,343.203 202.315,343.783 202.538 C 344.261 202.722,344.293 202.571,343.961 201.696 C 343.512 200.516,343.787 198.800,344.426 198.800 C 344.675 198.800,344.737 198.273,344.585 197.462 C 344.406 196.507,344.518 195.939,344.975 195.482 C 345.447 195.011,345.550 194.431,345.368 193.289 C 345.191 192.180,345.291 191.566,345.719 191.139 C 346.145 190.712,346.259 190.021,346.115 188.742 C 345.970 187.459,346.085 186.772,346.515 186.342 C 346.945 185.912,347.059 185.225,346.915 183.942 C 346.767 182.629,346.883 181.974,347.345 181.512 C 347.853 181.004,347.928 180.348,347.725 178.181 C 347.529 176.073,347.600 175.385,348.052 175.041 C 348.490 174.707,348.627 173.646,348.616 170.687 C 348.607 168.487,348.777 166.648,349.004 166.487 C 349.250 166.313,349.407 163.543,349.404 159.434 C 349.401 154.373,349.526 152.625,349.900 152.500 C 350.280 152.374,350.400 150.231,350.400 143.600 C 350.400 136.969,350.280 134.827,349.900 134.700 C 349.521 134.574,349.400 132.504,349.400 126.167 C 349.400 121.045,349.245 117.690,349.000 117.516 C 348.780 117.359,348.464 115.109,348.298 112.516 C 347.567 101.088,345.797 86.642,344.828 84.200 C 344.654 83.760,344.294 82.680,344.029 81.800 C 343.764 80.920,343.402 79.840,343.224 79.400 C 342.499 77.603,341.076 74.538,340.531 73.600 C 340.212 73.050,339.851 72.285,339.729 71.900 C 339.607 71.515,339.348 71.200,339.153 71.200 C 338.959 71.200,338.798 70.975,338.796 70.700 C 338.786 69.586,333.213 62.998,329.389 59.580 C 327.020 57.462,323.415 55.114,319.600 53.203 C 317.730 52.267,315.887 51.343,315.505 51.150 C 315.123 50.958,314.459 50.800,314.029 50.800 C 313.599 50.800,313.136 50.620,313.000 50.400 C 312.864 50.180,312.324 50.000,311.800 50.000 C 311.276 50.000,310.736 49.820,310.600 49.600 C 310.464 49.380,309.834 49.200,309.200 49.200 C 308.566 49.200,307.936 49.020,307.800 48.800 C 307.664 48.580,307.171 48.400,306.705 48.400 C 305.804 48.400,303.461 47.735,302.305 47.151 C 301.923 46.958,301.079 46.800,300.429 46.800 C 299.779 46.800,299.136 46.620,299.000 46.400 C 298.864 46.180,298.133 46.000,297.376 46.000 C 296.619 46.000,296.000 45.820,296.000 45.600 C 296.000 45.380,295.280 45.200,294.400 45.200 C 293.520 45.200,292.800 45.025,292.800 44.812 C 292.800 44.599,292.135 44.449,291.323 44.480 C 290.504 44.511,289.776 44.327,289.689 44.068 C 289.602 43.805,288.759 43.600,287.767 43.600 C 286.795 43.600,286.000 43.461,286.000 43.291 C 286.000 43.121,285.291 42.982,284.424 42.982 C 282.630 42.982,281.947 42.546,282.812 41.952 C 283.390 41.554,283.030 41.607,280.680 42.265 C 280.285 42.376,279.552 42.198,279.052 41.871 C 278.552 41.543,277.469 41.294,276.644 41.318 C 275.820 41.341,275.023 41.169,274.873 40.935 C 274.723 40.701,273.739 40.530,272.686 40.555 C 271.511 40.582,270.648 40.401,270.452 40.085 C 270.232 39.728,269.642 39.648,268.536 39.825 C 267.324 40.018,266.775 39.918,266.266 39.409 C 265.798 38.941,265.248 38.814,264.449 38.989 C 263.090 39.288,261.110 38.869,261.431 38.351 C 261.562 38.137,260.763 38.091,259.503 38.240 C 257.790 38.441,257.213 38.356,256.684 37.827 C 256.190 37.333,255.652 37.229,254.609 37.425 C 252.915 37.742,250.282 37.314,250.616 36.774 C 250.765 36.533,249.830 36.485,248.106 36.645 C 245.843 36.855,245.240 36.783,244.692 36.235 C 244.166 35.709,243.608 35.624,242.035 35.833 C 239.931 36.112,237.052 35.762,237.360 35.265 C 237.460 35.102,235.570 34.977,233.159 34.985 C 229.980 34.996,228.686 34.857,228.451 34.480 C 228.274 34.194,227.784 33.992,227.364 34.031 C 224.500 34.299,216.723 34.134,216.485 33.800 C 216.303 33.545,210.310 33.400,199.900 33.400 C 189.390 33.400,183.552 33.542,183.465 33.800 M214.600 58.453 C 227.611 58.976,233.520 59.513,249.000 61.580 C 253.211 62.143,256.458 62.628,259.400 63.134 C 266.800 64.407,271.554 65.298,276.009 66.245 C 278.754 66.828,281.720 67.452,282.600 67.631 C 283.480 67.810,284.920 68.128,285.800 68.339 C 286.680 68.549,288.300 68.928,289.400 69.180 C 290.500 69.433,292.030 69.802,292.800 70.001 C 294.204 70.364,295.844 70.777,299.200 71.611 C 300.190 71.857,301.587 72.155,302.304 72.273 C 303.021 72.392,303.706 72.649,303.827 72.844 C 303.948 73.040,304.489 73.200,305.029 73.200 C 305.569 73.200,306.323 73.359,306.705 73.553 C 307.087 73.748,307.940 74.147,308.600 74.441 C 316.275 77.859,322.062 86.602,323.004 96.200 C 324.585 112.309,324.934 120.420,324.931 141.000 C 324.928 159.824,324.753 164.161,323.614 173.800 C 322.716 181.401,321.286 189.612,319.454 197.700 C 318.139 203.503,315.414 213.266,314.766 214.495 C 314.565 214.877,314.400 215.541,314.400 215.971 C 314.400 216.401,314.220 216.864,314.000 217.000 C 313.780 217.136,313.600 217.651,313.600 218.144 C 313.600 218.637,313.457 219.211,313.282 219.420 C 313.107 219.629,312.735 220.520,312.455 221.400 C 312.176 222.280,311.755 223.450,311.520 224.000 C 311.285 224.550,310.916 225.450,310.700 226.000 C 310.484 226.550,310.148 227.313,309.953 227.695 C 309.759 228.077,309.600 228.662,309.600 228.995 C 309.600 229.328,309.420 229.600,309.200 229.600 C 308.980 229.600,308.800 229.872,308.800 230.205 C 308.800 230.538,308.640 231.123,308.444 231.505 C 308.248 231.887,307.726 233.010,307.283 234.000 C 303.591 242.265,297.918 253.129,295.553 256.462 C 295.139 257.046,294.800 257.636,294.800 257.774 C 294.800 258.817,279.549 279.827,277.214 282.000 C 277.096 282.110,275.834 283.550,274.410 285.200 C 271.028 289.120,260.215 299.952,256.415 303.227 C 254.774 304.642,253.041 306.160,252.565 306.600 C 251.570 307.521,250.896 308.072,248.400 310.006 C 247.410 310.772,246.510 311.501,246.400 311.625 C 245.073 313.122,226.446 326.000,225.610 326.000 C 225.384 326.000,225.200 326.180,225.200 326.400 C 225.200 326.620,225.003 326.800,224.762 326.800 C 224.521 326.800,223.846 327.139,223.262 327.553 C 222.678 327.967,221.525 328.687,220.700 329.153 C 219.875 329.619,218.525 330.387,217.700 330.861 C 216.875 331.334,213.140 333.237,209.400 335.090 C 205.660 336.943,202.287 338.626,201.905 338.830 C 200.079 339.803,193.474 336.974,182.200 330.389 C 180.220 329.232,177.925 327.918,177.100 327.469 C 176.275 327.019,175.600 326.505,175.600 326.326 C 175.600 326.147,175.412 326.000,175.182 326.000 C 174.952 326.000,173.462 325.145,171.871 324.100 C 170.279 323.055,168.686 322.020,168.329 321.800 C 167.056 321.014,158.697 315.131,158.400 314.813 C 158.290 314.695,157.120 313.788,155.800 312.799 C 154.480 311.810,153.198 310.811,152.951 310.579 C 152.703 310.348,151.737 309.538,150.804 308.779 C 149.870 308.021,148.902 307.220,148.653 307.000 C 148.404 306.780,147.034 305.610,145.608 304.400 C 137.434 297.462,126.387 286.052,119.889 277.835 C 118.829 276.496,117.744 275.130,117.477 274.800 C 115.746 272.664,113.030 268.943,111.199 266.200 C 110.025 264.440,108.960 262.910,108.832 262.800 C 108.704 262.690,108.344 262.105,108.032 261.500 C 107.720 260.895,107.315 260.400,107.132 260.400 C 106.950 260.400,106.800 260.210,106.800 259.978 C 106.800 259.746,106.080 258.496,105.200 257.200 C 104.320 255.904,103.600 254.762,103.600 254.663 C 103.600 254.563,102.876 253.290,101.991 251.833 C 101.106 250.377,98.839 246.083,96.953 242.292 C 95.067 238.502,93.361 235.087,93.162 234.705 C 92.963 234.323,92.800 233.738,92.800 233.405 C 92.800 233.072,92.620 232.800,92.400 232.800 C 92.180 232.800,92.000 232.528,92.000 232.195 C 92.000 231.862,91.843 231.277,91.650 230.895 C 90.149 227.916,89.600 226.646,89.600 226.157 C 89.600 225.845,89.441 225.277,89.247 224.895 C 89.052 224.513,88.716 223.750,88.500 223.200 C 87.811 221.446,87.117 219.821,86.753 219.105 C 86.559 218.723,86.400 218.084,86.400 217.685 C 86.400 217.286,86.251 216.789,86.070 216.580 C 85.888 216.371,85.507 215.390,85.223 214.400 C 84.939 213.410,84.557 212.150,84.374 211.600 C 83.301 208.375,80.815 198.882,80.027 195.000 C 79.759 193.680,79.383 191.970,79.191 191.200 C 78.999 190.430,78.724 189.080,78.580 188.200 C 78.436 187.320,78.150 185.610,77.943 184.400 C 75.519 170.177,75.074 163.484,75.061 141.000 C 75.049 120.129,75.548 109.210,77.160 95.000 C 77.783 89.509,78.452 87.507,81.033 83.400 C 83.214 79.930,87.601 76.139,91.400 74.443 C 92.060 74.148,92.913 73.748,93.295 73.553 C 93.677 73.359,94.431 73.200,94.971 73.200 C 95.511 73.200,96.064 73.020,96.200 72.800 C 96.336 72.580,97.056 72.400,97.800 72.400 C 98.544 72.400,99.252 72.240,99.373 72.044 C 99.494 71.849,100.179 71.592,100.896 71.473 C 102.107 71.273,103.499 70.949,107.300 69.982 C 110.665 69.125,115.006 68.118,117.600 67.592 C 118.590 67.391,120.660 66.947,122.200 66.606 C 124.684 66.057,129.153 65.199,136.000 63.959 C 141.041 63.045,146.906 62.111,151.000 61.570 C 152.760 61.337,155.460 60.980,157.000 60.775 C 166.333 59.535,174.362 58.898,186.800 58.411 C 192.630 58.183,197.580 57.911,197.800 57.807 C 198.020 57.703,199.820 57.722,201.800 57.850 C 203.780 57.978,209.540 58.249,214.600 58.453 M193.760 89.747 C 190.702 92.908,186.940 97.069,185.400 98.994 C 183.860 100.919,182.420 102.703,182.200 102.957 C 181.154 104.167,179.182 106.844,177.601 109.200 C 176.641 110.630,175.708 111.860,175.528 111.933 C 175.347 112.007,175.200 112.322,175.200 112.633 C 175.200 112.945,175.020 113.200,174.800 113.200 C 174.580 113.200,174.400 113.470,174.400 113.800 C 174.400 114.130,174.220 114.400,174.000 114.400 C 173.780 114.400,173.600 114.593,173.600 114.828 C 173.600 115.063,173.089 116.008,172.465 116.928 C 169.014 122.014,162.814 134.187,159.900 141.600 C 159.684 142.150,159.348 142.913,159.153 143.295 C 158.959 143.677,158.800 144.352,158.800 144.795 C 158.800 145.238,158.620 145.600,158.400 145.600 C 158.180 145.600,158.000 146.039,158.000 146.576 C 158.000 147.113,157.820 147.664,157.600 147.800 C 157.380 147.936,157.200 148.476,157.200 149.000 C 157.200 149.524,157.041 150.051,156.846 150.171 C 156.651 150.292,156.396 150.887,156.279 151.495 C 156.162 152.103,155.881 153.230,155.655 154.000 C 154.155 159.118,153.852 160.425,152.592 167.200 C 149.004 186.489,150.275 213.089,155.234 222.495 C 155.435 222.877,155.600 223.464,155.600 223.800 C 155.600 224.136,155.759 224.723,155.953 225.105 C 156.361 225.907,157.176 227.838,157.597 229.000 C 157.756 229.440,158.272 230.582,158.743 231.538 C 159.214 232.494,159.600 233.514,159.600 233.804 C 159.600 234.095,159.736 234.393,159.902 234.467 C 160.068 234.540,160.832 235.860,161.600 237.400 C 164.167 242.544,170.528 252.481,172.697 254.735 C 172.981 255.029,173.704 255.923,174.306 256.721 C 178.585 262.400,191.756 275.300,191.934 273.986 C 192.007 273.444,192.232 272.829,192.434 272.620 C 192.635 272.411,192.800 271.837,192.800 271.344 C 192.800 270.851,192.980 270.336,193.200 270.200 C 193.420 270.064,193.600 269.524,193.600 269.000 C 193.600 268.476,193.780 267.936,194.000 267.800 C 194.220 267.664,194.400 267.124,194.400 266.600 C 194.400 266.076,194.580 265.536,194.800 265.400 C 195.020 265.264,195.200 264.724,195.200 264.200 C 195.200 263.676,195.380 263.136,195.600 263.000 C 195.820 262.864,196.000 262.324,196.000 261.800 C 196.000 261.276,196.180 260.736,196.400 260.600 C 196.620 260.464,196.800 259.943,196.800 259.443 C 196.800 258.943,196.929 258.404,197.087 258.247 C 197.244 258.089,197.853 256.484,198.439 254.680 C 199.025 252.876,199.727 251.400,199.999 251.400 C 200.291 251.400,202.019 256.033,204.234 262.754 C 206.292 268.999,208.060 274.194,208.164 274.298 C 208.583 274.717,222.233 260.979,224.755 257.600 C 225.330 256.830,226.040 255.948,226.332 255.639 C 227.789 254.104,233.851 245.302,235.685 242.059 C 237.718 238.462,241.200 231.450,241.200 230.950 C 241.200 230.648,241.380 230.400,241.600 230.400 C 241.820 230.400,242.000 230.128,242.000 229.795 C 242.000 229.462,242.180 228.832,242.400 228.395 C 242.620 227.958,242.980 227.242,243.200 226.805 C 243.420 226.368,243.600 225.684,243.600 225.285 C 243.600 224.886,243.749 224.389,243.930 224.180 C 244.112 223.971,244.493 222.990,244.776 222.000 C 245.059 221.010,245.437 219.840,245.615 219.400 C 245.794 218.960,246.035 218.150,246.150 217.600 C 246.266 217.050,246.728 214.980,247.177 213.000 C 250.319 199.143,250.221 180.973,246.920 165.600 C 246.566 163.950,246.195 161.924,246.096 161.097 C 245.997 160.271,245.755 159.495,245.558 159.374 C 245.361 159.252,245.200 158.621,245.200 157.971 C 245.200 157.321,245.038 156.477,244.839 156.095 C 244.640 155.713,244.263 154.590,244.000 153.600 C 243.737 152.610,243.360 151.487,243.161 151.105 C 242.962 150.723,242.800 150.059,242.800 149.629 C 242.800 149.199,242.620 148.736,242.400 148.600 C 242.180 148.464,242.000 148.001,242.000 147.571 C 242.000 147.141,241.841 146.477,241.647 146.095 C 241.173 145.163,240.583 143.697,239.999 142.000 C 238.757 138.388,232.264 125.115,229.457 120.449 C 228.216 118.386,227.200 116.541,227.200 116.349 C 227.200 116.157,227.020 116.000,226.800 116.000 C 226.580 116.000,226.400 115.730,226.400 115.400 C 226.400 115.070,226.264 114.800,226.098 114.800 C 225.931 114.800,225.571 114.294,225.297 113.675 C 225.024 113.056,224.476 112.201,224.080 111.775 C 223.685 111.349,222.573 109.830,221.611 108.400 C 220.648 106.970,219.756 105.710,219.628 105.600 C 219.500 105.490,218.860 104.680,218.205 103.800 C 213.251 97.143,201.027 84.000,199.789 84.000 C 199.531 84.000,196.818 86.586,193.760 89.747 " stroke="none" fill="#56b05c" fill-rule="evenodd"></path><path id="path1" d="M199.429 251.667 C 198.134 255.698,197.497 257.519,197.181 258.095 C 196.971 258.477,196.800 259.141,196.800 259.571 C 196.800 260.001,196.620 260.464,196.400 260.600 C 196.180 260.736,196.000 261.276,196.000 261.800 C 196.000 262.324,195.820 262.864,195.600 263.000 C 195.380 263.136,195.200 263.676,195.200 264.200 C 195.200 264.724,195.020 265.264,194.800 265.400 C 194.580 265.536,194.400 266.076,194.400 266.600 C 194.400 267.124,194.220 267.664,194.000 267.800 C 193.780 267.936,193.600 268.476,193.600 269.000 C 193.600 269.524,193.420 270.064,193.200 270.200 C 192.980 270.336,192.800 270.851,192.800 271.344 C 192.800 271.837,192.575 272.465,192.300 272.740 C 191.920 273.119,191.800 276.428,191.800 286.520 L 191.800 299.800 200.000 299.800 L 208.200 299.800 208.186 287.000 L 208.173 274.200 204.338 262.817 C 200.799 252.312,199.887 250.240,199.429 251.667 " stroke="none" fill="#d9e8c8" fill-rule="evenodd"></path><path id="path2" d="M301.200 46.025 C 301.200 46.231,301.560 46.400,302.000 46.400 C 302.440 46.400,302.800 46.258,302.800 46.085 C 302.800 45.912,302.440 45.743,302.000 45.710 C 301.560 45.677,301.200 45.819,301.200 46.025 M304.000 46.800 C 304.000 47.020,304.461 47.200,305.024 47.200 C 305.604 47.200,305.940 47.027,305.800 46.800 C 305.664 46.580,305.203 46.400,304.776 46.400 C 304.349 46.400,304.000 46.580,304.000 46.800 M306.800 47.600 C 306.800 47.820,307.149 48.000,307.576 48.000 C 308.003 48.000,308.464 47.820,308.600 47.600 C 308.740 47.373,308.404 47.200,307.824 47.200 C 307.261 47.200,306.800 47.380,306.800 47.600 M309.600 48.400 C 309.600 48.620,309.960 48.800,310.400 48.800 C 310.840 48.800,311.200 48.620,311.200 48.400 C 311.200 48.180,310.840 48.000,310.400 48.000 C 309.960 48.000,309.600 48.180,309.600 48.400 M312.400 49.204 C 312.400 49.422,312.850 49.600,313.400 49.600 C 313.950 49.600,314.400 49.459,314.400 49.287 C 314.400 49.115,313.950 48.937,313.400 48.892 C 312.850 48.846,312.400 48.987,312.400 49.204 M314.800 50.000 C 314.800 50.220,315.250 50.400,315.800 50.400 C 316.350 50.400,316.800 50.580,316.800 50.800 C 316.800 51.020,317.160 51.200,317.600 51.200 C 318.040 51.200,318.400 51.380,318.400 51.600 C 318.400 51.820,318.760 52.000,319.200 52.000 C 319.640 52.000,320.000 51.820,320.000 51.600 C 320.000 51.380,319.640 51.200,319.200 51.200 C 318.760 51.200,318.400 51.020,318.400 50.800 C 318.400 50.580,318.051 50.400,317.624 50.400 C 317.197 50.400,316.736 50.220,316.600 50.000 C 316.464 49.780,316.003 49.600,315.576 49.600 C 315.149 49.600,314.800 49.780,314.800 50.000 M320.400 52.400 C 320.400 52.620,320.670 52.800,321.000 52.800 C 321.330 52.800,321.600 52.980,321.600 53.200 C 321.600 53.420,321.870 53.600,322.200 53.600 C 322.530 53.600,322.800 53.780,322.800 54.000 C 322.800 54.220,323.120 54.400,323.512 54.400 C 323.903 54.400,324.483 54.760,324.800 55.200 C 325.117 55.640,325.625 56.000,325.928 56.000 C 326.231 56.000,326.983 56.540,327.600 57.200 C 328.217 57.860,328.903 58.400,329.125 58.400 C 329.686 58.400,335.395 64.310,336.684 66.225 C 337.267 67.091,337.891 67.860,338.072 67.933 C 338.252 68.007,338.400 68.322,338.400 68.633 C 338.400 68.945,338.580 69.200,338.800 69.200 C 339.020 69.200,339.200 69.470,339.200 69.800 C 339.200 70.130,339.346 70.400,339.525 70.400 C 339.704 70.400,340.098 71.030,340.400 71.800 C 340.702 72.570,341.096 73.200,341.275 73.200 C 341.454 73.200,341.600 73.560,341.600 74.000 C 341.600 74.440,341.780 74.800,342.000 74.800 C 342.220 74.800,342.400 75.072,342.400 75.405 C 342.400 75.738,342.559 76.323,342.753 76.705 C 342.948 77.087,343.308 77.895,343.553 78.500 C 343.799 79.105,344.170 80.005,344.378 80.500 C 345.086 82.182,346.375 88.187,346.805 91.800 C 347.040 93.780,347.405 96.030,347.614 96.800 C 347.824 97.570,347.997 99.246,347.998 100.524 C 347.999 101.970,348.151 102.754,348.400 102.600 C 348.910 102.285,348.930 94.291,348.422 93.780 C 348.215 93.571,348.009 92.011,347.964 90.312 C 347.920 88.614,347.730 87.320,347.542 87.436 C 347.354 87.552,347.200 86.827,347.200 85.824 C 347.200 84.821,347.020 84.000,346.800 84.000 C 346.580 84.000,346.400 83.460,346.400 82.800 C 346.400 82.140,346.220 81.600,346.000 81.600 C 345.780 81.600,345.600 81.060,345.600 80.400 C 345.600 79.740,345.420 79.200,345.200 79.200 C 344.980 79.200,344.800 78.750,344.800 78.200 C 344.800 77.650,344.620 77.200,344.400 77.200 C 344.180 77.200,344.000 76.840,344.000 76.400 C 344.000 75.960,343.820 75.600,343.600 75.600 C 343.380 75.600,343.200 75.240,343.200 74.800 C 343.200 74.360,343.020 74.000,342.800 74.000 C 342.580 74.000,342.400 73.640,342.400 73.200 C 342.400 72.760,342.220 72.400,342.000 72.400 C 341.780 72.400,341.600 72.111,341.600 71.758 C 341.600 71.405,341.150 70.581,340.600 69.927 C 340.050 69.273,339.600 68.482,339.600 68.169 C 339.600 67.856,339.432 67.600,339.227 67.600 C 339.022 67.600,338.740 67.240,338.600 66.801 C 338.179 65.472,328.358 56.000,327.402 56.000 C 327.168 56.000,326.717 55.640,326.400 55.200 C 326.083 54.760,325.503 54.400,325.112 54.400 C 324.720 54.400,324.400 54.220,324.400 54.000 C 324.400 53.780,324.130 53.600,323.800 53.600 C 323.470 53.600,323.200 53.420,323.200 53.200 C 323.200 52.980,322.930 52.800,322.600 52.800 C 322.270 52.800,322.000 52.620,322.000 52.400 C 322.000 52.180,321.640 52.000,321.200 52.000 C 320.760 52.000,320.400 52.180,320.400 52.400 M189.000 58.857 C 179.994 59.097,175.798 59.371,165.637 60.380 C 157.039 61.233,144.513 63.000,137.000 64.418 C 134.580 64.875,131.610 65.414,130.400 65.615 C 129.190 65.817,126.580 66.329,124.600 66.753 C 122.620 67.177,120.370 67.643,119.600 67.790 C 118.053 68.084,112.191 69.433,110.000 70.000 C 109.230 70.199,108.150 70.446,107.600 70.548 C 107.050 70.650,105.160 71.124,103.400 71.600 C 101.640 72.076,99.750 72.558,99.200 72.670 C 88.632 74.829,81.187 81.106,78.642 90.000 C 77.031 95.632,75.200 123.787,75.200 142.942 C 75.200 166.077,78.106 188.102,83.626 206.800 C 84.308 209.110,85.010 211.540,85.185 212.200 C 85.585 213.699,86.728 217.137,87.181 218.200 C 87.369 218.640,87.914 220.080,88.393 221.400 C 88.872 222.720,89.430 224.113,89.632 224.495 C 89.834 224.877,90.000 225.366,90.000 225.583 C 90.000 225.799,90.429 226.927,90.954 228.088 C 91.478 229.250,92.491 231.550,93.203 233.200 C 95.510 238.541,102.291 251.600,104.014 254.020 C 104.446 254.627,104.800 255.235,104.800 255.371 C 104.800 255.779,112.719 267.512,115.715 271.545 C 124.137 282.878,135.661 295.126,147.200 305.006 C 156.982 313.382,170.584 323.065,180.700 328.856 C 183.151 330.259,184.802 331.201,186.300 332.052 C 189.537 333.891,199.597 338.800,200.128 338.800 C 200.882 338.800,214.880 331.821,219.400 329.191 C 221.380 328.040,223.586 326.763,224.302 326.354 C 228.057 324.212,244.866 312.475,246.000 311.203 C 246.110 311.080,247.010 310.354,248.000 309.590 C 255.598 303.724,268.055 291.703,275.555 283.000 C 281.204 276.444,293.600 259.686,293.600 258.604 C 293.600 258.461,294.140 257.559,294.800 256.600 C 295.460 255.641,296.000 254.736,296.000 254.590 C 296.000 254.443,296.333 253.846,296.740 253.262 C 298.623 250.562,307.600 232.821,307.600 231.800 C 307.600 231.701,308.115 230.491,308.744 229.110 C 309.373 227.730,310.130 225.880,310.427 225.000 C 310.724 224.120,311.077 223.220,311.211 223.000 C 311.346 222.780,311.700 221.790,311.998 220.800 C 312.295 219.810,312.688 218.829,312.870 218.620 C 313.051 218.411,313.200 217.914,313.200 217.515 C 313.200 217.116,313.372 216.477,313.583 216.095 C 314.639 214.181,318.379 200.233,320.151 191.600 C 325.363 166.210,326.213 133.615,322.580 98.400 C 321.275 85.746,315.555 77.118,306.611 74.313 C 303.371 73.297,296.108 71.369,291.800 70.380 C 290.700 70.128,289.080 69.749,288.200 69.539 C 286.256 69.074,283.779 68.521,281.500 68.044 C 280.565 67.848,278.810 67.468,277.600 67.200 C 267.598 64.983,251.396 62.318,240.200 61.047 C 220.893 58.856,208.633 58.332,189.000 58.857 M205.047 87.924 C 210.898 93.705,217.859 101.939,222.017 107.997 C 222.998 109.426,224.074 110.901,224.408 111.274 C 225.676 112.691,232.084 123.679,234.883 129.236 C 237.454 134.340,238.335 136.247,239.578 139.400 C 239.751 139.840,240.080 140.650,240.309 141.200 C 248.767 161.517,252.363 190.578,248.672 208.800 C 248.561 209.350,248.250 210.880,247.982 212.200 C 243.621 233.644,230.337 255.341,210.689 273.108 L 208.800 274.816 208.800 287.365 C 208.800 298.439,208.726 299.943,208.167 300.157 C 207.342 300.474,192.658 300.474,191.833 300.157 C 191.275 299.943,191.200 298.459,191.200 287.583 L 191.200 275.252 184.478 268.526 C 177.291 261.336,174.959 258.721,171.076 253.503 C 168.477 250.010,164.000 243.334,164.000 242.951 C 164.000 242.826,163.665 242.246,163.254 241.662 C 162.469 240.544,159.302 234.381,158.289 232.000 C 157.961 231.230,157.326 229.776,156.877 228.768 C 154.757 224.014,152.136 214.894,151.194 209.000 C 150.948 207.460,150.579 205.225,150.374 204.033 C 149.887 201.211,149.889 181.139,150.377 177.677 C 150.584 176.205,150.966 173.470,151.226 171.600 C 151.933 166.509,153.144 160.933,155.179 153.400 C 155.656 151.636,157.565 145.957,158.070 144.800 C 158.587 143.618,159.193 142.112,159.600 141.000 C 161.931 134.634,168.376 122.011,172.346 116.033 C 173.256 114.664,174.000 113.410,174.000 113.247 C 174.000 113.084,174.325 112.602,174.721 112.175 C 175.118 111.749,176.372 110.050,177.509 108.400 C 184.559 98.166,198.708 82.693,200.255 83.524 C 200.665 83.745,202.821 85.724,205.047 87.924 M348.800 108.424 C 348.800 109.937,348.950 110.754,349.200 110.600 C 349.420 110.464,349.600 109.373,349.600 108.176 C 349.600 106.979,349.420 106.000,349.200 106.000 C 348.977 106.000,348.800 107.075,348.800 108.424 M49.679 120.400 C 49.628 121.060,49.770 121.600,49.994 121.600 C 50.217 121.600,50.400 121.060,50.400 120.400 C 50.400 119.740,50.258 119.200,50.085 119.200 C 49.912 119.200,49.729 119.740,49.679 120.400 " stroke="none" fill="#5c4434" fill-rule="evenodd"></path><path id="path3" d="M187.200 32.748 C 187.200 33.544,208.005 34.059,211.550 33.350 C 214.949 32.670,211.665 32.400,200.000 32.400 C 192.960 32.400,187.200 32.556,187.200 32.748 M173.426 33.558 C 173.047 34.172,174.332 34.400,178.133 34.395 C 181.989 34.389,183.600 34.141,183.600 33.553 C 183.600 33.089,173.713 33.093,173.426 33.558 M216.400 33.553 C 216.400 34.321,224.445 34.818,226.167 34.157 C 227.842 33.515,226.341 33.200,221.600 33.200 C 218.740 33.200,216.400 33.359,216.400 33.553 M163.828 34.355 C 163.519 34.855,165.028 35.189,167.600 35.189 C 170.091 35.189,171.600 34.874,171.600 34.353 C 171.600 33.891,164.114 33.892,163.828 34.355 M228.400 34.353 C 228.400 34.888,229.926 35.188,232.667 35.195 C 235.346 35.200,236.521 34.920,236.174 34.358 C 235.887 33.893,228.400 33.889,228.400 34.353 M156.628 35.155 C 156.355 35.596,157.754 35.989,159.600 35.989 C 160.370 35.989,161.403 35.881,161.896 35.749 C 163.571 35.300,162.361 34.800,159.600 34.800 C 158.086 34.800,156.749 34.960,156.628 35.155 M237.428 35.155 C 237.155 35.596,238.554 35.989,240.400 35.989 C 241.170 35.989,242.203 35.881,242.696 35.749 C 244.371 35.300,243.161 34.800,240.400 34.800 C 238.886 34.800,237.549 34.960,237.428 35.155 M150.228 35.955 C 149.964 36.382,151.331 36.787,153.067 36.795 C 154.560 36.801,155.600 36.457,155.600 35.957 C 155.600 35.492,150.515 35.490,150.228 35.955 M244.400 35.957 C 244.400 36.714,247.498 37.121,248.967 36.557 C 250.347 36.028,249.469 35.600,247.000 35.600 C 245.570 35.600,244.400 35.761,244.400 35.957 M144.400 36.768 C 144.400 37.313,146.621 37.703,148.000 37.400 C 150.011 36.958,149.341 36.400,146.800 36.400 C 145.480 36.400,144.400 36.566,144.400 36.768 M250.628 36.755 C 250.216 37.421,253.582 37.889,254.967 37.357 C 255.315 37.224,255.600 36.954,255.600 36.757 C 255.600 36.293,250.915 36.290,250.628 36.755 M139.427 37.556 C 139.128 38.041,141.709 38.488,142.973 38.171 C 143.535 38.030,143.895 37.754,143.774 37.557 C 143.486 37.093,139.714 37.092,139.427 37.556 M256.400 37.592 C 256.400 37.808,256.851 38.098,257.403 38.236 C 258.684 38.558,261.296 38.079,260.988 37.580 C 260.676 37.076,256.400 37.088,256.400 37.592 M134.630 38.351 C 134.348 38.807,136.429 39.222,137.541 38.931 C 138.013 38.808,138.400 38.548,138.400 38.353 C 138.400 37.894,134.914 37.892,134.630 38.351 M261.420 38.367 C 261.121 38.852,263.358 39.331,264.391 39.003 C 264.836 38.862,265.200 38.578,265.200 38.373 C 265.200 37.890,261.719 37.885,261.420 38.367 M130.228 39.155 C 129.971 39.571,132.226 39.971,133.278 39.696 C 133.675 39.592,134.000 39.348,134.000 39.153 C 134.000 38.691,130.513 38.693,130.228 39.155 M266.000 39.173 C 266.000 39.728,267.520 40.107,268.629 39.828 C 270.231 39.426,269.726 38.800,267.800 38.800 C 266.810 38.800,266.000 38.968,266.000 39.173 M125.820 39.966 C 126.503 40.623,129.600 40.651,129.600 40.000 C 129.600 39.780,128.664 39.600,127.520 39.600 C 126.253 39.600,125.589 39.743,125.820 39.966 M270.400 39.957 C 270.400 40.480,272.245 40.854,273.397 40.565 C 273.946 40.427,274.295 40.154,274.174 39.957 C 273.886 39.491,270.400 39.491,270.400 39.957 M121.600 40.800 C 121.600 41.020,122.410 41.200,123.400 41.200 C 124.390 41.200,125.200 41.020,125.200 40.800 C 125.200 40.580,124.390 40.400,123.400 40.400 C 122.410 40.400,121.600 40.580,121.600 40.800 M274.800 40.800 C 274.800 41.220,275.597 41.376,277.093 41.248 C 277.584 41.206,278.420 41.457,278.950 41.804 C 279.564 42.207,280.293 42.342,280.955 42.176 C 282.440 41.803,281.836 41.200,279.976 41.200 C 279.109 41.200,278.400 41.020,278.400 40.800 C 278.400 40.580,277.590 40.400,276.600 40.400 C 275.610 40.400,274.800 40.580,274.800 40.800 M118.000 41.600 C 118.000 41.820,118.720 42.000,119.600 42.000 C 120.480 42.000,121.200 41.820,121.200 41.600 C 121.200 41.380,120.480 41.200,119.600 41.200 C 118.720 41.200,118.000 41.380,118.000 41.600 M114.800 42.400 C 114.800 42.620,115.430 42.800,116.200 42.800 C 116.970 42.800,117.600 42.620,117.600 42.400 C 117.600 42.180,116.970 42.000,116.200 42.000 C 115.430 42.000,114.800 42.180,114.800 42.400 M282.400 42.316 C 282.400 42.848,284.276 43.293,285.234 42.989 C 285.662 42.853,286.000 42.934,286.000 43.173 C 286.000 43.411,286.781 43.600,287.767 43.600 C 288.759 43.600,289.602 43.805,289.689 44.068 C 289.776 44.327,290.504 44.511,291.323 44.480 C 292.135 44.449,292.800 44.599,292.800 44.812 C 292.800 45.025,293.520 45.200,294.400 45.200 C 295.280 45.200,296.000 45.380,296.000 45.600 C 296.000 45.820,296.619 46.000,297.376 46.000 C 298.133 46.000,298.864 46.180,299.000 46.400 C 299.136 46.620,299.779 46.800,300.429 46.800 C 301.079 46.800,301.923 46.958,302.305 47.151 C 303.461 47.735,305.804 48.400,306.705 48.400 C 307.171 48.400,307.664 48.580,307.800 48.800 C 307.936 49.020,308.566 49.200,309.200 49.200 C 309.834 49.200,310.464 49.380,310.600 49.600 C 310.736 49.820,311.276 50.000,311.800 50.000 C 312.324 50.000,312.864 50.180,313.000 50.400 C 313.136 50.620,313.599 50.800,314.029 50.800 C 314.459 50.800,315.123 50.958,315.505 51.150 C 315.887 51.343,317.730 52.267,319.600 53.203 C 323.415 55.114,327.020 57.462,329.389 59.580 C 333.213 62.998,338.786 69.586,338.796 70.700 C 338.798 70.975,338.959 71.200,339.153 71.200 C 339.348 71.200,339.607 71.515,339.729 71.900 C 339.851 72.285,340.212 73.050,340.531 73.600 C 341.076 74.538,342.499 77.603,343.224 79.400 C 343.402 79.840,343.764 80.920,344.029 81.800 C 344.294 82.680,344.654 83.760,344.828 84.200 C 345.795 86.638,347.717 102.298,348.215 111.800 C 348.573 118.651,349.600 120.264,349.600 113.976 C 349.600 111.663,349.455 110.442,349.200 110.600 C 348.943 110.759,348.800 109.330,348.800 106.600 C 348.800 103.870,348.657 102.441,348.400 102.600 C 348.151 102.754,347.999 101.970,347.998 100.524 C 347.997 99.246,347.824 97.570,347.614 96.800 C 347.405 96.030,347.040 93.780,346.805 91.800 C 346.359 88.049,345.070 82.124,344.325 80.400 C 344.087 79.850,343.716 78.950,343.500 78.400 C 343.284 77.850,342.948 77.087,342.753 76.705 C 342.559 76.323,342.400 75.738,342.400 75.405 C 342.400 75.072,342.220 74.800,342.000 74.800 C 341.780 74.800,341.600 74.440,341.600 74.000 C 341.600 73.560,341.454 73.200,341.275 73.200 C 341.096 73.200,340.702 72.570,340.400 71.800 C 340.098 71.030,339.704 70.400,339.525 70.400 C 339.346 70.400,339.200 70.130,339.200 69.800 C 339.200 69.470,339.020 69.200,338.800 69.200 C 338.580 69.200,338.400 68.945,338.400 68.633 C 338.400 68.322,338.252 68.007,338.072 67.933 C 337.891 67.860,337.267 67.091,336.684 66.225 C 335.395 64.310,329.686 58.400,329.125 58.400 C 328.903 58.400,328.217 57.860,327.600 57.200 C 326.983 56.540,326.231 56.000,325.928 56.000 C 325.625 56.000,325.117 55.640,324.800 55.200 C 324.483 54.760,323.903 54.400,323.512 54.400 C 323.120 54.400,322.800 54.220,322.800 54.000 C 322.800 53.780,322.530 53.600,322.200 53.600 C 321.870 53.600,321.600 53.420,321.600 53.200 C 321.600 52.980,321.330 52.800,321.000 52.800 C 320.670 52.800,320.400 52.620,320.400 52.400 C 320.400 52.180,319.950 52.000,319.400 52.000 C 318.850 52.000,318.400 51.820,318.400 51.600 C 318.400 51.380,318.040 51.200,317.600 51.200 C 317.160 51.200,316.800 51.020,316.800 50.800 C 316.800 50.580,316.350 50.400,315.800 50.400 C 315.250 50.400,314.800 50.220,314.800 50.000 C 314.800 49.780,314.260 49.600,313.600 49.600 C 312.940 49.600,312.400 49.420,312.400 49.200 C 312.400 48.980,311.785 48.800,311.033 48.800 C 310.282 48.800,309.593 48.579,309.503 48.310 C 309.410 48.030,308.794 47.861,308.070 47.916 C 307.371 47.969,306.800 47.830,306.800 47.606 C 306.800 47.383,306.170 47.200,305.400 47.200 C 304.630 47.200,304.000 47.020,304.000 46.800 C 304.000 46.580,303.370 46.400,302.600 46.400 C 301.830 46.400,301.200 46.220,301.200 46.000 C 301.200 45.780,300.559 45.600,299.776 45.600 C 298.929 45.600,298.453 45.438,298.600 45.200 C 298.749 44.958,298.204 44.800,297.224 44.800 C 296.331 44.800,295.600 44.620,295.600 44.400 C 295.600 44.180,294.801 44.000,293.824 44.000 C 292.847 44.000,291.936 43.820,291.800 43.600 C 291.664 43.380,290.854 43.200,290.000 43.200 C 289.146 43.200,288.338 43.023,288.204 42.806 C 288.070 42.589,287.564 42.407,287.080 42.401 C 286.596 42.395,285.345 42.284,284.300 42.155 C 283.152 42.013,282.400 42.077,282.400 42.316 M111.294 42.679 C 109.948 42.944,110.634 43.600,112.257 43.600 C 113.207 43.600,113.612 43.437,113.500 43.100 C 113.314 42.542,112.644 42.414,111.294 42.679 M107.884 43.450 C 107.289 44.044,107.645 44.400,108.833 44.400 C 109.641 44.400,110.010 44.227,109.902 43.900 C 109.715 43.333,108.313 43.020,107.884 43.450 M104.898 44.266 C 104.119 44.580,104.734 45.200,105.824 45.200 C 106.425 45.200,106.800 44.969,106.800 44.600 C 106.800 44.015,105.908 43.858,104.898 44.266 M101.398 45.203 C 101.085 45.709,102.199 46.163,103.000 45.855 C 103.330 45.729,103.600 45.439,103.600 45.213 C 103.600 44.681,101.726 44.673,101.398 45.203 M98.500 46.100 C 98.752 46.857,100.000 46.964,100.000 46.229 C 100.000 45.858,99.658 45.600,99.167 45.600 C 98.678 45.600,98.402 45.807,98.500 46.100 M95.763 47.134 C 96.071 47.443,96.521 47.573,96.762 47.424 C 97.545 46.940,97.225 46.407,96.201 46.492 C 95.345 46.562,95.283 46.654,95.763 47.134 M92.800 47.598 C 93.525 48.069,94.400 48.118,94.400 47.687 C 94.400 47.515,93.905 47.337,93.300 47.291 C 92.458 47.227,92.341 47.299,92.800 47.598 M90.000 48.400 C 90.000 48.620,90.270 48.800,90.600 48.800 C 90.930 48.800,91.200 48.620,91.200 48.400 C 91.200 48.180,90.930 48.000,90.600 48.000 C 90.270 48.000,90.000 48.180,90.000 48.400 M75.900 54.157 C 74.877 54.933,75.045 55.253,76.200 54.727 C 76.750 54.477,77.200 54.120,77.200 53.936 C 77.200 53.458,76.711 53.541,75.900 54.157 M71.200 57.600 C 70.883 58.040,70.404 58.400,70.135 58.400 C 69.867 58.400,69.555 58.550,69.441 58.733 C 69.328 58.917,69.530 59.067,69.891 59.067 C 70.594 59.067,72.400 57.671,72.400 57.128 C 72.400 56.541,71.790 56.781,71.200 57.600 M197.800 57.807 C 197.580 57.911,192.630 58.183,186.800 58.411 C 174.362 58.898,166.333 59.535,157.000 60.775 C 155.460 60.980,152.760 61.337,151.000 61.570 C 146.906 62.111,141.041 63.045,136.000 63.959 C 129.153 65.199,124.684 66.057,122.200 66.606 C 120.660 66.947,118.590 67.391,117.600 67.592 C 115.006 68.118,110.665 69.125,107.300 69.982 C 103.499 70.949,102.107 71.273,100.896 71.473 C 100.179 71.592,99.494 71.849,99.373 72.044 C 99.252 72.240,98.544 72.400,97.800 72.400 C 97.056 72.400,96.336 72.580,96.200 72.800 C 96.064 73.020,95.511 73.200,94.971 73.200 C 94.431 73.200,93.677 73.359,93.295 73.553 C 92.913 73.748,92.060 74.148,91.400 74.443 C 87.601 76.139,83.214 79.930,81.033 83.400 C 78.452 87.507,77.783 89.509,77.160 95.000 C 75.548 109.210,75.049 120.129,75.061 141.000 C 75.074 163.484,75.519 170.177,77.943 184.400 C 78.150 185.610,78.436 187.320,78.580 188.200 C 78.724 189.080,78.999 190.430,79.191 191.200 C 79.383 191.970,79.759 193.680,80.027 195.000 C 80.815 198.882,83.301 208.375,84.374 211.600 C 84.557 212.150,84.939 213.410,85.223 214.400 C 85.507 215.390,85.888 216.371,86.070 216.580 C 86.251 216.789,86.400 217.286,86.400 217.685 C 86.400 218.084,86.559 218.723,86.753 219.105 C 87.117 219.821,87.811 221.446,88.500 223.200 C 88.716 223.750,89.052 224.513,89.247 224.895 C 89.441 225.277,89.600 225.845,89.600 226.157 C 89.600 226.646,90.149 227.916,91.650 230.895 C 91.843 231.277,92.000 231.862,92.000 232.195 C 92.000 232.528,92.180 232.800,92.400 232.800 C 92.620 232.800,92.800 233.072,92.800 233.405 C 92.800 233.738,92.963 234.323,93.162 234.705 C 93.361 235.087,95.067 238.502,96.953 242.292 C 98.839 246.083,101.106 250.377,101.991 251.833 C 102.876 253.290,103.600 254.563,103.600 254.663 C 103.600 254.762,104.320 255.904,105.200 257.200 C 106.080 258.496,106.800 259.746,106.800 259.978 C 106.800 260.210,106.950 260.400,107.132 260.400 C 107.315 260.400,107.720 260.895,108.032 261.500 C 108.344 262.105,108.704 262.690,108.832 262.800 C 108.960 262.910,110.025 264.440,111.199 266.200 C 113.030 268.943,115.746 272.664,117.477 274.800 C 117.744 275.130,118.829 276.496,119.889 277.835 C 126.387 286.052,137.434 297.462,145.608 304.400 C 147.034 305.610,148.404 306.780,148.653 307.000 C 148.902 307.220,149.870 308.021,150.804 308.779 C 151.737 309.538,152.703 310.348,152.951 310.579 C 153.198 310.811,154.480 311.810,155.800 312.799 C 157.120 313.788,158.290 314.695,158.400 314.813 C 158.697 315.131,167.056 321.014,168.329 321.800 C 168.686 322.020,170.279 323.055,171.871 324.100 C 173.462 325.145,174.952 326.000,175.182 326.000 C 175.412 326.000,175.600 326.147,175.600 326.326 C 175.600 326.505,176.275 327.019,177.100 327.469 C 177.925 327.918,180.220 329.232,182.200 330.389 C 193.474 336.974,200.079 339.803,201.905 338.830 C 202.287 338.626,205.660 336.943,209.400 335.090 C 213.140 333.237,216.875 331.334,217.700 330.861 C 218.525 330.387,219.875 329.619,220.700 329.153 C 221.525 328.687,222.678 327.967,223.262 327.553 C 223.846 327.139,224.521 326.800,224.762 326.800 C 225.003 326.800,225.200 326.620,225.200 326.400 C 225.200 326.180,225.384 326.000,225.610 326.000 C 226.446 326.000,245.073 313.122,246.400 311.625 C 246.510 311.501,247.410 310.772,248.400 310.006 C 250.896 308.072,251.570 307.521,252.565 306.600 C 253.041 306.160,254.774 304.642,256.415 303.227 C 260.215 299.952,271.028 289.120,274.410 285.200 C 275.834 283.550,277.096 282.110,277.214 282.000 C 279.549 279.827,294.800 258.817,294.800 257.774 C 294.800 257.636,295.139 257.046,295.553 256.462 C 297.918 253.129,303.591 242.265,307.283 234.000 C 307.726 233.010,308.248 231.887,308.444 231.505 C 308.640 231.123,308.800 230.538,308.800 230.205 C 308.800 229.872,308.980 229.600,309.200 229.600 C 309.420 229.600,309.600 229.328,309.600 228.995 C 309.600 228.662,309.759 228.077,309.953 227.695 C 310.148 227.313,310.484 226.550,310.700 226.000 C 310.916 225.450,311.285 224.550,311.520 224.000 C 311.755 223.450,312.176 222.280,312.455 221.400 C 312.735 220.520,313.107 219.629,313.282 219.420 C 313.457 219.211,313.600 218.637,313.600 218.144 C 313.600 217.651,313.780 217.136,314.000 217.000 C 314.220 216.864,314.400 216.401,314.400 215.971 C 314.400 215.541,314.565 214.877,314.766 214.495 C 316.552 211.108,321.019 191.858,322.818 179.800 C 324.600 167.854,324.927 161.849,324.931 141.000 C 324.934 120.420,324.585 112.309,323.004 96.200 C 322.062 86.602,316.275 77.859,308.600 74.441 C 307.940 74.147,307.087 73.748,306.705 73.553 C 306.323 73.359,305.569 73.200,305.029 73.200 C 304.489 73.200,303.948 73.040,303.827 72.844 C 303.706 72.649,303.021 72.392,302.304 72.273 C 301.587 72.155,300.190 71.857,299.200 71.611 C 295.844 70.777,294.204 70.364,292.800 70.001 C 292.030 69.802,290.500 69.433,289.400 69.180 C 288.300 68.928,286.680 68.549,285.800 68.339 C 284.920 68.128,283.480 67.810,282.600 67.631 C 281.720 67.452,278.754 66.828,276.009 66.245 C 270.168 65.003,260.192 63.195,254.600 62.364 C 238.975 60.042,228.396 59.008,214.600 58.453 C 209.540 58.249,203.780 57.978,201.800 57.850 C 199.820 57.722,198.020 57.703,197.800 57.807 M220.400 59.217 C 230.539 59.883,241.425 61.051,252.000 62.610 C 260.578 63.874,271.123 65.764,277.600 67.200 C 278.810 67.468,280.565 67.848,281.500 68.044 C 283.779 68.521,286.256 69.074,288.200 69.539 C 289.080 69.749,290.700 70.128,291.800 70.380 C 296.108 71.369,303.371 73.297,306.611 74.313 C 315.555 77.118,321.275 85.746,322.580 98.400 C 326.213 133.615,325.363 166.210,320.151 191.600 C 318.379 200.233,314.639 214.181,313.583 216.095 C 313.372 216.477,313.200 217.116,313.200 217.515 C 313.200 217.914,313.051 218.411,312.870 218.620 C 312.688 218.829,312.295 219.810,311.998 220.800 C 311.700 221.790,311.346 222.780,311.211 223.000 C 311.077 223.220,310.724 224.120,310.427 225.000 C 310.130 225.880,309.373 227.730,308.744 229.110 C 308.115 230.491,307.600 231.701,307.600 231.800 C 307.600 232.821,298.623 250.562,296.740 253.262 C 296.333 253.846,296.000 254.443,296.000 254.590 C 296.000 254.736,295.460 255.641,294.800 256.600 C 294.140 257.559,293.600 258.461,293.600 258.604 C 293.600 259.686,281.204 276.444,275.555 283.000 C 268.055 291.703,255.598 303.724,248.000 309.590 C 247.010 310.354,246.110 311.080,246.000 311.203 C 244.866 312.475,228.057 324.212,224.302 326.354 C 223.586 326.763,221.380 328.040,219.400 329.191 C 214.880 331.821,200.882 338.800,200.128 338.800 C 199.597 338.800,189.537 333.891,186.300 332.052 C 184.802 331.201,183.151 330.259,180.700 328.856 C 156.458 314.980,131.891 293.314,115.715 271.545 C 112.719 267.512,104.800 255.779,104.800 255.371 C 104.800 255.235,104.446 254.627,104.014 254.020 C 102.291 251.600,95.510 238.541,93.203 233.200 C 92.491 231.550,91.478 229.250,90.954 228.088 C 90.429 226.927,90.000 225.799,90.000 225.583 C 90.000 225.366,89.834 224.877,89.632 224.495 C 89.430 224.113,88.872 222.720,88.393 221.400 C 87.914 220.080,87.369 218.640,87.181 218.200 C 86.728 217.137,85.585 213.699,85.185 212.200 C 85.010 211.540,84.308 209.110,83.626 206.800 C 75.090 177.886,73.045 141.948,77.434 98.000 C 78.928 83.036,85.415 75.487,99.200 72.670 C 99.750 72.558,101.640 72.076,103.400 71.600 C 105.160 71.124,107.050 70.650,107.600 70.548 C 108.150 70.446,109.230 70.199,110.000 70.000 C 112.191 69.433,118.053 68.084,119.600 67.790 C 120.370 67.643,122.620 67.177,124.600 66.753 C 126.580 66.329,129.190 65.817,130.400 65.615 C 131.610 65.414,134.580 64.875,137.000 64.418 C 147.308 62.472,159.709 60.863,174.600 59.540 C 185.392 58.581,208.253 58.420,220.400 59.217 M67.189 60.808 C 66.645 61.219,66.192 61.790,66.182 62.077 C 66.172 62.365,65.933 62.551,65.652 62.490 C 65.371 62.430,65.255 62.565,65.394 62.790 C 65.533 63.016,65.457 63.200,65.224 63.200 C 64.991 63.200,64.800 63.481,64.800 63.824 C 64.800 64.167,64.640 64.348,64.444 64.227 C 64.248 64.106,63.766 64.500,63.374 65.103 C 62.981 65.707,62.377 66.419,62.030 66.687 C 61.460 67.128,61.463 67.176,62.059 67.187 C 62.709 67.200,64.056 65.794,66.000 63.071 C 66.550 62.300,67.428 61.409,67.951 61.090 C 68.474 60.771,68.739 60.409,68.540 60.286 C 68.341 60.163,67.733 60.398,67.189 60.808 M60.888 68.407 C 60.610 68.853,60.569 69.257,60.788 69.393 C 60.993 69.519,61.349 69.268,61.581 68.835 C 62.130 67.809,61.504 67.422,60.888 68.407 M59.200 71.000 C 58.566 71.763,59.161 71.756,60.176 70.987 C 60.798 70.517,60.828 70.400,60.325 70.400 C 59.980 70.400,59.474 70.670,59.200 71.000 M54.400 82.144 C 54.400 82.469,54.275 83.064,54.122 83.467 C 53.862 84.154,53.888 84.157,54.522 83.529 C 55.290 82.768,55.387 82.163,54.800 81.800 C 54.580 81.664,54.400 81.819,54.400 82.144 M204.210 87.854 C 208.523 92.110,214.980 99.467,218.205 103.800 C 218.860 104.680,219.500 105.490,219.628 105.600 C 219.756 105.710,220.648 106.970,221.611 108.400 C 222.573 109.830,223.685 111.349,224.080 111.775 C 224.476 112.201,225.024 113.056,225.297 113.675 C 225.571 114.294,225.931 114.800,226.098 114.800 C 226.264 114.800,226.400 115.070,226.400 115.400 C 226.400 115.730,226.580 116.000,226.800 116.000 C 227.020 116.000,227.200 116.157,227.200 116.349 C 227.200 116.541,228.216 118.386,229.457 120.449 C 232.264 125.115,238.757 138.388,239.999 142.000 C 240.583 143.697,241.173 145.163,241.647 146.095 C 241.841 146.477,242.000 147.141,242.000 147.571 C 242.000 148.001,242.180 148.464,242.400 148.600 C 242.620 148.736,242.800 149.199,242.800 149.629 C 242.800 150.059,242.962 150.723,243.161 151.105 C 243.360 151.487,243.737 152.610,244.000 153.600 C 244.263 154.590,244.640 155.713,244.839 156.095 C 245.038 156.477,245.200 157.321,245.200 157.971 C 245.200 158.621,245.361 159.252,245.558 159.374 C 245.755 159.495,245.997 160.271,246.096 161.097 C 246.195 161.924,246.566 163.950,246.920 165.600 C 250.221 180.973,250.319 199.143,247.177 213.000 C 246.728 214.980,246.266 217.050,246.150 217.600 C 246.035 218.150,245.794 218.960,245.615 219.400 C 245.437 219.840,245.059 221.010,244.776 222.000 C 244.493 222.990,244.112 223.971,243.930 224.180 C 243.749 224.389,243.600 224.886,243.600 225.285 C 243.600 225.684,243.420 226.368,243.200 226.805 C 242.980 227.242,242.620 227.958,242.400 228.395 C 242.180 228.832,242.000 229.462,242.000 229.795 C 242.000 230.128,241.820 230.400,241.600 230.400 C 241.380 230.400,241.200 230.648,241.200 230.950 C 241.200 231.450,237.718 238.462,235.685 242.059 C 233.851 245.302,227.789 254.104,226.332 255.639 C 226.040 255.948,225.330 256.830,224.755 257.600 C 223.096 259.823,218.782 264.360,212.433 270.560 C 210.428 272.518,208.884 274.217,209.002 274.335 C 209.228 274.562,210.880 273.064,216.210 267.800 C 232.537 251.676,244.053 231.524,247.982 212.200 C 248.250 210.880,248.561 209.350,248.672 208.800 C 252.363 190.578,248.767 161.517,240.309 141.200 C 240.080 140.650,239.751 139.840,239.578 139.400 C 238.335 136.247,237.454 134.340,234.883 129.236 C 232.084 123.679,225.676 112.691,224.408 111.274 C 224.074 110.901,222.998 109.426,222.017 107.997 C 216.564 100.054,203.182 85.037,200.200 83.517 C 199.760 83.292,201.564 85.244,204.210 87.854 M53.600 85.376 C 53.600 85.939,53.780 86.400,54.000 86.400 C 54.220 86.400,54.400 86.051,54.400 85.624 C 54.400 85.197,54.220 84.736,54.000 84.600 C 53.773 84.460,53.600 84.796,53.600 85.376 M52.800 90.200 C 52.800 92.512,53.329 93.134,53.777 91.349 C 54.086 90.119,53.701 88.000,53.168 88.000 C 52.966 88.000,52.800 88.990,52.800 90.200 M52.287 93.446 C 51.872 93.862,51.933 99.600,52.353 99.600 C 52.839 99.600,53.194 98.117,53.166 96.200 C 53.141 94.371,52.710 93.023,52.287 93.446 M51.473 100.661 C 51.068 101.066,51.142 107.517,51.555 107.772 C 52.067 108.089,52.389 106.554,52.388 103.800 C 52.388 101.435,52.006 100.127,51.473 100.661 M50.673 109.461 C 50.269 109.864,50.341 118.400,50.748 118.400 C 51.221 118.400,51.592 115.938,51.589 112.800 C 51.588 110.259,51.219 108.915,50.673 109.461 M349.647 120.110 C 349.069 121.193,349.141 134.074,349.729 134.662 C 350.334 135.267,350.413 134.190,350.309 126.796 C 350.212 119.957,350.137 119.194,349.647 120.110 M50.460 120.700 C 50.427 121.195,50.220 121.600,50.000 121.600 C 49.749 121.600,49.600 124.093,49.600 128.280 C 49.600 137.211,50.521 137.051,50.736 128.082 C 50.857 123.068,50.657 117.740,50.460 120.700 M49.600 158.520 C 49.600 164.513,50.029 166.585,50.618 163.443 C 51.042 161.185,50.660 153.298,50.100 152.739 C 49.700 152.340,49.600 153.497,49.600 158.520 M349.457 153.900 C 349.131 155.872,349.131 162.353,349.456 163.982 C 349.981 166.606,350.388 164.141,350.394 158.300 C 350.400 152.655,349.985 150.706,349.457 153.900 M348.652 167.300 C 348.338 168.473,348.332 172.157,348.643 172.967 C 349.227 174.491,349.600 173.336,349.600 170.000 C 349.600 166.572,349.173 165.356,348.652 167.300 M50.400 169.976 C 50.400 172.993,50.831 174.338,51.358 172.965 C 51.672 172.147,51.671 168.251,51.357 167.433 C 50.793 165.964,50.400 167.009,50.400 169.976 M51.200 177.376 C 51.200 179.989,51.711 181.130,52.149 179.496 C 52.461 178.331,52.465 176.236,52.157 175.433 C 51.629 174.057,51.200 174.928,51.200 177.376 M347.867 175.067 C 347.533 175.400,347.516 178.516,347.843 179.367 C 348.372 180.747,348.800 179.869,348.800 177.400 C 348.800 175.002,348.552 174.382,347.867 175.067 M52.000 183.176 C 52.000 185.172,52.512 186.127,52.958 184.965 C 53.269 184.156,53.268 182.643,52.957 181.833 C 52.475 180.575,52.000 181.242,52.000 183.176 M347.043 181.833 C 346.507 183.228,346.943 185.806,347.642 185.374 C 348.109 185.086,348.110 181.200,347.643 181.200 C 347.446 181.200,347.176 181.485,347.043 181.833 M346.164 187.003 C 346.025 187.554,346.030 188.634,346.174 189.403 C 346.328 190.225,346.275 190.800,346.045 190.800 C 345.447 190.800,345.110 192.278,345.403 193.612 C 345.776 195.311,346.400 194.677,346.400 192.600 C 346.400 191.636,346.580 190.736,346.800 190.600 C 347.317 190.280,347.324 186.000,346.808 186.000 C 346.592 186.000,346.302 186.451,346.164 187.003 M52.800 188.343 C 52.800 189.448,52.980 190.464,53.200 190.600 C 53.420 190.736,53.600 191.636,53.600 192.600 C 53.600 194.528,54.171 195.307,54.549 193.896 C 54.925 192.494,54.844 191.702,54.269 191.126 C 53.961 190.818,53.751 189.770,53.769 188.637 C 53.788 187.406,53.615 186.615,53.300 186.506 C 52.943 186.383,52.800 186.910,52.800 188.343 M54.400 196.776 C 54.400 197.643,54.580 198.464,54.800 198.600 C 55.020 198.736,55.200 199.546,55.200 200.400 C 55.200 201.254,55.380 202.064,55.600 202.200 C 55.820 202.336,56.000 203.146,56.000 204.000 C 56.000 204.854,56.180 205.664,56.400 205.800 C 56.620 205.936,56.800 206.667,56.800 207.424 C 56.800 208.181,56.980 208.800,57.200 208.800 C 57.420 208.800,57.600 209.430,57.600 210.200 C 57.600 210.970,57.780 211.600,58.000 211.600 C 58.220 211.600,58.400 212.200,58.400 212.933 C 58.400 213.667,58.525 214.392,58.678 214.545 C 58.831 214.698,58.999 215.110,59.050 215.460 C 59.307 217.210,60.120 220.027,60.423 220.214 C 60.611 220.330,60.671 220.672,60.555 220.972 C 60.440 221.273,60.538 221.638,60.773 221.783 C 61.008 221.928,61.200 222.577,61.200 223.224 C 61.200 223.871,61.380 224.400,61.600 224.400 C 61.820 224.400,62.000 224.839,62.000 225.376 C 62.000 225.913,62.180 226.464,62.400 226.600 C 62.620 226.736,62.800 227.276,62.800 227.800 C 62.800 228.324,62.944 228.842,63.121 228.951 C 63.297 229.060,63.690 230.061,63.993 231.175 C 64.296 232.289,64.692 233.200,64.872 233.200 C 65.053 233.200,65.200 233.555,65.200 233.988 C 65.200 234.421,65.560 235.417,66.000 236.200 C 66.440 236.983,66.800 237.979,66.800 238.412 C 66.800 238.845,66.967 239.200,67.172 239.200 C 67.377 239.200,67.602 239.567,67.672 240.016 C 67.742 240.465,67.980 240.832,68.200 240.832 C 68.420 240.832,68.658 240.465,68.728 240.016 C 68.798 239.567,68.663 239.200,68.428 239.200 C 68.193 239.200,68.000 238.928,68.000 238.595 C 68.000 238.262,67.841 237.677,67.647 237.295 C 67.452 236.913,67.071 236.060,66.800 235.400 C 66.529 234.740,66.148 233.887,65.953 233.505 C 65.759 233.123,65.600 232.448,65.600 232.005 C 65.600 231.562,65.420 231.200,65.200 231.200 C 64.980 231.200,64.800 230.761,64.800 230.224 C 64.800 229.687,64.620 229.136,64.400 229.000 C 64.180 228.864,64.000 228.313,64.000 227.776 C 64.000 227.239,63.820 226.800,63.600 226.800 C 63.380 226.800,63.200 226.361,63.200 225.824 C 63.200 225.287,63.020 224.736,62.800 224.600 C 62.580 224.464,62.400 223.913,62.400 223.376 C 62.400 222.839,62.220 222.400,62.000 222.400 C 61.780 222.400,61.600 221.871,61.600 221.224 C 61.600 220.577,61.420 219.936,61.200 219.800 C 60.980 219.664,60.800 219.023,60.800 218.376 C 60.800 217.729,60.620 217.200,60.400 217.200 C 60.180 217.200,60.000 216.660,60.000 216.000 C 60.000 215.340,59.820 214.800,59.600 214.800 C 59.380 214.800,59.200 214.080,59.200 213.200 C 59.200 212.320,59.020 211.600,58.800 211.600 C 58.580 211.600,58.400 210.970,58.400 210.200 C 58.400 209.430,58.214 208.800,57.987 208.800 C 57.761 208.800,57.618 208.159,57.671 207.375 C 57.725 206.566,57.550 205.816,57.264 205.640 C 56.973 205.460,56.842 204.880,56.954 204.266 C 57.066 203.646,56.909 202.967,56.577 202.634 C 56.212 202.269,56.091 201.645,56.240 200.898 C 56.400 200.099,56.264 199.522,55.810 199.067 C 55.398 198.655,55.242 198.098,55.400 197.601 C 55.696 196.667,55.313 195.200,54.773 195.200 C 54.568 195.200,54.400 195.909,54.400 196.776 M344.600 196.000 C 344.460 196.440,344.461 197.161,344.600 197.601 C 344.758 198.097,344.603 198.654,344.194 199.063 C 343.724 199.533,343.604 200.098,343.778 201.024 C 343.937 201.870,343.855 202.382,343.545 202.485 C 343.282 202.573,343.067 203.262,343.067 204.017 C 343.067 204.773,342.842 205.615,342.567 205.890 C 342.287 206.171,342.151 206.916,342.258 207.595 C 342.369 208.297,342.271 208.800,342.024 208.800 C 341.486 208.800,341.465 211.069,342.000 211.400 C 342.238 211.547,342.400 211.071,342.400 210.224 C 342.400 209.441,342.580 208.800,342.800 208.800 C 343.020 208.800,343.200 208.181,343.200 207.424 C 343.200 206.667,343.380 205.936,343.600 205.800 C 343.820 205.664,344.000 204.854,344.000 204.000 C 344.000 203.146,344.180 202.336,344.400 202.200 C 344.620 202.064,344.800 201.243,344.800 200.376 C 344.800 199.509,344.980 198.800,345.200 198.800 C 345.420 198.800,345.600 197.990,345.600 197.000 C 345.600 195.143,345.047 194.590,344.600 196.000 M340.800 213.200 C 340.800 214.080,340.620 214.800,340.400 214.800 C 340.180 214.800,340.000 215.340,340.000 216.000 C 340.000 216.660,339.820 217.200,339.600 217.200 C 339.380 217.200,339.200 217.729,339.200 218.376 C 339.200 219.023,339.020 219.664,338.800 219.800 C 338.580 219.936,338.400 220.577,338.400 221.224 C 338.400 221.871,338.220 222.400,338.000 222.400 C 337.780 222.400,337.600 222.850,337.600 223.400 C 337.600 223.950,337.420 224.400,337.200 224.400 C 336.980 224.400,336.800 224.940,336.800 225.600 C 336.800 226.260,336.620 226.800,336.400 226.800 C 336.180 226.800,336.000 227.239,336.000 227.776 C 336.000 228.313,335.820 228.864,335.600 229.000 C 335.380 229.136,335.200 229.687,335.200 230.224 C 335.200 230.761,335.020 231.200,334.800 231.200 C 334.580 231.200,334.400 231.562,334.400 232.005 C 334.400 232.448,334.241 233.123,334.047 233.505 C 333.852 233.887,333.471 234.740,333.200 235.400 C 332.929 236.060,332.548 236.913,332.353 237.295 C 332.159 237.677,332.000 238.262,332.000 238.595 C 332.000 238.928,331.820 239.200,331.600 239.200 C 331.380 239.200,331.200 239.549,331.200 239.976 C 331.200 240.403,331.004 240.874,330.765 241.022 C 330.526 241.169,330.419 241.630,330.528 242.045 C 330.636 242.460,330.570 242.800,330.381 242.800 C 330.192 242.800,329.774 243.385,329.453 244.100 C 329.131 244.815,328.150 246.963,327.273 248.872 C 326.396 250.782,325.780 252.447,325.906 252.572 C 326.031 252.698,325.923 252.800,325.667 252.800 C 325.410 252.800,325.200 253.160,325.200 253.600 C 325.200 254.040,325.020 254.400,324.800 254.400 C 324.580 254.400,324.400 254.760,324.400 255.200 C 324.400 255.640,324.220 256.000,324.000 256.000 C 323.780 256.000,323.600 256.270,323.600 256.600 C 323.600 256.930,323.465 257.201,323.300 257.201 C 323.135 257.202,322.550 258.192,322.000 259.400 C 321.450 260.608,320.865 261.598,320.700 261.599 C 320.535 261.599,320.400 261.960,320.400 262.400 C 320.400 262.840,320.220 263.200,320.000 263.200 C 319.780 263.200,319.600 263.470,319.600 263.800 C 319.600 264.130,319.454 264.400,319.275 264.400 C 319.096 264.400,318.702 265.030,318.400 265.800 C 318.098 266.570,317.704 267.200,317.525 267.200 C 317.346 267.200,317.200 267.385,317.200 267.612 C 317.200 267.838,315.940 269.928,314.400 272.256 C 312.860 274.584,311.600 276.621,311.600 276.782 C 311.600 276.944,311.240 277.402,310.800 277.800 C 310.360 278.198,310.000 278.693,310.000 278.900 C 310.000 279.106,309.190 280.340,308.200 281.642 C 307.210 282.944,306.400 284.153,306.400 284.330 C 306.400 284.506,305.860 285.168,305.200 285.800 C 304.540 286.432,304.000 287.109,304.000 287.303 C 304.000 287.498,303.775 287.886,303.500 288.165 C 303.225 288.445,302.550 289.275,302.000 290.010 C 293.887 300.854,276.964 318.189,265.366 327.537 C 264.285 328.409,262.140 330.124,260.600 331.349 C 259.060 332.574,257.620 333.722,257.400 333.899 C 257.180 334.077,256.370 334.658,255.600 335.192 C 254.830 335.725,254.110 336.272,254.000 336.407 C 253.890 336.542,252.900 337.260,251.800 338.003 C 250.700 338.746,249.740 339.499,249.667 339.677 C 249.593 339.855,249.293 340.000,249.000 340.000 C 248.707 340.000,248.407 340.147,248.333 340.326 C 248.186 340.685,240.204 346.000,239.812 346.000 C 239.677 346.000,239.180 346.360,238.708 346.800 C 238.236 347.240,237.613 347.600,237.325 347.600 C 237.036 347.600,236.800 347.759,236.800 347.953 C 236.800 348.148,236.485 348.407,236.100 348.529 C 235.415 348.746,233.196 350.004,232.800 350.400 C 232.690 350.510,232.195 350.825,231.700 351.100 C 231.205 351.375,230.395 351.825,229.900 352.100 C 229.405 352.375,228.910 352.691,228.800 352.802 C 228.622 352.982,224.919 354.954,222.503 356.154 C 222.010 356.399,221.605 356.735,221.603 356.900 C 221.601 357.065,221.240 357.200,220.800 357.200 C 220.360 357.200,220.000 357.338,220.000 357.506 C 220.000 357.816,217.067 359.250,216.040 359.442 C 215.732 359.500,215.372 359.694,215.240 359.873 C 215.108 360.053,214.772 360.246,214.494 360.302 C 214.215 360.358,213.056 360.853,211.919 361.402 C 210.781 361.951,209.614 362.400,209.325 362.400 C 209.036 362.400,208.800 362.580,208.800 362.800 C 208.800 363.020,208.434 363.200,207.987 363.200 C 207.541 363.200,207.072 363.469,206.946 363.798 C 206.819 364.126,206.538 364.285,206.320 364.151 C 206.102 364.016,205.491 364.107,204.962 364.353 C 204.433 364.599,203.550 364.980,203.000 365.200 C 202.450 365.420,201.550 365.810,201.000 366.068 C 200.237 366.424,199.763 366.424,199.000 366.068 C 197.967 365.585,196.538 364.983,194.800 364.300 C 194.250 364.084,193.478 363.742,193.084 363.540 C 192.690 363.338,192.214 363.268,192.026 363.384 C 191.838 363.500,191.573 363.308,191.439 362.956 C 191.304 362.605,190.940 362.414,190.630 362.533 C 190.320 362.652,189.967 362.491,189.846 362.175 C 189.724 361.859,189.344 361.600,189.001 361.600 C 188.658 361.600,187.324 361.068,186.037 360.419 C 184.749 359.769,183.585 359.349,183.448 359.485 C 183.312 359.622,183.200 359.523,183.200 359.267 C 183.200 359.010,182.928 358.800,182.595 358.800 C 182.039 358.800,180.478 358.078,180.000 357.600 C 179.784 357.384,177.668 356.217,174.800 354.732 C 173.810 354.219,172.940 353.665,172.867 353.500 C 172.793 353.335,172.388 353.200,171.967 353.200 C 171.545 353.200,171.200 353.041,171.200 352.847 C 171.200 352.652,170.885 352.393,170.500 352.271 C 169.815 352.054,167.596 350.796,167.200 350.400 C 166.804 350.004,164.585 348.746,163.900 348.529 C 163.515 348.407,163.200 348.170,163.200 348.002 C 163.200 347.834,162.660 347.473,162.000 347.200 C 161.340 346.927,160.800 346.545,160.800 346.351 C 160.800 346.158,160.564 346.000,160.275 346.000 C 159.987 346.000,159.364 345.640,158.892 345.200 C 158.420 344.760,157.926 344.400,157.795 344.400 C 157.402 344.400,151.811 340.688,151.667 340.331 C 151.593 340.149,151.323 340.000,151.067 340.000 C 150.810 339.999,150.060 339.534,149.400 338.965 C 148.740 338.396,147.705 337.637,147.100 337.279 C 146.495 336.921,146.000 336.486,146.000 336.314 C 146.000 336.141,145.807 336.000,145.571 336.000 C 145.336 336.000,144.863 335.720,144.521 335.378 C 144.178 335.035,142.256 333.501,140.249 331.968 C 134.575 327.634,133.169 326.479,130.738 324.159 C 129.494 322.972,128.343 322.000,128.181 322.000 C 127.501 322.000,106.800 301.305,106.800 300.625 C 106.800 300.464,105.913 299.403,104.829 298.266 C 103.744 297.130,102.349 295.534,101.729 294.721 C 98.426 290.391,96.639 288.186,96.337 288.067 C 96.152 287.993,96.000 287.767,96.000 287.563 C 96.000 287.360,95.523 286.658,94.941 286.004 C 94.358 285.350,93.683 284.474,93.441 284.056 C 93.198 283.639,92.100 281.994,91.000 280.400 C 89.900 278.806,88.804 277.166,88.564 276.754 C 88.325 276.342,87.830 275.675,87.464 275.271 C 87.099 274.867,86.800 274.429,86.800 274.298 C 86.800 274.166,85.900 272.700,84.800 271.039 C 83.700 269.378,82.800 267.834,82.800 267.609 C 82.800 267.384,82.654 267.200,82.475 267.200 C 82.296 267.200,81.902 266.570,81.600 265.800 C 81.298 265.030,80.904 264.400,80.725 264.400 C 80.546 264.400,80.400 264.130,80.400 263.800 C 80.400 263.470,80.220 263.200,80.000 263.200 C 79.780 263.200,79.600 262.855,79.600 262.433 C 79.600 262.012,79.465 261.607,79.300 261.533 C 79.135 261.460,78.441 260.320,77.757 259.000 C 75.653 254.938,74.609 253.009,74.400 252.800 C 74.290 252.690,74.163 252.398,74.117 252.151 C 74.071 251.904,73.421 250.374,72.672 248.751 C 71.922 247.128,71.006 245.125,70.636 244.300 C 69.862 242.575,69.200 242.345,69.200 243.800 C 69.200 244.350,69.380 244.800,69.600 244.800 C 69.820 244.800,70.000 245.160,70.000 245.600 C 70.000 246.040,70.180 246.400,70.400 246.400 C 70.620 246.400,70.800 246.760,70.800 247.200 C 70.800 247.640,70.980 248.000,71.200 248.000 C 71.420 248.000,71.600 248.360,71.600 248.800 C 71.600 249.240,71.780 249.600,72.000 249.600 C 72.220 249.600,72.400 249.844,72.400 250.141 C 72.400 250.682,79.095 264.021,79.556 264.400 C 79.690 264.510,80.174 265.320,80.630 266.200 C 81.706 268.273,82.549 269.749,82.801 270.000 C 82.911 270.110,83.256 270.695,83.568 271.300 C 83.880 271.905,84.285 272.400,84.468 272.400 C 84.650 272.400,84.800 272.670,84.800 273.000 C 84.800 273.330,84.980 273.600,85.200 273.600 C 85.420 273.600,85.600 273.836,85.600 274.125 C 85.600 274.413,85.960 275.036,86.400 275.508 C 86.840 275.980,87.200 276.572,87.200 276.823 C 87.200 277.074,87.740 277.783,88.400 278.400 C 89.060 279.017,89.600 279.726,89.600 279.977 C 89.600 280.228,89.960 280.820,90.400 281.292 C 90.840 281.764,91.200 282.387,91.200 282.675 C 91.200 282.964,91.343 283.200,91.517 283.200 C 91.692 283.200,92.367 284.096,93.017 285.192 C 93.668 286.288,94.335 287.188,94.500 287.192 C 94.665 287.196,94.800 287.436,94.800 287.725 C 94.800 288.014,95.340 288.768,96.000 289.400 C 96.660 290.032,97.200 290.689,97.200 290.859 C 97.200 291.030,97.920 291.882,98.800 292.753 C 99.680 293.624,100.400 294.531,100.400 294.769 C 100.400 295.006,100.580 295.200,100.800 295.200 C 101.020 295.200,101.200 295.376,101.200 295.591 C 101.200 295.806,102.191 297.005,103.402 298.255 C 104.613 299.506,105.536 300.597,105.453 300.681 C 105.369 300.764,106.223 301.789,107.350 302.959 C 113.058 308.881,115.200 311.181,115.200 311.387 C 115.200 311.770,118.044 314.400,118.458 314.400 C 118.672 314.400,118.736 314.580,118.600 314.800 C 118.464 315.020,118.614 315.200,118.934 315.200 C 119.253 315.200,121.390 317.045,123.683 319.300 C 125.976 321.555,128.363 323.760,128.987 324.200 C 129.612 324.640,130.934 325.765,131.925 326.700 C 132.916 327.635,133.883 328.400,134.074 328.400 C 134.265 328.400,135.231 329.210,136.221 330.200 C 137.211 331.190,138.188 332.000,138.392 332.000 C 138.597 332.000,139.214 332.450,139.764 333.000 C 140.314 333.550,140.952 334.000,141.182 334.000 C 141.412 334.000,141.600 334.180,141.600 334.400 C 141.600 334.620,141.804 334.800,142.053 334.800 C 142.302 334.800,142.797 335.115,143.153 335.500 C 143.986 336.400,147.076 338.800,147.403 338.800 C 147.541 338.800,148.243 339.250,148.964 339.800 C 149.686 340.350,150.444 340.800,150.649 340.800 C 150.855 340.800,151.283 341.160,151.600 341.600 C 151.917 342.040,152.457 342.400,152.800 342.400 C 153.143 342.400,153.683 342.760,154.000 343.200 C 154.317 343.640,154.857 344.000,155.200 344.000 C 155.543 344.000,156.083 344.360,156.400 344.800 C 156.717 345.240,157.257 345.600,157.600 345.600 C 157.943 345.600,158.483 345.960,158.800 346.400 C 159.117 346.840,159.620 347.200,159.917 347.200 C 160.214 347.200,160.694 347.425,160.984 347.700 C 162.322 348.970,163.257 349.600,163.805 349.600 C 164.132 349.600,164.400 349.759,164.400 349.953 C 164.400 350.148,164.715 350.407,165.100 350.529 C 165.934 350.793,167.967 352.008,168.690 352.674 C 168.973 352.934,169.564 353.262,170.002 353.401 C 170.441 353.540,170.800 353.837,170.800 354.060 C 170.800 354.284,171.025 354.390,171.300 354.296 C 171.575 354.202,172.475 354.550,173.300 355.068 C 174.125 355.586,174.800 355.890,174.800 355.743 C 174.800 355.596,175.115 355.755,175.500 356.096 C 175.885 356.438,177.640 357.401,179.400 358.238 C 181.160 359.074,182.660 359.903,182.733 360.079 C 182.807 360.256,183.212 360.400,183.633 360.400 C 184.055 360.400,184.400 360.580,184.400 360.800 C 184.400 361.020,184.850 361.200,185.400 361.200 C 185.950 361.200,186.400 361.380,186.400 361.600 C 186.400 361.820,186.760 362.000,187.200 362.000 C 187.640 362.000,188.000 362.180,188.000 362.400 C 188.000 362.620,188.360 362.800,188.800 362.800 C 189.240 362.800,189.600 362.980,189.600 363.200 C 189.600 363.420,189.960 363.600,190.400 363.600 C 190.840 363.600,191.200 363.780,191.200 364.000 C 191.200 364.220,191.472 364.400,191.805 364.400 C 192.393 364.400,192.818 364.567,194.695 365.538 C 195.187 365.792,195.862 366.000,196.195 366.000 C 196.528 366.000,196.800 366.180,196.800 366.400 C 196.800 366.620,197.162 366.800,197.605 366.800 C 198.048 366.800,198.768 367.023,199.205 367.296 C 199.838 367.691,200.162 367.691,200.795 367.296 C 201.232 367.023,201.952 366.800,202.395 366.800 C 202.838 366.800,203.200 366.620,203.200 366.400 C 203.200 366.180,203.472 366.000,203.805 366.000 C 204.138 366.000,204.813 365.792,205.305 365.538 C 207.182 364.567,207.607 364.400,208.195 364.400 C 208.528 364.400,208.800 364.220,208.800 364.000 C 208.800 363.780,209.160 363.600,209.600 363.600 C 210.040 363.600,210.400 363.420,210.400 363.200 C 210.400 362.980,210.760 362.800,211.200 362.800 C 211.640 362.800,212.000 362.620,212.000 362.400 C 212.000 362.180,212.349 362.000,212.776 362.000 C 213.203 362.000,213.664 361.820,213.800 361.600 C 213.936 361.380,214.397 361.200,214.824 361.200 C 215.251 361.200,215.600 361.020,215.600 360.800 C 215.600 360.580,215.949 360.400,216.376 360.400 C 216.803 360.400,217.264 360.220,217.400 360.000 C 217.536 359.780,217.914 359.600,218.240 359.600 C 218.567 359.600,219.220 359.240,219.692 358.800 C 220.164 358.360,220.777 358.000,221.053 358.000 C 221.752 358.000,224.400 356.397,224.400 355.973 C 224.400 355.782,224.688 355.736,225.040 355.871 C 225.393 356.006,225.798 355.955,225.940 355.758 C 226.083 355.561,227.370 354.789,228.800 354.042 C 230.230 353.295,231.490 352.572,231.600 352.436 C 231.710 352.300,232.655 351.758,233.700 351.232 C 234.745 350.705,235.600 350.123,235.600 349.937 C 235.600 349.752,235.793 349.600,236.028 349.600 C 236.263 349.600,237.241 349.060,238.200 348.400 C 239.159 347.740,240.097 347.200,240.284 347.200 C 240.471 347.200,240.883 346.840,241.200 346.400 C 241.517 345.960,242.057 345.600,242.400 345.600 C 242.743 345.600,243.283 345.240,243.600 344.800 C 243.917 344.360,244.457 344.000,244.800 344.000 C 245.143 344.000,245.683 343.640,246.000 343.200 C 246.317 342.760,246.897 342.400,247.288 342.400 C 247.680 342.400,248.000 342.242,248.000 342.049 C 248.000 341.855,248.540 341.473,249.200 341.200 C 249.860 340.927,250.400 340.584,250.400 340.438 C 250.400 340.292,250.985 339.831,251.700 339.414 C 253.217 338.528,255.770 336.585,257.102 335.300 C 257.616 334.805,258.189 334.400,258.376 334.400 C 258.563 334.400,259.293 333.860,260.000 333.200 C 260.707 332.540,261.413 332.000,261.571 332.000 C 261.728 332.000,262.702 331.190,263.735 330.200 C 264.769 329.210,265.769 328.400,265.959 328.400 C 266.148 328.400,267.002 327.722,267.856 326.893 C 268.710 326.065,270.126 324.861,271.004 324.217 C 271.882 323.574,273.977 321.642,275.661 319.924 C 277.344 318.206,278.919 316.800,279.161 316.800 C 279.402 316.800,279.600 316.650,279.600 316.468 C 279.600 316.285,280.050 315.894,280.599 315.600 C 281.149 315.306,281.536 315.003,281.459 314.926 C 281.255 314.722,284.842 311.200,285.253 311.200 C 285.444 311.200,285.555 311.034,285.500 310.831 C 285.445 310.628,287.335 308.465,289.700 306.025 C 292.065 303.584,294.000 301.500,294.000 301.394 C 294.000 301.163,294.574 300.499,297.213 297.673 C 298.306 296.504,299.200 295.383,299.200 295.184 C 299.200 294.984,300.010 294.011,301.000 293.021 C 301.990 292.031,302.800 291.116,302.800 290.987 C 302.800 290.773,305.112 287.666,305.617 287.200 C 305.737 287.090,306.367 286.145,307.017 285.101 C 307.668 284.056,308.335 283.201,308.500 283.201 C 308.665 283.200,308.800 282.880,308.800 282.488 C 308.800 282.097,309.160 281.517,309.600 281.200 C 310.040 280.883,310.400 280.393,310.400 280.112 C 310.400 279.830,310.580 279.600,310.800 279.600 C 311.020 279.600,311.200 279.370,311.200 279.088 C 311.200 278.807,311.560 278.317,312.000 278.000 C 312.440 277.683,312.800 277.103,312.800 276.712 C 312.800 276.320,312.950 276.000,313.132 276.000 C 313.315 276.000,313.720 275.505,314.032 274.900 C 314.345 274.295,314.915 273.451,315.300 273.025 C 315.685 272.598,316.000 272.002,316.000 271.701 C 316.000 271.399,316.180 271.264,316.400 271.400 C 316.620 271.536,316.800 271.277,316.800 270.824 C 316.800 270.371,316.980 270.000,317.200 270.000 C 317.420 270.000,317.600 269.722,317.600 269.383 C 317.600 269.044,317.960 268.380,318.400 267.908 C 318.840 267.436,319.200 266.813,319.200 266.525 C 319.200 266.236,319.380 266.000,319.600 266.000 C 319.820 266.000,320.000 265.655,320.000 265.233 C 320.000 264.812,320.155 264.407,320.344 264.333 C 320.794 264.159,327.600 250.847,327.600 250.141 C 327.600 249.844,327.780 249.600,328.000 249.600 C 328.220 249.600,328.400 249.240,328.400 248.800 C 328.400 248.360,328.580 248.000,328.800 248.000 C 329.020 248.000,329.200 247.640,329.200 247.200 C 329.200 246.760,329.380 246.400,329.600 246.400 C 329.820 246.400,330.000 246.040,330.000 245.600 C 330.000 245.160,330.180 244.800,330.400 244.800 C 330.620 244.800,330.800 244.528,330.800 244.195 C 330.800 243.862,330.980 243.232,331.200 242.795 C 331.420 242.358,331.780 241.642,332.000 241.205 C 332.220 240.768,332.400 240.138,332.400 239.805 C 332.400 239.472,332.580 239.200,332.800 239.200 C 333.020 239.200,333.200 238.845,333.200 238.412 C 333.200 237.979,333.560 236.983,334.000 236.200 C 334.440 235.417,334.800 234.421,334.800 233.988 C 334.800 233.555,334.947 233.200,335.128 233.200 C 335.308 233.200,335.704 232.289,336.007 231.175 C 336.310 230.061,336.703 229.060,336.879 228.951 C 337.056 228.842,337.200 228.324,337.200 227.800 C 337.200 227.276,337.380 226.736,337.600 226.600 C 337.820 226.464,338.000 225.913,338.000 225.376 C 338.000 224.839,338.180 224.400,338.400 224.400 C 338.620 224.400,338.800 223.871,338.800 223.224 C 338.800 222.577,338.969 221.943,339.175 221.816 C 339.381 221.688,339.545 221.273,339.540 220.892 C 339.534 220.511,339.806 219.460,340.144 218.556 C 340.481 217.651,340.820 216.443,340.897 215.871 C 340.974 215.298,341.163 214.703,341.318 214.548 C 341.752 214.114,341.652 211.600,341.200 211.600 C 340.980 211.600,340.800 212.320,340.800 213.200 M68.673 241.060 C 68.247 241.486,68.352 242.800,68.813 242.800 C 69.404 242.800,69.776 241.616,69.326 241.166 C 69.118 240.958,68.824 240.910,68.673 241.060 M187.200 271.325 C 187.200 271.394,187.785 271.979,188.500 272.625 L 189.800 273.800 188.625 272.500 C 187.530 271.288,187.200 271.016,187.200 271.325 " stroke="none" fill="#538747" fill-rule="evenodd"></path><path id="path4" d="M194.381 88.485 C 180.926 101.995,167.649 121.572,161.207 137.400 C 161.028 137.840,160.605 138.833,160.267 139.606 C 158.574 143.476,157.922 145.600,158.428 145.600 C 158.633 145.600,158.800 145.238,158.800 144.795 C 158.800 144.352,158.959 143.677,159.153 143.295 C 159.526 142.563,160.299 140.746,160.812 139.400 C 162.760 134.283,169.473 121.338,172.465 116.928 C 173.089 116.008,173.600 115.063,173.600 114.828 C 173.600 114.593,173.780 114.400,174.000 114.400 C 174.220 114.400,174.400 114.130,174.400 113.800 C 174.400 113.470,174.580 113.200,174.800 113.200 C 175.020 113.200,175.200 112.945,175.200 112.633 C 175.200 112.322,175.347 112.007,175.528 111.933 C 175.708 111.860,176.641 110.630,177.601 109.200 C 179.182 106.844,181.154 104.167,182.200 102.957 C 182.420 102.703,183.860 100.915,185.400 98.984 C 186.940 97.053,190.810 92.801,194.000 89.535 C 197.190 86.268,199.675 83.597,199.523 83.598 C 199.370 83.599,197.056 85.798,194.381 88.485 M157.646 146.267 C 157.621 146.524,157.484 147.064,157.341 147.467 C 157.140 148.036,157.194 148.097,157.579 147.742 C 157.852 147.491,157.989 146.951,157.884 146.542 C 157.779 146.134,157.672 146.010,157.646 146.267 M156.846 148.667 C 156.821 148.924,156.684 149.464,156.541 149.867 C 156.340 150.436,156.394 150.497,156.779 150.142 C 157.052 149.891,157.189 149.351,157.084 148.942 C 156.979 148.534,156.872 148.410,156.846 148.667 M155.024 154.624 C 154.424 156.738,154.030 158.563,154.147 158.681 C 154.265 158.798,154.474 158.378,154.613 157.747 C 154.752 157.116,155.010 156.150,155.186 155.600 C 156.176 152.517,156.507 151.174,156.322 150.989 C 156.208 150.875,155.624 152.510,155.024 154.624 M153.400 160.800 C 153.248 161.491,153.214 162.147,153.324 162.257 C 153.434 162.367,153.648 161.891,153.800 161.200 C 153.952 160.509,153.986 159.853,153.876 159.743 C 153.766 159.633,153.552 160.109,153.400 160.800 M152.244 166.493 C 150.375 176.731,150.000 180.849,150.000 191.113 C 150.000 196.213,150.196 201.693,150.437 203.293 C 150.677 204.892,150.958 206.803,151.062 207.541 C 151.166 208.278,151.339 208.794,151.446 208.687 C 151.553 208.580,151.361 206.364,151.020 203.763 C 149.784 194.334,150.360 179.591,152.418 167.992 C 152.891 165.326,153.197 163.064,153.099 162.966 C 153.000 162.867,152.616 164.455,152.244 166.493 M151.634 209.851 C 151.590 210.957,152.891 216.724,153.067 216.199 C 153.140 215.979,152.856 214.269,152.434 212.399 C 152.012 210.530,151.652 209.383,151.634 209.851 M153.259 217.400 C 153.263 218.356,154.729 222.466,154.758 221.600 C 154.769 221.270,154.435 220.010,154.017 218.800 C 153.598 217.590,153.257 216.960,153.259 217.400 M154.828 222.676 C 154.918 223.715,155.544 224.596,155.572 223.724 C 155.587 223.242,155.420 222.736,155.200 222.600 C 154.980 222.464,154.813 222.498,154.828 222.676 M155.600 224.962 C 155.600 225.535,157.963 231.091,160.040 235.400 C 166.138 248.055,177.049 262.118,189.300 273.111 L 191.200 274.816 191.200 287.365 C 191.200 298.439,191.274 299.943,191.833 300.157 C 192.181 300.291,195.856 300.400,200.000 300.400 C 204.144 300.400,207.819 300.291,208.167 300.157 C 208.726 299.943,208.800 298.398,208.800 286.891 C 208.800 279.727,208.698 273.969,208.573 274.093 C 208.449 274.218,208.314 280.053,208.273 287.060 L 208.200 299.800 200.000 299.800 L 191.800 299.800 191.716 287.302 L 191.633 274.803 185.291 268.502 C 178.873 262.125,176.293 259.358,174.306 256.721 C 173.704 255.923,172.981 255.029,172.697 254.735 C 170.528 252.481,164.167 242.544,161.600 237.400 C 160.832 235.860,160.068 234.540,159.902 234.467 C 159.736 234.393,159.600 234.095,159.600 233.804 C 159.600 233.514,159.214 232.494,158.743 231.538 C 158.272 230.582,157.711 229.350,157.497 228.800 C 157.282 228.250,156.948 227.487,156.753 227.105 C 156.559 226.723,156.400 226.149,156.400 225.829 C 156.400 225.509,156.220 225.136,156.000 225.000 C 155.780 224.864,155.600 224.847,155.600 224.962 " stroke="none" fill="#68905c" fill-rule="evenodd"></path></g></svg>